NotoSymbols2-NO-CONFLICT.sfdir
StartChar: zero
Encoding: 48 48 70
Width: 1102
GlyphClass: 2
Flags: W
AnchorPoint: "Anchor-1" 551 715 basechar 0
LayerCount: 2
Fore
SplineSet
553 75 m 0,0,1
 452 75 452 75 405.5 148 c 128,-1,2
 359 221 359 221 359 360 c 0,3,4
 359 497 359 497 405.5 568 c 128,-1,5
 452 639 452 639 549 639 c 0,6,7
 649 639 649 639 696 565.5 c 128,-1,8
 743 492 743 492 743 353 c 0,9,10
 743 271 743 271 725 208.5 c 128,-1,11
 707 146 707 146 665.5 110.5 c 128,-1,12
 624 75 624 75 553 75 c 0,0,1
550 165 m 0,13,14
 598 165 598 165 615.5 211.5 c 128,-1,15
 633 258 633 258 633 352 c 0,16,17
 633 442 633 442 616.5 494 c 128,-1,18
 600 546 600 546 550 546 c 0,19,20
 503 546 503 546 484.5 497 c 128,-1,21
 466 448 466 448 466 353 c 256,22,23
 466 258 466 258 484.5 211.5 c 128,-1,24
 503 165 503 165 550 165 c 0,13,14
EndSplineSet
EndChar
StartChar: six
Encoding: 54 54 76
Width: 1102
GlyphClass: 2
Flags: W
AnchorPoint: "Anchor-1" 551 715 basechar 0
LayerCount: 2
Fore
SplineSet
548 74 m 0,0,1
 459 74 459 74 406 140 c 128,-1,2
 353 206 353 206 353 333 c 0,3,4
 353 483 353 483 420 560 c 128,-1,5
 487 637 487 637 626 637 c 0,6,7
 643 637 643 637 660.5 636 c 128,-1,8
 678 635 678 635 691 632 c 1,9,-1
 691 539 l 1,10,11
 674 543 674 543 657 545 c 128,-1,12
 640 547 640 547 622 547 c 0,13,14
 544 547 544 547 505 504 c 128,-1,15
 466 461 466 461 459 375 c 1,16,-1
 464 375 l 1,17,18
 483 406 483 406 511.5 422.5 c 128,-1,19
 540 439 540 439 581 439 c 0,20,21
 654 439 654 439 691.5 391.5 c 128,-1,22
 729 344 729 344 729 265 c 0,23,24
 729 176 729 176 681.5 125 c 128,-1,25
 634 74 634 74 548 74 c 0,0,1
546 171 m 0,26,27
 617 171 617 171 617 264 c 0,28,29
 617 304 617 304 600 327 c 128,-1,30
 583 350 583 350 548 350 c 0,31,32
 516 350 516 350 492 326 c 128,-1,33
 468 302 468 302 468 259 c 0,34,35
 468 220 468 220 489 195.5 c 128,-1,36
 510 171 510 171 546 171 c 0,26,27
EndSplineSet
EndChar
StartChar: eight
Encoding: 56 56 78
Width: 1102
GlyphClass: 2
Flags: W
AnchorPoint: "Anchor-1" 551 715 basechar 0
LayerCount: 2
Fore
SplineSet
551 75 m 0,0,1
 472 75 472 75 419 110.5 c 128,-1,2
 366 146 366 146 366 222 c 0,3,4
 366 269 366 269 389 305 c 128,-1,5
 412 341 412 341 463 369 c 1,6,7
 420 398 420 398 401.5 432 c 128,-1,8
 383 466 383 466 383 507 c 0,9,10
 383 550 383 550 406 579 c 128,-1,11
 429 608 429 608 467 623 c 128,-1,12
 505 638 505 638 551 638 c 256,13,14
 597 638 597 638 635 623.5 c 128,-1,15
 673 609 673 609 696 579.5 c 128,-1,16
 719 550 719 550 719 506 c 0,17,18
 719 464 719 464 697.5 431 c 128,-1,19
 676 398 676 398 628 372 c 1,20,21
 686 339 686 339 711 303.5 c 128,-1,22
 736 268 736 268 736 225 c 0,23,24
 736 176 736 176 711 142.5 c 128,-1,25
 686 109 686 109 644 92 c 128,-1,26
 602 75 602 75 551 75 c 0,0,1
551 421 m 1,27,28
 584 438 584 438 597 456 c 128,-1,29
 610 474 610 474 610 498 c 0,30,31
 610 520 610 520 593.5 534 c 128,-1,32
 577 548 577 548 550 548 c 0,33,34
 524 548 524 548 508 534 c 128,-1,35
 492 520 492 520 492 498 c 0,36,37
 492 470 492 470 508 453 c 128,-1,38
 524 436 524 436 551 421 c 1,27,28
549 165 m 0,39,40
 590 165 590 165 609.5 182.5 c 128,-1,41
 629 200 629 200 629 228 c 0,42,43
 629 253 629 253 609 274.5 c 128,-1,44
 589 296 589 296 546 322 c 1,45,46
 473 285 473 285 473 228 c 0,47,48
 473 199 473 199 493.5 182 c 128,-1,49
 514 165 514 165 549 165 c 0,39,40
EndSplineSet
EndChar
StartChar: nine
Encoding: 57 57 79
Width: 1102
GlyphClass: 2
Flags: W
AnchorPoint: "Anchor-1" 551 715 basechar 0
LayerCount: 2
Fore
SplineSet
474 75 m 0,0,1
 458 75 458 75 440 76 c 128,-1,2
 422 77 422 77 409 80 c 1,3,-1
 409 173 l 1,4,5
 441 166 441 166 479 166 c 0,6,7
 562 166 562 166 598.5 211 c 128,-1,8
 635 256 635 256 642 337 c 1,9,-1
 637 337 l 1,10,11
 601 275 601 275 521 275 c 0,12,13
 448 275 448 275 410.5 321.5 c 128,-1,14
 373 368 373 368 373 447 c 0,15,16
 373 536 373 536 420.5 588 c 128,-1,17
 468 640 468 640 554 640 c 0,18,19
 643 640 643 640 696 574.5 c 128,-1,20
 749 509 749 509 749 386 c 0,21,22
 749 231 749 231 681.5 153 c 128,-1,23
 614 75 614 75 474 75 c 0,0,1
554 364 m 0,24,25
 586 364 586 364 610 387 c 128,-1,26
 634 410 634 410 634 451 c 256,27,28
 634 492 634 492 613 517.5 c 128,-1,29
 592 543 592 543 556 543 c 0,30,31
 485 543 485 543 485 449 c 0,32,33
 485 409 485 409 502 386.5 c 128,-1,34
 519 364 519 364 554 364 c 0,24,25
EndSplineSet
EndChar
StartChar: uni20E3
Encoding: 8419 8419 1284
Width: 0
Flags: W
AnchorPoint: "Anchor-1" 0 715 mark 0
LayerCount: 2
Fore
SplineSet
-398 -142 m 2,0,1
 -444 -142 -444 -142 -472 -114.5 c 128,-1,2
 -500 -87 -500 -87 -500 -41 c 2,3,-1
 -500 755 l 2,4,5
 -500 802 -500 802 -472 829 c 128,-1,6
 -444 856 -444 856 -398 856 c 2,7,-1
 399 856 l 2,8,9
 446 856 446 856 473 829 c 128,-1,10
 500 802 500 802 500 755 c 2,11,-1
 500 -41 l 2,12,13
 500 -87 500 -87 473 -114.5 c 128,-1,14
 446 -142 446 -142 399 -142 c 2,15,-1
 -398 -142 l 2,0,1
472 -68 m 1,16,-1
 472 732 l 2,17,18
 472 777 472 777 450 802 c 128,-1,19
 428 827 428 827 380 827 c 2,20,-1
 -421 827 l 1,21,-1
 -344 763 l 1,22,-1
 273 763 l 2,23,24
 331 763 331 763 354.5 742 c 128,-1,25
 378 721 378 721 378 660 c 2,26,-1
 378 0 l 1,27,-1
 472 -68 l 1,16,-1
-243 0 m 2,28,-1
 244 0 l 2,29,30
 291 0 291 0 309.5 18 c 128,-1,31
 328 36 328 36 328 85 c 2,32,-1
 328 629 l 2,33,34
 328 676 328 676 309.5 695 c 128,-1,35
 291 714 291 714 244 714 c 2,36,-1
 -243 714 l 2,37,38
 -289 714 -289 714 -307.5 694 c 128,-1,39
 -326 674 -326 674 -326 629 c 2,40,-1
 -326 85 l 2,41,42
 -326 39 -326 39 -307.5 19.5 c 128,-1,43
 -289 0 -289 0 -243 0 c 2,28,-1
EndSplineSet
EndChar
StartChar: uni21E6
Encoding: 8678 8678 110
Width: 815
Flags: W
LayerCount: 2
Fore
SplineSet
331 62 m 1,0,-1
 51 342 l 1,1,-1
 331 622 l 1,2,-1
 331 469 l 1,3,-1
 764 469 l 1,4,-1
 764 215 l 1,5,-1
 331 215 l 1,6,-1
 331 62 l 1,0,-1
301 135 m 1,7,-1
 301 245 l 1,8,-1
 734 245 l 1,9,-1
 734 439 l 1,10,-1
 301 439 l 1,11,-1
 301 549 l 1,12,-1
 94 342 l 1,13,-1
 301 135 l 1,7,-1
EndSplineSet
EndChar
StartChar: uni21E8
Encoding: 8680 8680 106
Width: 815
Flags: W
LayerCount: 2
Fore
SplineSet
484 62 m 1,0,-1
 484 215 l 1,1,-1
 51 215 l 1,2,-1
 51 469 l 1,3,-1
 484 469 l 1,4,-1
 484 622 l 1,5,-1
 764 342 l 1,6,-1
 484 62 l 1,0,-1
514 135 m 1,7,-1
 721 342 l 1,8,-1
 514 549 l 1,9,-1
 514 439 l 1,10,-1
 81 439 l 1,11,-1
 81 245 l 1,12,-1
 514 245 l 1,13,-1
 514 135 l 1,7,-1
EndSplineSet
EndChar
StartChar: uni21EE
Encoding: 8686 8686 116
Width: 662
Flags: W
LayerCount: 2
Fore
SplineSet
204 -117 m 1,0,-1
 204 403 l 1,1,-1
 51 403 l 1,2,-1
 173 525 l 1,3,-1
 51 525 l 1,4,-1
 331 805 l 1,5,-1
 611 525 l 1,6,-1
 489 525 l 1,7,-1
 611 403 l 1,8,-1
 458 403 l 1,9,-1
 458 -117 l 1,10,-1
 204 -117 l 1,0,-1
124 555 m 1,11,-1
 203 555 l 1,12,-1
 331 683 l 1,13,-1
 459 555 l 1,14,-1
 538 555 l 1,15,-1
 331 762 l 1,16,-1
 124 555 l 1,11,-1
234 -87 m 1,17,-1
 428 -87 l 1,18,-1
 428 433 l 1,19,-1
 538 433 l 1,20,-1
 331 640 l 1,21,-1
 124 433 l 1,22,-1
 234 433 l 1,23,-1
 234 -87 l 1,17,-1
EndSplineSet
EndChar
StartChar: uni2218
Encoding: 8728 8728 1882
Width: 276
Flags: W
LayerCount: 2
Fore
SplineSet
138 275 m 256,0,1
 102 275 102 275 76.5 300.5 c 128,-1,2
 51 326 51 326 51 362 c 256,3,4
 51 398 51 398 76.5 423.5 c 128,-1,5
 102 449 102 449 138 449 c 256,6,7
 174 449 174 449 199.5 423.5 c 128,-1,8
 225 398 225 398 225 362 c 256,9,10
 225 326 225 326 199.5 300.5 c 128,-1,11
 174 275 174 275 138 275 c 256,0,1
138 312 m 256,12,13
 158 312 158 312 173 327 c 128,-1,14
 188 342 188 342 188 362 c 256,15,16
 188 382 188 382 173 397 c 128,-1,17
 158 412 158 412 138 412 c 256,18,19
 118 412 118 412 103 397 c 128,-1,20
 88 382 88 382 88 362 c 256,21,22
 88 342 88 342 103 327 c 128,-1,23
 118 312 118 312 138 312 c 256,12,13
EndSplineSet
EndChar
StartChar: uni22C4
Encoding: 8900 8900 1881
Width: 298
Flags: W
LayerCount: 2
Fore
SplineSet
149 264 m 1,0,-1
 51 362 l 1,1,-1
 149 460 l 1,2,-1
 247 362 l 1,3,-1
 149 264 l 1,0,-1
EndSplineSet
EndChar
StartChar: uni2318
Encoding: 8984 8984 894
Width: 814
Flags: W
LayerCount: 2
Fore
SplineSet
204 0 m 0,0,1
 134 0 134 0 92.5 41 c 128,-1,2
 51 82 51 82 51 151 c 0,3,4
 51 224 51 224 94.5 264.5 c 128,-1,5
 138 305 138 305 223 305 c 2,6,-1
 282 305 l 1,7,-1
 282 415 l 1,8,-1
 223 415 l 2,9,10
 138 415 138 415 94.5 455.5 c 128,-1,11
 51 496 51 496 51 569 c 0,12,13
 51 638 51 638 92.5 679 c 128,-1,14
 134 720 134 720 204 720 c 0,15,16
 260 720 260 720 292.5 699 c 128,-1,17
 325 678 325 678 338.5 643 c 128,-1,18
 352 608 352 608 352 566 c 2,19,-1
 352 483 l 1,20,-1
 462 483 l 1,21,-1
 462 566 l 2,22,23
 462 608 462 608 475.5 643 c 128,-1,24
 489 678 489 678 521.5 699 c 128,-1,25
 554 720 554 720 610 720 c 0,26,27
 680 720 680 720 721.5 679 c 128,-1,28
 763 638 763 638 763 569 c 0,29,30
 763 496 763 496 719.5 455.5 c 128,-1,31
 676 415 676 415 591 415 c 2,32,-1
 532 415 l 1,33,-1
 532 305 l 1,34,-1
 591 305 l 2,35,36
 676 305 676 305 719.5 264.5 c 128,-1,37
 763 224 763 224 763 151 c 0,38,39
 763 82 763 82 721.5 41 c 128,-1,40
 680 0 680 0 610 0 c 0,41,42
 554 0 554 0 521.5 21 c 128,-1,43
 489 42 489 42 475.5 77 c 128,-1,44
 462 112 462 112 462 154 c 2,45,-1
 462 237 l 1,46,-1
 352 237 l 1,47,-1
 352 154 l 2,48,49
 352 112 352 112 338.5 77 c 128,-1,50
 325 42 325 42 292.5 21 c 128,-1,51
 260 0 260 0 204 0 c 0,0,1
532 568 m 2,52,-1
 532 483 l 1,53,-1
 591 483 l 2,54,55
 644 483 644 483 668 504.5 c 128,-1,56
 692 526 692 526 692 569 c 0,57,58
 692 613 692 613 668.5 632 c 128,-1,59
 645 651 645 651 610 651 c 0,60,61
 571 651 571 651 551.5 628.5 c 128,-1,62
 532 606 532 606 532 568 c 2,52,-1
223 483 m 2,63,-1
 282 483 l 1,64,-1
 282 568 l 2,65,66
 282 606 282 606 262.5 628.5 c 128,-1,67
 243 651 243 651 204 651 c 0,68,69
 169 651 169 651 145.5 632 c 128,-1,70
 122 613 122 613 122 569 c 0,71,72
 122 526 122 526 146 504.5 c 128,-1,73
 170 483 170 483 223 483 c 2,63,-1
352 305 m 1,74,-1
 462 305 l 1,75,-1
 462 415 l 1,76,-1
 352 415 l 1,77,-1
 352 305 l 1,74,-1
204 69 m 0,78,79
 243 69 243 69 262.5 91.5 c 128,-1,80
 282 114 282 114 282 152 c 2,81,-1
 282 237 l 1,82,-1
 223 237 l 2,83,84
 170 237 170 237 146 215.5 c 128,-1,85
 122 194 122 194 122 151 c 0,86,87
 122 107 122 107 145.5 88 c 128,-1,88
 169 69 169 69 204 69 c 0,78,79
532 152 m 2,89,90
 532 114 532 114 551.5 91.5 c 128,-1,91
 571 69 571 69 610 69 c 0,92,93
 645 69 645 69 668.5 88 c 128,-1,94
 692 107 692 107 692 151 c 0,95,96
 692 194 692 194 668 215.5 c 128,-1,97
 644 237 644 237 591 237 c 2,98,-1
 532 237 l 1,99,-1
 532 152 l 2,89,90
EndSplineSet
EndChar
StartChar: uni2324
Encoding: 8996 8996 120
Width: 888
Flags: W
LayerCount: 2
Fore
SplineSet
224 140 m 1,0,-1
 434 536 l 1,1,-1
 454 536 l 1,2,-1
 664 140 l 1,3,-1
 583 140 l 1,4,-1
 444 406 l 1,5,-1
 305 140 l 1,6,-1
 224 140 l 1,0,-1
51 465 m 1,7,-1
 51 536 l 1,8,-1
 298 536 l 1,9,-1
 298 465 l 1,10,-1
 51 465 l 1,7,-1
590 465 m 1,11,-1
 590 536 l 1,12,-1
 837 536 l 1,13,-1
 837 465 l 1,14,-1
 590 465 l 1,11,-1
EndSplineSet
EndChar
StartChar: uni232B
Encoding: 9003 9003 891
Width: 1197
Flags: W
LayerCount: 2
Fore
SplineSet
353 0 m 1,0,-1
 51 347 l 1,1,-1
 353 694 l 1,2,-1
 1146 694 l 1,3,-1
 1146 0 l 1,4,-1
 353 0 l 1,0,-1
390 71 m 1,5,-1
 1074 71 l 1,6,-1
 1074 623 l 1,7,-1
 390 623 l 1,8,-1
 148 347 l 1,9,-1
 390 71 l 1,5,-1
535 110 m 1,10,-1
 482 160 l 1,11,-1
 660 347 l 1,12,-1
 482 534 l 1,13,-1
 534 584 l 1,14,-1
 710 399 l 1,15,-1
 886 584 l 1,16,-1
 938 534 l 1,17,-1
 760 347 l 1,18,-1
 938 160 l 1,19,-1
 885 110 l 1,20,-1
 710 294 l 1,21,-1
 535 110 l 1,10,-1
EndSplineSet
EndChar
StartChar: uni237E
Encoding: 9086 9086 1931
Width: 770
Flags: W
LayerCount: 2
Fore
SplineSet
56 0 m 1,0,-1
 56 71 l 1,1,-1
 204 71 l 1,2,-1
 204 267 l 1,3,-1
 56 267 l 1,4,5
 56 335 56 335 81.5 394.5 c 128,-1,6
 107 454 107 454 152 499.5 c 128,-1,7
 197 545 197 545 256.5 570.5 c 128,-1,8
 316 596 316 596 385 596 c 0,9,10
 453 596 453 596 512.5 570.5 c 128,-1,11
 572 545 572 545 617.5 500 c 128,-1,12
 663 455 663 455 688.5 395 c 128,-1,13
 714 335 714 335 714 267 c 1,14,-1
 566 267 l 1,15,-1
 566 71 l 1,16,-1
 714 71 l 1,17,-1
 714 0 l 1,18,-1
 495 0 l 1,19,-1
 495 267 l 1,20,-1
 275 267 l 1,21,-1
 275 0 l 1,22,-1
 56 0 l 1,0,-1
137 338 m 1,23,-1
 633 338 l 1,24,25
 616 394 616 394 579.5 436 c 128,-1,26
 543 478 543 478 492.5 501.5 c 128,-1,27
 442 525 442 525 385 525 c 256,28,29
 328 525 328 525 277 500.5 c 128,-1,30
 226 476 226 476 189.5 434 c 128,-1,31
 153 392 153 392 137 338 c 1,23,-1
EndSplineSet
EndChar
StartChar: uni23FB
Encoding: 9211 9211 1978
Width: 894
Flags: W
LayerCount: 2
Fore
SplineSet
393 399 m 1,0,-1
 393 802 l 1,1,-1
 497 802 l 1,2,-1
 497 399 l 1,3,-1
 393 399 l 1,0,-1
447 -40 m 0,4,5
 360 -40 360 -40 287 -10.5 c 128,-1,6
 214 19 214 19 160 72 c 128,-1,7
 106 125 106 125 76 196.5 c 128,-1,8
 46 268 46 268 46 353 c 0,9,10
 46 449 46 449 86 537.5 c 128,-1,11
 126 626 126 626 204 682 c 1,12,-1
 258 612 l 1,13,14
 215 583 215 583 187.5 540 c 128,-1,15
 160 497 160 497 146.5 448 c 128,-1,16
 133 399 133 399 133 353 c 0,17,18
 133 289 133 289 156 233 c 128,-1,19
 179 177 179 177 221.5 135 c 128,-1,20
 264 93 264 93 321 69.5 c 128,-1,21
 378 46 378 46 446 46 c 0,22,23
 515 46 515 46 572.5 69.5 c 128,-1,24
 630 93 630 93 672 135 c 128,-1,25
 714 177 714 177 737.5 233 c 128,-1,26
 761 289 761 289 761 353 c 0,27,28
 761 399 761 399 747.5 448 c 128,-1,29
 734 497 734 497 706.5 540 c 128,-1,30
 679 583 679 583 636 612 c 1,31,-1
 690 682 l 1,32,33
 768 626 768 626 808 537.5 c 128,-1,34
 848 449 848 449 848 353 c 0,35,36
 848 268 848 268 818 196.5 c 128,-1,37
 788 125 788 125 734 72 c 128,-1,38
 680 19 680 19 606.5 -10.5 c 128,-1,39
 533 -40 533 -40 447 -40 c 0,4,5
EndSplineSet
EndChar
StartChar: uni23FC
Encoding: 9212 9212 1975
Width: 894
Flags: W
LayerCount: 2
Fore
SplineSet
447 -40 m 0,0,1
 363 -40 363 -40 290.5 -9 c 128,-1,2
 218 22 218 22 162.5 77 c 128,-1,3
 107 132 107 132 76 205 c 128,-1,4
 45 278 45 278 45 361 c 256,5,6
 45 444 45 444 76 517 c 128,-1,7
 107 590 107 590 162.5 645.5 c 128,-1,8
 218 701 218 701 290.5 732 c 128,-1,9
 363 763 363 763 447 763 c 0,10,11
 530 763 530 763 602.5 732 c 128,-1,12
 675 701 675 701 730.5 645.5 c 128,-1,13
 786 590 786 590 817.5 517 c 128,-1,14
 849 444 849 444 849 361 c 256,15,16
 849 278 849 278 817.5 205 c 128,-1,17
 786 132 786 132 730.5 77 c 128,-1,18
 675 22 675 22 602.5 -9 c 128,-1,19
 530 -40 530 -40 447 -40 c 0,0,1
447 45 m 256,20,21
 513 45 513 45 570.5 69.5 c 128,-1,22
 628 94 628 94 671.5 137 c 128,-1,23
 715 180 715 180 739.5 237.5 c 128,-1,24
 764 295 764 295 764 361 c 256,25,26
 764 427 764 427 739.5 484.5 c 128,-1,27
 715 542 715 542 671.5 585.5 c 128,-1,28
 628 629 628 629 570.5 653.5 c 128,-1,29
 513 678 513 678 447 678 c 256,30,31
 381 678 381 678 323.5 653.5 c 128,-1,32
 266 629 266 629 222 585.5 c 128,-1,33
 178 542 178 542 153.5 484.5 c 128,-1,34
 129 427 129 427 129 361 c 256,35,36
 129 295 129 295 153.5 237.5 c 128,-1,37
 178 180 178 180 222 137 c 128,-1,38
 266 94 266 94 323.5 69.5 c 128,-1,39
 381 45 381 45 447 45 c 256,20,21
393 132 m 1,40,-1
 393 582 l 1,41,-1
 497 582 l 1,42,-1
 497 132 l 1,43,-1
 393 132 l 1,40,-1
EndSplineSet
EndChar
StartChar: uni23FE
Encoding: 9214 9214 1977
Width: 894
Flags: W
LayerCount: 2
Fore
SplineSet
472 1 m 0,0,1
 388 1 388 1 318 29.5 c 128,-1,2
 248 58 248 58 196 109.5 c 128,-1,3
 144 161 144 161 115.5 231.5 c 128,-1,4
 87 302 87 302 87 385 c 0,5,6
 87 493 87 493 133.5 579.5 c 128,-1,7
 180 666 180 666 257 721 c 1,8,9
 200 627 200 627 200 513 c 0,10,11
 200 430 200 430 231 357.5 c 128,-1,12
 262 285 262 285 316.5 230.5 c 128,-1,13
 371 176 371 176 443.5 145 c 128,-1,14
 516 114 516 114 599 114 c 0,15,16
 713 114 713 114 807 171 c 1,17,18
 752 94 752 94 665.5 47.5 c 128,-1,19
 579 1 579 1 472 1 c 0,0,1
EndSplineSet
EndChar
StartChar: uni2405
Encoding: 9221 9221 818
Width: 600
Flags: W
LayerCount: 2
Fore
SplineSet
41 463 m 1,0,-1
 41 690 l 1,1,-1
 176 690 l 1,2,-1
 176 660 l 1,3,-1
 78 660 l 1,4,-1
 78 596 l 1,5,-1
 170 596 l 1,6,-1
 170 566 l 1,7,-1
 78 566 l 1,8,-1
 78 493 l 1,9,-1
 176 493 l 1,10,-1
 176 463 l 1,11,-1
 41 463 l 1,0,-1
220 229 m 1,12,-1
 220 456 l 1,13,-1
 260 456 l 1,14,-1
 339 284 l 1,15,-1
 338 306 l 1,16,-1
 338 456 l 1,17,-1
 373 456 l 1,18,-1
 373 229 l 1,19,-1
 333 229 l 1,20,-1
 253 402 l 1,21,-1
 255 356 l 1,22,-1
 255 229 l 1,23,-1
 220 229 l 1,12,-1
517 -45 m 1,24,-1
 494 -5 l 1,25,-1
 484 -6 l 1,26,27
 393 -6 393 -6 393 114 c 0,28,29
 393 230 393 230 485 230 c 256,30,31
 577 230 577 230 577 114 c 0,32,33
 577 27 577 27 524 2 c 1,34,-1
 527 3 l 1,35,-1
 562 -45 l 1,36,-1
 517 -45 l 1,24,-1
484 24 m 0,37,38
 536 24 536 24 536 114 c 0,39,40
 536 200 536 200 485 200 c 256,41,42
 434 200 434 200 434 114 c 0,43,44
 434 24 434 24 484 24 c 0,37,38
EndSplineSet
EndChar
StartChar: uni240B
Encoding: 9227 9227 1200
Width: 600
Flags: W
LayerCount: 2
Fore
SplineSet
204 351 m 1,0,-1
 132 578 l 1,1,-1
 172 578 l 1,2,-1
 222 390 l 1,3,-1
 230 418 l 1,4,-1
 270 578 l 1,5,-1
 310 578 l 1,6,-1
 239 351 l 1,7,-1
 204 351 l 1,0,-1
403 124 m 1,8,-1
 403 321 l 1,9,-1
 342 321 l 1,10,-1
 342 351 l 1,11,-1
 501 351 l 1,12,-1
 501 321 l 1,13,-1
 440 321 l 1,14,-1
 440 124 l 1,15,-1
 403 124 l 1,8,-1
EndSplineSet
EndChar
StartChar: uni240C
Encoding: 9228 9228 832
Width: 600
Flags: W
LayerCount: 2
Fore
SplineSet
143 351 m 1,0,-1
 143 578 l 1,1,-1
 283 578 l 1,2,-1
 283 548 l 1,3,-1
 180 548 l 1,4,-1
 180 474 l 1,5,-1
 277 474 l 1,6,-1
 277 444 l 1,7,-1
 180 444 l 1,8,-1
 180 351 l 1,9,-1
 143 351 l 1,0,-1
359 124 m 1,10,-1
 359 351 l 1,11,-1
 499 351 l 1,12,-1
 499 321 l 1,13,-1
 396 321 l 1,14,-1
 396 247 l 1,15,-1
 493 247 l 1,16,-1
 493 217 l 1,17,-1
 396 217 l 1,18,-1
 396 124 l 1,19,-1
 359 124 l 1,10,-1
EndSplineSet
EndChar
StartChar: uni240F
Encoding: 9231 9231 1088
Width: 600
Flags: W
LayerCount: 2
Fore
SplineSet
187 346 m 0,0,1
 167 346 167 346 149.5 349.5 c 128,-1,2
 132 353 132 353 118 359 c 1,3,-1
 118 392 l 1,4,5
 155 375 155 375 187 375 c 0,6,7
 234 375 234 375 234 409 c 0,8,9
 234 432 234 432 199 446 c 256,10,11
 164 460 164 460 143 476 c 128,-1,12
 122 492 122 492 122 523 c 256,13,14
 122 554 122 554 145 568 c 128,-1,15
 168 582 168 582 199 582 c 0,16,17
 234 582 234 582 267 568 c 1,18,-1
 256 540 l 1,19,20
 229 553 229 553 201 553 c 0,21,22
 183 553 183 553 171.5 545 c 128,-1,23
 160 537 160 537 160 523 c 0,24,25
 160 501 160 501 188 489 c 0,26,27
 206 481 206 481 226 471.5 c 128,-1,28
 246 462 246 462 259.5 448 c 128,-1,29
 273 434 273 434 273 412 c 0,30,31
 273 378 273 378 249 362 c 128,-1,32
 225 346 225 346 187 346 c 0,0,1
360 124 m 1,33,-1
 360 144 l 1,34,-1
 401 154 l 1,35,-1
 401 321 l 1,36,-1
 360 331 l 1,37,-1
 360 351 l 1,38,-1
 479 351 l 1,39,-1
 479 331 l 1,40,-1
 438 321 l 1,41,-1
 438 154 l 1,42,-1
 479 144 l 1,43,-1
 479 124 l 1,44,-1
 360 124 l 1,33,-1
EndSplineSet
EndChar
StartChar: uni2412
Encoding: 9234 9234 517
Width: 600
Flags: W
LayerCount: 2
Fore
SplineSet
38 463 m 1,0,-1
 38 690 l 1,1,-1
 102 690 l 2,2,3
 205 690 205 690 205 578 c 0,4,5
 205 524 205 524 179 493.5 c 128,-1,6
 153 463 153 463 102 463 c 2,7,-1
 38 463 l 1,0,-1
75 493 m 1,8,-1
 95 493 l 2,9,10
 136 493 136 493 150 514 c 128,-1,11
 164 535 164 535 164 577 c 256,12,13
 164 619 164 619 148 639.5 c 128,-1,14
 132 660 132 660 92 660 c 2,15,-1
 75 660 l 1,16,-1
 75 493 l 1,8,-1
315 227 m 0,17,18
 261 227 261 227 235 259 c 128,-1,19
 209 291 209 291 209 345 c 0,20,21
 209 396 209 396 236.5 429.5 c 128,-1,22
 264 463 264 463 314 463 c 0,23,24
 349 463 349 463 370 448 c 1,25,-1
 358 421 l 1,26,27
 336 433 336 433 314 433 c 0,28,29
 280 433 280 433 265 406 c 128,-1,30
 250 379 250 379 250 345 c 0,31,32
 250 257 250 257 316 257 c 0,33,34
 342 257 342 257 361 266 c 1,35,-1
 361 236 l 1,36,37
 338 227 338 227 315 227 c 0,17,18
405 0 m 1,38,-1
 405 28 l 1,39,-1
 466 88 l 2,40,41
 492 112 492 112 505 129.5 c 128,-1,42
 518 147 518 147 518 166 c 0,43,44
 518 201 518 201 480 201 c 0,45,46
 452 201 452 201 426 178 c 1,47,-1
 408 202 l 1,48,49
 442 231 442 231 483 231 c 0,50,51
 517 231 517 231 538 214 c 128,-1,52
 559 197 559 197 559 168 c 0,53,54
 559 143 559 143 543 124 c 0,55,56
 536 114 536 114 512 91 c 128,-1,57
 488 68 488 68 450 31 c 1,58,-1
 555 31 l 1,59,-1
 555 0 l 1,60,-1
 405 0 l 1,38,-1
EndSplineSet
EndChar
StartChar: uni2415
Encoding: 9237 9237 974
Width: 600
Flags: W
LayerCount: 2
Fore
SplineSet
35 463 m 1,0,-1
 35 690 l 1,1,-1
 75 690 l 1,2,-1
 154 518 l 1,3,-1
 153 540 l 1,4,-1
 153 690 l 1,5,-1
 188 690 l 1,6,-1
 188 463 l 1,7,-1
 148 463 l 1,8,-1
 68 636 l 1,9,-1
 70 590 l 1,10,-1
 70 463 l 1,11,-1
 35 463 l 1,0,-1
186 231 m 1,12,-1
 265 458 l 1,13,-1
 293 458 l 1,14,-1
 372 231 l 1,15,-1
 335 231 l 1,16,-1
 315 299 l 1,17,-1
 243 299 l 1,18,-1
 223 231 l 1,19,-1
 186 231 l 1,12,-1
253 329 m 1,20,-1
 305 329 l 1,21,-1
 279 418 l 1,22,-1
 253 329 l 1,20,-1
415 0 m 1,23,-1
 415 227 l 1,24,-1
 453 227 l 1,25,-1
 453 134 l 1,26,-1
 536 227 l 1,27,-1
 580 227 l 1,28,-1
 487 127 l 1,29,-1
 583 0 l 1,30,-1
 539 0 l 1,31,-1
 462 103 l 1,32,-1
 453 94 l 1,33,-1
 453 0 l 1,34,-1
 415 0 l 1,23,-1
EndSplineSet
EndChar
StartChar: uni2418
Encoding: 9240 9240 498
Width: 600
Flags: W
LayerCount: 2
Fore
SplineSet
135 458 m 0,0,1
 81 458 81 458 55 490 c 128,-1,2
 29 522 29 522 29 576 c 0,3,4
 29 627 29 627 56.5 660.5 c 128,-1,5
 84 694 84 694 134 694 c 0,6,7
 169 694 169 694 190 679 c 1,8,-1
 178 652 l 1,9,10
 156 664 156 664 134 664 c 0,11,12
 100 664 100 664 85 637 c 128,-1,13
 70 610 70 610 70 576 c 0,14,15
 70 488 70 488 136 488 c 0,16,17
 162 488 162 488 181 497 c 1,18,-1
 181 467 l 1,19,20
 160 458 160 458 135 458 c 0,0,1
182 231 m 1,21,-1
 261 458 l 1,22,-1
 289 458 l 1,23,-1
 368 231 l 1,24,-1
 331 231 l 1,25,-1
 311 299 l 1,26,-1
 239 299 l 1,27,-1
 219 231 l 1,28,-1
 182 231 l 1,21,-1
249 329 m 1,29,-1
 301 329 l 1,30,-1
 275 419 l 1,31,-1
 249 329 l 1,29,-1
412 0 m 1,32,-1
 412 227 l 1,33,-1
 452 227 l 1,34,-1
 531 55 l 1,35,-1
 530 77 l 1,36,-1
 530 227 l 1,37,-1
 565 227 l 1,38,-1
 565 0 l 1,39,-1
 525 0 l 1,40,-1
 445 173 l 1,41,-1
 447 127 l 1,42,-1
 447 0 l 1,43,-1
 412 0 l 1,32,-1
EndSplineSet
EndChar
StartChar: uni241E
Encoding: 9246 9246 1022
Width: 600
Flags: W
LayerCount: 2
Fore
SplineSet
115 351 m 1,0,-1
 115 578 l 1,1,-1
 182 578 l 2,2,3
 223 578 223 578 247 564 c 128,-1,4
 271 550 271 550 271 512 c 0,5,6
 271 465 271 465 223 453 c 1,7,-1
 287 351 l 1,8,-1
 245 351 l 1,9,-1
 190 444 l 1,10,-1
 151 444 l 1,11,-1
 151 351 l 1,12,-1
 115 351 l 1,0,-1
151 473 m 1,13,-1
 182 473 l 2,14,15
 232 473 232 473 232 511 c 0,16,17
 232 534 232 534 218.5 541.5 c 128,-1,18
 205 549 205 549 180 549 c 2,19,-1
 151 549 l 1,20,-1
 151 473 l 1,13,-1
393 119 m 0,21,22
 373 119 373 119 355.5 122.5 c 128,-1,23
 338 126 338 126 324 132 c 1,24,-1
 324 165 l 1,25,26
 361 148 361 148 393 148 c 0,27,28
 440 148 440 148 440 182 c 0,29,30
 440 206 440 206 407 219 c 256,31,32
 374 232 374 232 351 248 c 128,-1,33
 328 264 328 264 328 296 c 0,34,35
 328 327 328 327 351 341 c 128,-1,36
 374 355 374 355 405 355 c 0,37,38
 440 355 440 355 473 341 c 1,39,-1
 462 313 l 1,40,41
 435 326 435 326 407 326 c 0,42,43
 389 326 389 326 377.5 318 c 128,-1,44
 366 310 366 310 366 296 c 0,45,46
 366 275 366 275 392 263 c 0,47,48
 410 255 410 255 430 245 c 128,-1,49
 450 235 450 235 464.5 220.5 c 128,-1,50
 479 206 479 206 479 185 c 0,51,52
 479 151 479 151 455 135 c 128,-1,53
 431 119 431 119 393 119 c 0,21,22
EndSplineSet
EndChar
StartChar: uni2424
Encoding: 9252 9252 975
Width: 600
Flags: W
LayerCount: 2
Fore
SplineSet
114 351 m 1,0,-1
 114 578 l 1,1,-1
 154 578 l 1,2,-1
 233 406 l 1,3,-1
 232 428 l 1,4,-1
 232 578 l 1,5,-1
 267 578 l 1,6,-1
 267 351 l 1,7,-1
 227 351 l 1,8,-1
 147 524 l 1,9,-1
 149 478 l 1,10,-1
 149 351 l 1,11,-1
 114 351 l 1,0,-1
370 124 m 1,12,-1
 370 351 l 1,13,-1
 407 351 l 1,14,-1
 407 154 l 1,15,-1
 504 154 l 1,16,-1
 504 124 l 1,17,-1
 370 124 l 1,12,-1
EndSplineSet
EndChar
StartChar: uni2425
Encoding: 9253 9253 512
Width: 817
Flags: W
LayerCount: 2
Fore
SplineSet
51 0 m 1,0,-1
 51 49 l 1,1,-1
 717 714 l 1,2,-1
 766 714 l 1,3,-1
 766 665 l 1,4,-1
 100 0 l 1,5,-1
 51 0 l 1,0,-1
51 117 m 1,6,-1
 51 211 l 1,7,-1
 555 714 l 1,8,-1
 649 714 l 1,9,-1
 51 117 l 1,6,-1
172 0 m 1,10,-1
 766 594 l 1,11,-1
 766 501 l 1,12,-1
 265 0 l 1,13,-1
 172 0 l 1,10,-1
EndSplineSet
EndChar
StartChar: uni2440
Encoding: 9280 9280 1007
Width: 500
Flags: W
LayerCount: 2
Fore
SplineSet
53 4 m 1,0,-1
 53 175 l 2,1,2
 53 192 53 192 59 198 c 128,-1,3
 65 204 65 204 82 204 c 256,4,5
 99 204 99 204 105 198 c 128,-1,6
 111 192 111 192 111 175 c 2,7,-1
 111 63 l 1,8,-1
 221 63 l 1,9,-1
 221 514 l 1,10,-1
 447 514 l 1,11,-1
 447 345 l 2,12,13
 447 328 447 328 441 322 c 128,-1,14
 435 316 435 316 418 316 c 256,15,16
 401 316 401 316 395 322 c 128,-1,17
 389 328 389 328 389 345 c 2,18,-1
 389 456 l 1,19,-1
 279 456 l 1,20,-1
 279 4 l 1,21,-1
 53 4 l 1,0,-1
EndSplineSet
EndChar
StartChar: uni2441
Encoding: 9281 9281 1002
Width: 500
Flags: W
LayerCount: 2
Fore
SplineSet
89 0 m 256,0,1
 72 0 72 0 66 6 c 128,-1,2
 60 12 60 12 60 29 c 2,3,-1
 60 292 l 1,4,-1
 382 292 l 1,5,-1
 382 494 l 2,6,7
 382 510 382 510 388 516 c 128,-1,8
 394 522 394 522 411 522 c 256,9,10
 428 522 428 522 434 516.5 c 128,-1,11
 440 511 440 511 440 494 c 2,12,-1
 440 29 l 2,13,14
 440 12 440 12 434 6 c 128,-1,15
 428 0 428 0 411 0 c 256,16,17
 394 0 394 0 388 6 c 128,-1,18
 382 12 382 12 382 29 c 2,19,-1
 382 234 l 1,20,-1
 118 234 l 1,21,-1
 118 29 l 2,22,23
 118 12 118 12 112 6 c 128,-1,24
 106 0 106 0 89 0 c 256,0,1
EndSplineSet
EndChar
StartChar: uni2448
Encoding: 9288 9288 1004
Width: 500
Flags: W
LayerCount: 2
Fore
SplineSet
349 352 m 2,0,1
 317 352 317 352 304.5 361 c 128,-1,2
 292 370 292 370 292 398 c 2,3,-1
 292 560 l 2,4,5
 292 587 292 587 304.5 595.5 c 128,-1,6
 317 604 317 604 349 604 c 2,7,-1
 403 604 l 2,8,9
 438 604 438 604 450 595 c 128,-1,10
 462 586 462 586 462 560 c 2,11,-1
 462 398 l 2,12,13
 462 371 462 371 450 361.5 c 128,-1,14
 438 352 438 352 403 352 c 2,15,-1
 349 352 l 2,0,1
78 182 m 0,16,17
 57 182 57 182 47.5 190 c 128,-1,18
 38 198 38 198 38 224 c 2,19,-1
 38 501 l 2,20,21
 38 526 38 526 48 534.5 c 128,-1,22
 58 543 58 543 78 543 c 0,23,24
 101 543 101 543 110 534.5 c 128,-1,25
 119 526 119 526 119 501 c 2,26,-1
 119 224 l 2,27,28
 119 197 119 197 110 189.5 c 128,-1,29
 101 182 101 182 78 182 c 0,16,17
206 180 m 0,30,31
 186 180 186 180 175.5 188.5 c 128,-1,32
 165 197 165 197 165 223 c 2,33,-1
 165 499 l 2,34,35
 165 524 165 524 175.5 533 c 128,-1,36
 186 542 186 542 206 542 c 0,37,38
 229 542 229 542 237.5 533.5 c 128,-1,39
 246 525 246 525 246 499 c 2,40,-1
 246 223 l 2,41,42
 246 197 246 197 237.5 188.5 c 128,-1,43
 229 180 229 180 206 180 c 0,30,31
EndSplineSet
EndChar
StartChar: uni25A1
Encoding: 9633 9633 215
Width: 834
Flags: W
LayerCount: 2
Fore
SplineSet
51 -4 m 1,0,-1
 51 728 l 1,1,-1
 783 728 l 1,2,-1
 783 -4 l 1,3,-1
 51 -4 l 1,0,-1
88 33 m 1,4,-1
 746 33 l 1,5,-1
 746 691 l 1,6,-1
 88 691 l 1,7,-1
 88 33 l 1,4,-1
EndSplineSet
EndChar
StartChar: uni25A2
Encoding: 9634 9634 216
Width: 842
Flags: W
LayerCount: 2
Fore
SplineSet
167 -8 m 2,0,1
 51 -8 51 -8 51 113 c 2,2,-1
 51 611 l 2,3,4
 51 732 51 732 167 732 c 2,5,-1
 675 732 l 2,6,7
 791 732 791 732 791 611 c 2,8,-1
 791 113 l 2,9,10
 791 -8 791 -8 675 -8 c 2,11,-1
 167 -8 l 2,0,1
167 29 m 2,12,-1
 675 29 l 2,13,14
 754 29 754 29 754 111 c 2,15,-1
 754 613 l 2,16,17
 754 695 754 695 675 695 c 2,18,-1
 167 695 l 2,19,20
 88 695 88 695 88 613 c 2,21,-1
 88 111 l 2,22,23
 88 29 88 29 167 29 c 2,12,-1
EndSplineSet
EndChar
StartChar: uni25A6
Encoding: 9638 9638 221
Width: 834
Flags: W
LayerCount: 2
Fore
SplineSet
51 -4 m 1,0,-1
 51 728 l 1,1,-1
 783 728 l 1,2,-1
 783 -4 l 1,3,-1
 51 -4 l 1,0,-1
611 557 m 1,4,-1
 738 557 l 1,5,-1
 738 683 l 1,6,-1
 611 683 l 1,7,-1
 611 557 l 1,4,-1
439 557 m 1,8,-1
 565 557 l 1,9,-1
 565 683 l 1,10,-1
 439 683 l 1,11,-1
 439 557 l 1,8,-1
268 557 m 1,12,-1
 394 557 l 1,13,-1
 394 683 l 1,14,-1
 268 683 l 1,15,-1
 268 557 l 1,12,-1
96 557 m 1,16,-1
 222 557 l 1,17,-1
 222 683 l 1,18,-1
 96 683 l 1,19,-1
 96 557 l 1,16,-1
268 385 m 1,20,-1
 394 385 l 1,21,-1
 394 511 l 1,22,-1
 268 511 l 1,23,-1
 268 385 l 1,20,-1
611 385 m 1,24,-1
 738 385 l 1,25,-1
 738 511 l 1,26,-1
 611 511 l 1,27,-1
 611 385 l 1,24,-1
439 385 m 1,28,-1
 565 385 l 1,29,-1
 565 511 l 1,30,-1
 439 511 l 1,31,-1
 439 385 l 1,28,-1
96 385 m 1,32,-1
 222 385 l 1,33,-1
 222 511 l 1,34,-1
 96 511 l 1,35,-1
 96 385 l 1,32,-1
439 214 m 1,36,-1
 565 214 l 1,37,-1
 565 340 l 1,38,-1
 439 340 l 1,39,-1
 439 214 l 1,36,-1
268 214 m 1,40,-1
 394 214 l 1,41,-1
 394 340 l 1,42,-1
 268 340 l 1,43,-1
 268 214 l 1,40,-1
611 214 m 1,44,-1
 738 214 l 1,45,-1
 738 340 l 1,46,-1
 611 340 l 1,47,-1
 611 214 l 1,44,-1
96 214 m 1,48,-1
 222 214 l 1,49,-1
 222 340 l 1,50,-1
 96 340 l 1,51,-1
 96 214 l 1,48,-1
611 41 m 1,52,-1
 738 41 l 1,53,-1
 738 169 l 1,54,-1
 611 169 l 1,55,-1
 611 41 l 1,52,-1
439 41 m 1,56,-1
 565 41 l 1,57,-1
 565 169 l 1,58,-1
 439 169 l 1,59,-1
 439 41 l 1,56,-1
268 41 m 1,60,-1
 394 41 l 1,61,-1
 394 169 l 1,62,-1
 268 169 l 1,63,-1
 268 41 l 1,60,-1
96 41 m 1,64,-1
 222 41 l 1,65,-1
 222 169 l 1,66,-1
 96 169 l 1,67,-1
 96 41 l 1,64,-1
EndSplineSet
EndChar
StartChar: filledrect
Encoding: 9644 9644 211
Width: 1000
Flags: W
LayerCount: 2
Fore
SplineSet
0 63 m 1,0,-1
 0 364 l 1,1,-1
 1000 364 l 1,2,-1
 1000 63 l 1,3,-1
 0 63 l 1,0,-1
EndSplineSet
EndChar
StartChar: uni25B5
Encoding: 9653 9653 257
Width: 370
Flags: W
LayerCount: 2
Fore
SplineSet
36 174 m 1,0,-1
 185 471 l 1,1,-1
 333 174 l 1,2,-1
 36 174 l 1,0,-1
97 211 m 1,3,-1
 272 211 l 1,4,-1
 185 391 l 1,5,-1
 97 211 l 1,3,-1
EndSplineSet
EndChar
StartChar: uni25BB
Encoding: 9659 9659 251
Width: 733
Flags: W
LayerCount: 2
Fore
SplineSet
51 158 m 1,0,-1
 51 487 l 1,1,-1
 682 322 l 1,2,-1
 51 158 l 1,0,-1
88 205 m 1,3,-1
 551 322 l 1,4,-1
 88 440 l 1,5,-1
 88 205 l 1,3,-1
EndSplineSet
EndChar
StartChar: triagdn
Encoding: 9660 9660 240
Width: 907
Flags: W
LayerCount: 2
Fore
SplineSet
454 0 m 1,0,-1
 51 697 l 1,1,-1
 856 697 l 1,2,-1
 454 0 l 1,0,-1
EndSplineSet
EndChar
StartChar: uni25BD
Encoding: 9661 9661 244
Width: 907
Flags: W
LayerCount: 2
Fore
SplineSet
454 0 m 1,0,-1
 51 697 l 1,1,-1
 856 697 l 1,2,-1
 454 0 l 1,0,-1
454 79 m 1,3,-1
 787 657 l 1,4,-1
 120 657 l 1,5,-1
 454 79 l 1,3,-1
EndSplineSet
EndChar
StartChar: uni25C1
Encoding: 9665 9665 245
Width: 799
Flags: W
LayerCount: 2
Fore
SplineSet
748 -54 m 1,0,-1
 51 348 l 1,1,-1
 748 751 l 1,2,-1
 748 -54 l 1,0,-1
708 15 m 1,3,-1
 708 682 l 1,4,-1
 130 348 l 1,5,-1
 708 15 l 1,3,-1
EndSplineSet
EndChar
StartChar: uni25C3
Encoding: 9667 9667 260
Width: 370
Flags: W
LayerCount: 2
Fore
SplineSet
333 174 m 1,0,-1
 36 322 l 1,1,-1
 333 471 l 1,2,-1
 333 174 l 1,0,-1
296 235 m 1,3,-1
 296 410 l 1,4,-1
 116 322 l 1,5,-1
 296 235 l 1,3,-1
EndSplineSet
EndChar
StartChar: uni25C6
Encoding: 9670 9670 200
Width: 1109
Flags: W
LayerCount: 2
Fore
SplineSet
555 -141 m 1,0,-1
 51 362 l 1,1,-1
 555 866 l 1,2,-1
 1058 362 l 1,3,-1
 555 -141 l 1,0,-1
EndSplineSet
EndChar
StartChar: uni25C8
Encoding: 9672 9672 207
Width: 1109
Flags: W
LayerCount: 2
Fore
SplineSet
555 -141 m 1,0,-1
 51 362 l 1,1,-1
 555 866 l 1,2,-1
 1058 362 l 1,3,-1
 555 -141 l 1,0,-1
555 -50 m 1,4,-1
 967 362 l 1,5,-1
 555 775 l 1,6,-1
 143 362 l 1,7,-1
 555 -50 l 1,4,-1
555 153 m 1,8,-1
 345 362 l 1,9,-1
 555 572 l 1,10,-1
 765 362 l 1,11,-1
 555 153 l 1,8,-1
EndSplineSet
EndChar
StartChar: uni25D1
Encoding: 9681 9681 174
Width: 894
Flags: W
LayerCount: 2
Fore
SplineSet
447 -34 m 256,0,1
 364 -34 364 -34 292.5 -3.5 c 128,-1,2
 221 27 221 27 166.5 81.5 c 128,-1,3
 112 136 112 136 81.5 208 c 128,-1,4
 51 280 51 280 51 362 c 256,5,6
 51 444 51 444 81.5 516 c 128,-1,7
 112 588 112 588 166.5 642.5 c 128,-1,8
 221 697 221 697 292.5 727.5 c 128,-1,9
 364 758 364 758 447 758 c 256,10,11
 530 758 530 758 601.5 727.5 c 128,-1,12
 673 697 673 697 727.5 642.5 c 128,-1,13
 782 588 782 588 812.5 516 c 128,-1,14
 843 444 843 444 843 362 c 256,15,16
 843 280 843 280 812.5 208 c 128,-1,17
 782 136 782 136 727.5 81.5 c 128,-1,18
 673 27 673 27 601.5 -3.5 c 128,-1,19
 530 -34 530 -34 447 -34 c 256,0,1
447 8 m 1,20,-1
 447 716 l 1,21,22
 373 716 373 716 309 688.5 c 128,-1,23
 245 661 245 661 196.5 612.5 c 128,-1,24
 148 564 148 564 120.5 500 c 128,-1,25
 93 436 93 436 93 362 c 256,26,27
 93 288 93 288 120.5 224 c 128,-1,28
 148 160 148 160 196.5 111.5 c 128,-1,29
 245 63 245 63 309 35.5 c 128,-1,30
 373 8 373 8 447 8 c 1,20,-1
EndSplineSet
EndChar
StartChar: uni25D4
Encoding: 9684 9684 179
Width: 894
Flags: W
LayerCount: 2
Fore
SplineSet
447 -34 m 256,0,1
 364 -34 364 -34 292.5 -3.5 c 128,-1,2
 221 27 221 27 166.5 81.5 c 128,-1,3
 112 136 112 136 81.5 208 c 128,-1,4
 51 280 51 280 51 362 c 256,5,6
 51 444 51 444 81.5 516 c 128,-1,7
 112 588 112 588 166.5 642.5 c 128,-1,8
 221 697 221 697 292.5 727.5 c 128,-1,9
 364 758 364 758 447 758 c 256,10,11
 530 758 530 758 601.5 727.5 c 128,-1,12
 673 697 673 697 727.5 642.5 c 128,-1,13
 782 588 782 588 812.5 516 c 128,-1,14
 843 444 843 444 843 362 c 256,15,16
 843 280 843 280 812.5 208 c 128,-1,17
 782 136 782 136 727.5 81.5 c 128,-1,18
 673 27 673 27 601.5 -3.5 c 128,-1,19
 530 -34 530 -34 447 -34 c 256,0,1
447 8 m 256,20,21
 521 8 521 8 585 35.5 c 128,-1,22
 649 63 649 63 697.5 111.5 c 128,-1,23
 746 160 746 160 773.5 224 c 128,-1,24
 801 288 801 288 801 362 c 1,25,-1
 447 362 l 1,26,-1
 447 716 l 1,27,28
 373 716 373 716 309 688.5 c 128,-1,29
 245 661 245 661 196.5 612.5 c 128,-1,30
 148 564 148 564 120.5 500 c 128,-1,31
 93 436 93 436 93 362 c 256,32,33
 93 288 93 288 120.5 224 c 128,-1,34
 148 160 148 160 196.5 111.5 c 128,-1,35
 245 63 245 63 309 35.5 c 128,-1,36
 373 8 373 8 447 8 c 256,20,21
EndSplineSet
EndChar
StartChar: uni25D6
Encoding: 9686 9686 177
Width: 498
Flags: W
LayerCount: 2
Fore
SplineSet
447 -34 m 1,0,1
 364 -34 364 -34 292.5 -3.5 c 128,-1,2
 221 27 221 27 166.5 81.5 c 128,-1,3
 112 136 112 136 81.5 208 c 128,-1,4
 51 280 51 280 51 362 c 256,5,6
 51 444 51 444 81.5 516 c 128,-1,7
 112 588 112 588 166.5 642.5 c 128,-1,8
 221 697 221 697 292.5 727.5 c 128,-1,9
 364 758 364 758 447 758 c 1,10,-1
 447 -34 l 1,0,1
EndSplineSet
EndChar
StartChar: uni25DA
Encoding: 9690 9690 192
Width: 894
Flags: W
LayerCount: 2
Fore
SplineSet
51 362 m 1,0,-1
 51 758 l 1,1,-1
 843 758 l 1,2,-1
 843 362 l 1,3,-1
 792 362 l 1,4,5
 792 434 792 434 765.5 496.5 c 128,-1,6
 739 559 739 559 691.5 606.5 c 128,-1,7
 644 654 644 654 581.5 680.5 c 128,-1,8
 519 707 519 707 447 707 c 256,9,10
 375 707 375 707 312.5 680.5 c 128,-1,11
 250 654 250 654 202.5 606.5 c 128,-1,12
 155 559 155 559 128.5 496.5 c 128,-1,13
 102 434 102 434 102 362 c 1,14,-1
 51 362 l 1,0,-1
158 362 m 1,15,16
 158 422 158 422 180.5 474.5 c 128,-1,17
 203 527 203 527 242.5 566.5 c 128,-1,18
 282 606 282 606 334.5 628.5 c 128,-1,19
 387 651 387 651 447 651 c 256,20,21
 507 651 507 651 559.5 628.5 c 128,-1,22
 612 606 612 606 651.5 566.5 c 128,-1,23
 691 527 691 527 713.5 474.5 c 128,-1,24
 736 422 736 422 736 362 c 1,25,-1
 158 362 l 1,15,16
EndSplineSet
EndChar
StartChar: uni25DE
Encoding: 9694 9694 198
Width: 894
Flags: W
LayerCount: 2
Fore
SplineSet
447 -34 m 1,0,-1
 447 8 l 1,1,2
 521 8 521 8 585 35.5 c 128,-1,3
 649 63 649 63 697.5 111.5 c 128,-1,4
 746 160 746 160 773.5 224 c 128,-1,5
 801 288 801 288 801 362 c 1,6,-1
 843 362 l 1,7,8
 843 280 843 280 812.5 208 c 128,-1,9
 782 136 782 136 727.5 81.5 c 128,-1,10
 673 27 673 27 601.5 -3.5 c 128,-1,11
 530 -34 530 -34 447 -34 c 1,0,-1
EndSplineSet
EndChar
StartChar: uni25EF
Encoding: 9711 9711 172
Width: 1114
Flags: W
LayerCount: 2
Fore
SplineSet
557 -144 m 256,0,1
 452 -144 452 -144 360.5 -104.5 c 128,-1,2
 269 -65 269 -65 199.5 4.5 c 128,-1,3
 130 74 130 74 90.5 165.5 c 128,-1,4
 51 257 51 257 51 362 c 256,5,6
 51 467 51 467 90.5 558.5 c 128,-1,7
 130 650 130 650 199.5 719.5 c 128,-1,8
 269 789 269 789 360.5 828.5 c 128,-1,9
 452 868 452 868 557 868 c 256,10,11
 662 868 662 868 753.5 828.5 c 128,-1,12
 845 789 845 789 914.5 719.5 c 128,-1,13
 984 650 984 650 1023.5 558.5 c 128,-1,14
 1063 467 1063 467 1063 362 c 256,15,16
 1063 257 1063 257 1023.5 165.5 c 128,-1,17
 984 74 984 74 914.5 4.5 c 128,-1,18
 845 -65 845 -65 753.5 -104.5 c 128,-1,19
 662 -144 662 -144 557 -144 c 256,0,1
557 -102 m 256,20,21
 653 -102 653 -102 737 -66 c 128,-1,22
 821 -30 821 -30 885 34 c 128,-1,23
 949 98 949 98 985 182 c 128,-1,24
 1021 266 1021 266 1021 362 c 256,25,26
 1021 458 1021 458 985 542 c 128,-1,27
 949 626 949 626 885 690 c 128,-1,28
 821 754 821 754 737 790 c 128,-1,29
 653 826 653 826 557 826 c 256,30,31
 461 826 461 826 377 790 c 128,-1,32
 293 754 293 754 229 690 c 128,-1,33
 165 626 165 626 129 542 c 128,-1,34
 93 458 93 458 93 362 c 256,35,36
 93 266 93 266 129 182 c 128,-1,37
 165 98 165 98 229 34 c 128,-1,38
 293 -30 293 -30 377 -66 c 128,-1,39
 461 -102 461 -102 557 -102 c 256,20,21
EndSplineSet
EndChar
StartChar: uni25F4
Encoding: 9716 9716 181
Width: 720
Flags: W
LayerCount: 2
Fore
SplineSet
360 15 m 256,0,1
 296 15 296 15 239.5 39 c 128,-1,2
 183 63 183 63 141 105.5 c 128,-1,3
 99 148 99 148 75 204 c 128,-1,4
 51 260 51 260 51 324 c 256,5,6
 51 388 51 388 75 444 c 128,-1,7
 99 500 99 500 141 542.5 c 128,-1,8
 183 585 183 585 239.5 609 c 128,-1,9
 296 633 296 633 360 633 c 256,10,11
 424 633 424 633 480 609 c 128,-1,12
 536 585 536 585 578.5 542.5 c 128,-1,13
 621 500 621 500 645 444 c 128,-1,14
 669 388 669 388 669 324 c 256,15,16
 669 260 669 260 645 204 c 128,-1,17
 621 148 621 148 578.5 105.5 c 128,-1,18
 536 63 536 63 480 39 c 128,-1,19
 424 15 424 15 360 15 c 256,0,1
88 342 m 1,20,-1
 342 342 l 1,21,-1
 342 596 l 1,22,23
 274 592 274 592 217.5 557.5 c 128,-1,24
 161 523 161 523 126.5 466.5 c 128,-1,25
 92 410 92 410 88 342 c 1,20,-1
360 51 m 0,26,27
 417 51 417 51 466.5 72 c 128,-1,28
 516 93 516 93 553.5 130.5 c 128,-1,29
 591 168 591 168 612 217.5 c 128,-1,30
 633 267 633 267 633 324 c 0,31,32
 633 396 633 396 599 456.5 c 128,-1,33
 565 517 565 517 507.5 554.5 c 128,-1,34
 450 592 450 592 378 596 c 1,35,-1
 378 306 l 1,36,-1
 88 306 l 1,37,38
 92 234 92 234 129.5 176.5 c 128,-1,39
 167 119 167 119 227.5 85 c 128,-1,40
 288 51 288 51 360 51 c 0,26,27
EndSplineSet
EndChar
StartChar: uni25FB
Encoding: 9723 9723 236
Width: 710
Flags: W
LayerCount: 2
Fore
SplineSet
51 58 m 1,0,-1
 51 666 l 1,1,-1
 659 666 l 1,2,-1
 659 58 l 1,3,-1
 51 58 l 1,0,-1
88 95 m 1,4,-1
 622 95 l 1,5,-1
 622 629 l 1,6,-1
 88 629 l 1,7,-1
 88 95 l 1,4,-1
EndSplineSet
EndChar
StartChar: uni25FF
Encoding: 9727 9727 266
Width: 700
Flags: W
LayerCount: 2
Fore
SplineSet
51 0 m 1,0,-1
 649 598 l 1,1,-1
 649 0 l 1,2,-1
 51 0 l 1,0,-1
155 42 m 1,3,-1
 607 42 l 1,4,-1
 607 494 l 1,5,-1
 155 42 l 1,3,-1
EndSplineSet
EndChar
StartChar: uni2608
Encoding: 9736 9736 274
Width: 755
Flags: W
LayerCount: 2
Fore
SplineSet
51 0 m 1,0,-1
 51 694 l 1,1,-1
 608 694 l 1,2,-1
 608 638 l 1,3,-1
 401 347 l 1,4,-1
 616 128 l 1,5,-1
 616 150 l 2,6,7
 616 200 616 200 628 274 c 1,8,-1
 658 247 l 1,9,10
 666 120 666 120 704 30 c 1,11,-1
 692 10 l 1,12,13
 674 14 674 14 656.5 16 c 128,-1,14
 639 18 639 18 620 18 c 0,15,16
 564 18 564 18 502 0 c 1,17,-1
 472 29 l 1,18,19
 538 70 538 70 583 83 c 1,20,-1
 329 339 l 1,21,-1
 539 634 l 1,22,-1
 111 634 l 1,23,-1
 111 0 l 1,24,-1
 51 0 l 1,0,-1
EndSplineSet
EndChar
StartChar: uni2611
Encoding: 9745 9745 281
Width: 821
Flags: W
LayerCount: 2
Fore
SplineSet
51 0 m 1,0,-1
 51 719 l 1,1,-1
 770 719 l 1,2,-1
 770 0 l 1,3,-1
 51 0 l 1,0,-1
111 60 m 1,4,-1
 710 60 l 1,5,-1
 710 659 l 1,6,-1
 111 659 l 1,7,-1
 111 60 l 1,4,-1
347 132 m 0,8,9
 330 132 330 132 322 135 c 1,10,11
 281 194 281 194 250 234 c 128,-1,12
 219 274 219 274 193.5 300.5 c 128,-1,13
 168 327 168 327 142 346 c 1,14,15
 150 366 150 366 177 384 c 128,-1,16
 204 402 204 402 229 403 c 1,17,18
 257 380 257 380 291 331.5 c 128,-1,19
 325 283 325 283 353 229 c 1,20,21
 376 276 376 276 412 331.5 c 128,-1,22
 448 387 448 387 491.5 442 c 128,-1,23
 535 497 535 497 581 544 c 128,-1,24
 627 591 627 591 669 620 c 1,25,-1
 683 607 l 1,26,27
 643 562 643 562 601 505 c 128,-1,28
 559 448 559 448 519.5 385 c 128,-1,29
 480 322 480 322 445.5 259 c 128,-1,30
 411 196 411 196 386 138 c 1,31,32
 376 132 376 132 347 132 c 0,8,9
EndSplineSet
EndChar
StartChar: uni2612
Encoding: 9746 9746 282
Width: 821
Flags: W
LayerCount: 2
Fore
SplineSet
51 0 m 1,0,-1
 51 719 l 1,1,-1
 770 719 l 1,2,-1
 770 0 l 1,3,-1
 51 0 l 1,0,-1
111 60 m 1,4,-1
 710 60 l 1,5,-1
 710 659 l 1,6,-1
 111 659 l 1,7,-1
 111 60 l 1,4,-1
233 142 m 1,8,-1
 193 182 l 1,9,-1
 370 360 l 1,10,-1
 193 537 l 1,11,-1
 233 577 l 1,12,-1
 410 400 l 1,13,-1
 588 577 l 1,14,-1
 628 537 l 1,15,-1
 450 360 l 1,16,-1
 628 182 l 1,17,-1
 588 142 l 1,18,-1
 410 320 l 1,19,-1
 233 142 l 1,8,-1
EndSplineSet
EndChar
StartChar: uni2619
Encoding: 9753 9753 1885
Width: 1321
Flags: W
LayerCount: 2
Fore
SplineSet
573 2 m 0,0,1
 495 2 495 2 412 23.5 c 128,-1,2
 329 45 329 45 254.5 82.5 c 128,-1,3
 180 120 180 120 129 169 c 0,4,5
 51 242 51 242 51 316 c 0,6,7
 51 341 51 341 63 356.5 c 128,-1,8
 75 372 75 372 97 372 c 256,9,10
 119 372 119 372 131.5 360 c 128,-1,11
 144 348 144 348 144 324 c 0,12,13
 144 310 144 310 135.5 293.5 c 128,-1,14
 127 277 127 277 116 269 c 1,15,16
 118 256 118 256 134 236 c 128,-1,17
 150 216 150 216 175 200 c 128,-1,18
 200 184 200 184 228 184 c 0,19,20
 292 184 292 184 324.5 221 c 128,-1,21
 357 258 357 258 357 323 c 0,22,23
 357 334 357 334 355 350.5 c 128,-1,24
 353 367 353 367 349 389 c 0,25,26
 345 410 345 410 343 426.5 c 128,-1,27
 341 443 341 443 341 454 c 0,28,29
 341 561 341 561 404 623 c 128,-1,30
 467 685 467 685 582 685 c 0,31,32
 642 685 642 685 688.5 664.5 c 128,-1,33
 735 644 735 644 761 609 c 128,-1,34
 787 574 787 574 787 530 c 0,35,36
 787 472 787 472 763 430 c 1,37,38
 843 485 843 485 960 485 c 0,39,40
 1013 485 1013 485 1073 467 c 1,41,42
 1075 478 1075 478 1076 486.5 c 128,-1,43
 1077 495 1077 495 1077 500 c 0,44,45
 1077 547 1077 547 1048.5 575 c 128,-1,46
 1020 603 1020 603 971 603 c 0,47,48
 940 603 940 603 909.5 589.5 c 128,-1,49
 879 576 879 576 865 560 c 1,50,-1
 852 577 l 1,51,-1
 862 594 l 2,52,53
 876 620 876 620 904.5 641 c 128,-1,54
 933 662 933 662 973 662 c 0,55,56
 1044 662 1044 662 1081.5 621 c 128,-1,57
 1119 580 1119 580 1119 498 c 0,58,59
 1119 474 1119 474 1113 451 c 1,60,61
 1189 416 1189 416 1229.5 357 c 128,-1,62
 1270 298 1270 298 1270 224 c 0,63,64
 1270 160 1270 160 1248 112 c 128,-1,65
 1226 64 1226 64 1187 38 c 128,-1,66
 1148 12 1148 12 1098 12 c 0,67,68
 1032 12 1032 12 995 53 c 128,-1,69
 958 94 958 94 958 164 c 0,70,71
 958 223 958 223 1002 297 c 0,72,73
 1045 370 1045 370 1062 413 c 1,74,75
 1007 448 1007 448 939 448 c 0,76,77
 880 448 880 448 831.5 433 c 128,-1,78
 783 418 783 418 749 395 c 1,79,80
 783 391 783 391 813.5 371 c 128,-1,81
 844 351 844 351 863 320 c 128,-1,82
 882 289 882 289 882 251 c 0,83,84
 882 176 882 176 841.5 120 c 128,-1,85
 801 64 801 64 731 33 c 128,-1,86
 661 2 661 2 573 2 c 0,0,1
1078 102 m 0,87,88
 1115 102 1115 102 1136 134.5 c 128,-1,89
 1157 167 1157 167 1157 224 c 0,90,91
 1157 270 1157 270 1139 314 c 128,-1,92
 1121 358 1121 358 1092 388 c 1,93,94
 1086 374 1086 374 1075 349 c 128,-1,95
 1064 324 1064 324 1047 288 c 0,96,97
 1012 213 1012 213 1012 169 c 0,98,99
 1012 138 1012 138 1029.5 120 c 128,-1,100
 1047 102 1047 102 1078 102 c 0,87,88
EndSplineSet
EndChar
StartChar: uni2620
Encoding: 9760 9760 290
Width: 919
Flags: W
LayerCount: 2
Fore
SplineSet
233 -61 m 0,0,1
 216 -61 216 -61 200.5 -48 c 128,-1,2
 185 -35 185 -35 173 -13 c 1,3,4
 141 -10 141 -10 121 9.5 c 128,-1,5
 101 29 101 29 101 63 c 0,6,7
 101 80 101 80 121 92.5 c 128,-1,8
 141 105 141 105 162 105 c 0,9,10
 173 105 173 105 182.5 97 c 128,-1,11
 192 89 192 89 196 79 c 1,12,13
 206 92 206 92 219 105 c 2,14,-1
 245 132 l 2,15,16
 258 145 258 145 269.5 158.5 c 128,-1,17
 281 172 281 172 291 186 c 1,18,-1
 293 212 l 2,19,20
 293 243 293 243 260 267 c 256,21,22
 227 291 227 291 227 314 c 0,23,24
 227 323 227 323 230.5 334.5 c 128,-1,25
 234 346 234 346 243 350 c 1,26,27
 236 363 236 363 231.5 390 c 128,-1,28
 227 417 227 417 227 445 c 0,29,30
 227 458 227 458 228 471 c 128,-1,31
 229 484 229 484 231 498 c 1,32,33
 222 511 222 511 211.5 523.5 c 128,-1,34
 201 536 201 536 189 549 c 0,35,36
 178 562 178 562 167 574.5 c 128,-1,37
 156 587 156 587 146 599 c 1,38,39
 130 573 130 573 100 573 c 0,40,41
 76 573 76 573 63.5 582 c 128,-1,42
 51 591 51 591 51 615 c 0,43,44
 51 649 51 649 70.5 667.5 c 128,-1,45
 90 686 90 686 123 687 c 1,46,47
 134 708 134 708 150 721 c 128,-1,48
 166 734 166 734 183 734 c 0,49,50
 196 734 196 734 207 726 c 128,-1,51
 218 718 218 718 218 704 c 0,52,53
 218 699 218 699 217.5 694.5 c 128,-1,54
 217 690 217 690 215 685 c 0,55,56
 211 677 211 677 211 667 c 0,57,58
 211 665 211 665 217.5 654 c 128,-1,59
 224 643 224 643 233 630 c 128,-1,60
 242 617 242 617 250 606 c 128,-1,61
 258 595 258 595 261 593 c 1,62,63
 292 653 292 653 345 682.5 c 128,-1,64
 398 712 398 712 466 712 c 0,65,66
 529 712 529 712 579.5 687 c 128,-1,67
 630 662 630 662 662 606 c 1,68,69
 667 610 667 610 677 623.5 c 128,-1,70
 687 637 687 637 695.5 650.5 c 128,-1,71
 704 664 704 664 704 669 c 256,72,73
 704 674 704 674 703.5 679 c 128,-1,74
 703 684 703 684 701 688 c 0,75,76
 697 695 697 695 697 706 c 0,77,78
 697 720 697 720 707.5 728 c 128,-1,79
 718 736 718 736 732 736 c 0,80,81
 766 736 766 736 789 687 c 1,82,83
 826 687 826 687 847 668.5 c 128,-1,84
 868 650 868 650 868 618 c 0,85,86
 868 597 868 597 849 583 c 128,-1,87
 830 569 830 569 810 569 c 0,88,89
 798 569 798 569 787.5 579 c 128,-1,90
 777 589 777 589 773 601 c 1,91,92
 764 590 764 590 755 579 c 128,-1,93
 746 568 746 568 735 557 c 256,94,95
 724 546 724 546 714.5 535 c 128,-1,96
 705 524 705 524 697 512 c 1,97,98
 700 496 700 496 702 479 c 128,-1,99
 704 462 704 462 704 445 c 0,100,101
 704 420 704 420 701 396.5 c 128,-1,102
 698 373 698 373 690 350 c 1,103,104
 697 344 697 344 701 333 c 128,-1,105
 705 322 705 322 705 313 c 0,106,107
 705 294 705 294 687 280 c 256,108,109
 669 266 669 266 654 250 c 128,-1,110
 639 234 639 234 639 212 c 2,111,-1
 640 184 l 1,112,113
 658 159 658 159 681 134 c 0,114,115
 692 122 692 122 703 109.5 c 128,-1,116
 714 97 714 97 724 85 c 1,117,118
 728 95 728 95 737.5 103 c 128,-1,119
 747 111 747 111 758 111 c 0,120,121
 782 111 782 111 802 92 c 128,-1,122
 822 73 822 73 822 50 c 0,123,124
 822 -8 822 -8 765 -8 c 1,125,-1
 752 -7 l 1,126,127
 741 -28 741 -28 724.5 -41.5 c 128,-1,128
 708 -55 708 -55 692 -55 c 0,129,130
 678 -55 678 -55 667.5 -46.5 c 128,-1,131
 657 -38 657 -38 657 -24 c 0,132,133
 657 -20 657 -20 658.5 -15 c 128,-1,134
 660 -10 660 -10 661 -5 c 0,135,136
 664 2 664 2 664 13 c 0,137,138
 664 18 664 18 655 32 c 128,-1,139
 646 46 646 46 635.5 60.5 c 128,-1,140
 625 75 625 75 619 80 c 1,141,-1
 615 77 l 1,142,143
 606 47 606 47 575 33 c 1,144,-1
 576 33 l 1,145,146
 542 14 542 14 520 8 c 128,-1,147
 498 2 498 2 466 2 c 0,148,149
 435 2 435 2 414 7.5 c 128,-1,150
 393 13 393 13 356 33 c 1,151,-1
 357 33 l 1,152,153
 328 46 328 46 316 78 c 1,154,-1
 313 80 l 1,155,156
 308 77 308 77 295.5 61 c 128,-1,157
 283 45 283 45 272 28 c 128,-1,158
 261 11 261 11 261 6 c 0,159,160
 261 2 261 2 262.5 -2 c 128,-1,161
 264 -6 264 -6 265 -11 c 256,162,163
 266 -16 266 -16 267.5 -20.5 c 128,-1,164
 269 -25 269 -25 269 -30 c 0,165,166
 269 -44 269 -44 257.5 -52.5 c 128,-1,167
 246 -61 246 -61 233 -61 c 0,0,1
691 535 m 1,168,169
 698 546 698 546 706 557 c 128,-1,170
 714 568 714 568 725 576 c 1,171,172
 733 590 733 590 745 604 c 128,-1,173
 757 618 757 618 771 626 c 1,174,175
 776 617 776 617 785.5 608.5 c 128,-1,176
 795 600 795 600 807 600 c 0,177,178
 823 600 823 600 833 607 c 128,-1,179
 843 614 843 614 843 630 c 256,180,181
 843 646 843 646 826 654.5 c 128,-1,182
 809 663 809 663 783 663 c 2,183,-1
 775 663 l 1,184,185
 771 681 771 681 761 693 c 128,-1,186
 751 705 751 705 738 705 c 0,187,188
 730 705 730 705 723 700 c 128,-1,189
 716 695 716 695 716 687 c 0,190,191
 716 680 716 680 718 677 c 2,192,-1
 725 661 l 2,193,194
 726 658 726 658 726 652 c 0,195,196
 726 651 726 651 718.5 642.5 c 128,-1,197
 711 634 711 634 700.5 622.5 c 128,-1,198
 690 611 690 611 681 602 c 128,-1,199
 672 593 672 593 670 592 c 1,200,201
 678 578 678 578 682.5 564 c 128,-1,202
 687 550 687 550 691 535 c 1,168,169
236 522 m 1,203,204
 244 552 244 552 254 578 c 1,205,206
 251 579 251 579 247 585 c 2,207,-1
 219 615 l 2,208,209
 215 620 215 620 211.5 624 c 128,-1,210
 208 628 208 628 205 632 c 2,211,-1
 193 645 l 2,212,213
 189 649 189 649 189 650 c 0,214,215
 189 656 189 656 191 659 c 2,216,-1
 198 675 l 2,217,218
 199 678 199 678 199 685 c 0,219,220
 199 693 199 693 191.5 698 c 128,-1,221
 184 703 184 703 176 703 c 0,222,223
 163 703 163 703 152.5 692 c 128,-1,224
 142 681 142 681 137 663 c 1,225,-1
 132 663 l 2,226,227
 108 663 108 663 92 654 c 128,-1,228
 76 645 76 645 76 629 c 0,229,230
 76 614 76 614 87.5 608.5 c 128,-1,231
 99 603 99 603 114 603 c 0,232,233
 124 603 124 603 133.5 609.5 c 128,-1,234
 143 616 143 616 148 624 c 1,235,236
 162 614 162 614 173 603 c 128,-1,237
 184 592 184 592 191 581 c 0,238,239
 206 558 206 558 214 553 c 0,240,241
 218 550 218 550 223.5 542.5 c 128,-1,242
 229 535 229 535 236 522 c 1,203,204
475 457 m 0,243,244
 482 457 482 457 495 462 c 2,245,-1
 522 473 l 2,246,247
 537 479 537 479 554.5 483.5 c 128,-1,248
 572 488 572 488 590 488 c 0,249,250
 602 488 602 488 615 478 c 2,251,-1
 626 469 l 2,252,253
 629 467 629 467 632 465.5 c 128,-1,254
 635 464 635 464 637 462 c 2,255,-1
 644 471 l 1,256,257
 639 490 639 490 636 507 c 128,-1,258
 633 524 633 524 633 543 c 0,259,260
 633 557 633 557 634.5 571.5 c 128,-1,261
 636 586 636 586 640 599 c 1,262,263
 620 642 620 642 574 668 c 128,-1,264
 528 694 528 694 466 694 c 0,265,266
 406 694 406 694 360 670 c 128,-1,267
 314 646 314 646 293 603 c 1,268,269
 293 584 293 584 296 564 c 256,270,271
 299 544 299 544 299 524 c 0,272,273
 299 511 299 511 296 498 c 128,-1,274
 293 485 293 485 289 472 c 1,275,-1
 296 463 l 1,276,277
 308 474 308 474 325 483 c 128,-1,278
 342 492 342 492 359 492 c 0,279,280
 394 492 394 492 425 475 c 0,281,282
 458 457 458 457 475 457 c 0,243,244
253 451 m 1,283,284
 264 452 264 452 272 467.5 c 128,-1,285
 280 483 280 483 284 505.5 c 128,-1,286
 288 528 288 528 288 550 c 0,287,288
 288 554 288 554 288 557.5 c 128,-1,289
 288 561 288 561 287 565 c 2,290,-1
 283 581 l 1,291,292
 270 558 270 558 260 533 c 128,-1,293
 250 508 250 508 250 479 c 0,294,295
 250 464 250 464 253 451 c 1,283,284
679 453 m 2,296,-1
 679 482 l 2,297,298
 679 509 679 509 673 533 c 128,-1,299
 667 557 667 557 653 579 c 1,300,-1
 647 550 l 2,301,302
 644 536 644 536 644 521 c 0,303,304
 644 513 644 513 648 504.5 c 128,-1,305
 652 496 652 496 658 487 c 2,306,-1
 670 470 l 2,307,308
 676 462 676 462 679 453 c 2,296,-1
473 481 m 0,309,310
 467 481 467 481 451 485 c 128,-1,311
 435 489 435 489 417.5 494.5 c 128,-1,312
 400 500 400 500 387 505.5 c 128,-1,313
 374 511 374 511 374 514 c 256,314,315
 374 517 374 517 377 517 c 2,316,-1
 378 516 l 1,317,-1
 401 509 l 1,318,-1
 429 501 l 2,319,320
 443 497 443 497 456.5 494.5 c 128,-1,321
 470 492 470 492 479 492 c 0,322,323
 480 492 480 492 482 492.5 c 128,-1,324
 484 493 484 493 489 494 c 0,325,326
 493 495 493 495 498 496.5 c 128,-1,327
 503 498 503 498 510 499 c 2,328,-1
 562 511 l 1,329,-1
 582 516 l 2,330,331
 586 517 586 517 588.5 518 c 128,-1,332
 591 519 591 519 592 519 c 2,333,-1
 599 518 l 2,334,335
 601 518 601 518 605 516 c 1,336,337
 603 514 603 514 599 514 c 0,338,339
 586 514 586 514 570 510.5 c 128,-1,340
 554 507 554 507 535 498 c 256,341,342
 516 489 516 489 500 485 c 128,-1,343
 484 481 484 481 473 481 c 0,309,310
466 20 m 0,344,345
 508 20 508 20 543.5 38.5 c 128,-1,346
 579 57 579 57 601 88.5 c 128,-1,347
 623 120 623 120 623 160 c 0,348,349
 623 184 623 184 617 206 c 1,350,351
 610 211 610 211 604 217 c 128,-1,352
 598 223 598 223 593 230 c 1,353,354
 602 235 602 235 617 237 c 1,355,356
 625 245 625 245 634 253.5 c 128,-1,357
 643 262 643 262 652 271 c 0,358,359
 660 279 660 279 667.5 289 c 128,-1,360
 675 299 675 299 680 310 c 1,361,-1
 672 324 l 1,362,-1
 668 332 l 2,363,364
 666 334 666 334 666 337 c 0,365,366
 666 346 666 346 673 357 c 256,367,368
 680 368 680 368 680 378 c 0,369,370
 680 384 680 384 680 389 c 128,-1,371
 680 394 680 394 679 398 c 256,372,373
 678 402 678 402 678 406 c 128,-1,374
 678 410 678 410 678 414 c 2,375,-1
 678 423 l 1,376,-1
 662 443 l 1,377,378
 656 444 656 444 650 447 c 128,-1,379
 644 450 644 450 640 452 c 2,380,-1
 620 463 l 2,381,382
 611 468 611 468 599.5 472.5 c 128,-1,383
 588 477 588 477 573 477 c 0,384,385
 561 477 561 477 547.5 473.5 c 128,-1,386
 534 470 534 470 519 463 c 0,387,388
 489 448 489 448 473 448 c 0,389,390
 450 448 450 448 416 463 c 256,391,392
 382 478 382 478 358 478 c 0,393,394
 343 478 343 478 313 460 c 0,395,396
 297 451 297 451 287 445.5 c 128,-1,397
 277 440 277 440 272 438 c 0,398,399
 270 435 270 435 267.5 433 c 128,-1,400
 265 431 265 431 261 429 c 2,401,-1
 248 422 l 1,402,-1
 247 410 l 2,403,404
 247 400 247 400 250 393 c 128,-1,405
 253 386 253 386 256 382 c 2,406,-1
 263 372 l 2,407,408
 266 366 266 366 266 361 c 0,409,410
 266 358 266 358 265.5 356 c 128,-1,411
 265 354 265 354 265 352 c 2,412,-1
 262 344 l 2,413,414
 259 336 259 336 259 329 c 2,415,-1
 259 325 l 1,416,-1
 252 311 l 1,417,418
 276 273 276 273 304 259 c 0,419,420
 334 244 334 244 346 232 c 1,421,-1
 338 231 l 2,422,423
 330 230 330 230 323 226.5 c 128,-1,424
 316 223 316 223 316 217 c 0,425,426
 316 213 316 213 316 210 c 128,-1,427
 316 207 316 207 317 203 c 2,428,-1
 318 189 l 1,429,430
 314 182 314 182 313 173 c 128,-1,431
 312 164 312 164 312 155 c 0,432,433
 312 128 312 128 319 106 c 1,434,-1
 344 79 l 1,435,436
 353 51 353 51 388 35.5 c 128,-1,437
 423 20 423 20 466 20 c 0,344,345
355 345 m 0,438,439
 315 345 315 345 298.5 360.5 c 128,-1,440
 282 376 282 376 282 408 c 0,441,442
 282 424 282 424 295.5 436.5 c 128,-1,443
 309 449 309 449 328.5 456 c 128,-1,444
 348 463 348 463 368 463 c 0,445,446
 394 463 394 463 414.5 451 c 128,-1,447
 435 439 435 439 435 419 c 0,448,449
 435 407 435 407 426 397.5 c 128,-1,450
 417 388 417 388 407 383 c 1,451,452
 399 367 399 367 386.5 356 c 128,-1,453
 374 345 374 345 355 345 c 0,438,439
577 345 m 0,454,455
 558 345 558 345 540 358 c 128,-1,456
 522 371 522 371 509.5 388.5 c 128,-1,457
 497 406 497 406 497 419 c 0,458,459
 497 439 497 439 517.5 451 c 128,-1,460
 538 463 538 463 564 463 c 0,461,462
 584 463 584 463 603.5 456 c 128,-1,463
 623 449 623 449 636.5 436.5 c 128,-1,464
 650 424 650 424 650 408 c 0,465,466
 650 376 650 376 633.5 360.5 c 128,-1,467
 617 345 617 345 577 345 c 0,454,455
340 312 m 1,468,-1
 309 322 l 1,469,-1
 299 332 l 2,470,471
 293 336 293 336 289 340 c 1,472,-1
 289 346 l 2,473,474
 291 345 291 345 297.5 342.5 c 128,-1,475
 304 340 304 340 315 337 c 0,476,477
 337 329 337 329 348 329 c 0,478,479
 363 329 363 329 372.5 331.5 c 128,-1,480
 382 334 382 334 390 339 c 256,481,482
 398 344 398 344 406 352 c 128,-1,483
 414 360 414 360 425 370 c 1,484,-1
 423 360 l 1,485,-1
 376 316 l 1,486,-1
 340 312 l 1,468,-1
588 312 m 1,487,-1
 548 326 l 1,488,-1
 512 356 l 1,489,-1
 511 361 l 1,490,-1
 528 346 l 2,491,492
 538 336 538 336 549 332.5 c 128,-1,493
 560 329 560 329 580 329 c 0,494,495
 591 329 591 329 613 337 c 2,496,-1
 639 346 l 1,497,-1
 639 340 l 1,498,499
 633 334 633 334 615 325 c 2,500,-1
 600 317 l 1,501,-1
 588 312 l 1,487,-1
442 236 m 0,502,503
 433 236 433 236 425.5 248 c 128,-1,504
 418 260 418 260 418 269 c 0,505,506
 418 276 418 276 423.5 290 c 128,-1,507
 429 304 429 304 436.5 319.5 c 128,-1,508
 444 335 444 335 452 346 c 128,-1,509
 460 357 460 357 466 357 c 0,510,511
 476 357 476 357 485.5 340.5 c 128,-1,512
 495 324 495 324 498 308 c 1,513,514
 504 301 504 301 509 290 c 128,-1,515
 514 279 514 279 514 269 c 0,516,517
 514 260 514 260 506 248 c 128,-1,518
 498 236 498 236 490 236 c 0,519,520
 476 236 476 236 466 246 c 1,521,522
 456 236 456 236 442 236 c 0,502,503
561 89 m 0,523,524
 548 89 548 89 535 93.5 c 128,-1,525
 522 98 522 98 510 103 c 1,526,-1
 488 99 l 2,527,528
 482 98 482 98 476 97.5 c 128,-1,529
 470 97 470 97 465 97 c 0,530,531
 454 97 454 97 441 102 c 0,532,533
 429 105 429 105 417 105 c 0,534,535
 412 105 412 105 403 103.5 c 128,-1,536
 394 102 394 102 385 101 c 2,537,-1
 367 98 l 2,538,539
 362 96 362 96 358.5 95.5 c 128,-1,540
 355 95 355 95 353 94 c 0,541,542
 351 96 351 96 351 100 c 2,543,-1
 351 103 l 2,544,545
 351 107 351 107 351.5 111.5 c 128,-1,546
 352 116 352 116 353 120 c 2,547,-1
 354 127 l 1,548,-1
 351 141 l 2,549,550
 350 145 350 145 350 148.5 c 128,-1,551
 350 152 350 152 350 156 c 0,552,553
 350 162 350 162 361.5 171.5 c 128,-1,554
 373 181 373 181 385 186 c 0,555,556
 392 188 392 188 399 192 c 128,-1,557
 406 196 406 196 416 201 c 0,558,559
 434 210 434 210 465 210 c 0,560,561
 491 210 491 210 510.5 205 c 128,-1,562
 530 200 530 200 555 183 c 1,563,-1
 577 154 l 1,564,-1
 577 130 l 1,565,-1
 575 114 l 1,566,567
 581 108 581 108 581 101 c 256,568,569
 581 94 581 94 573.5 91.5 c 128,-1,570
 566 89 566 89 561 89 c 0,523,524
565 122 m 1,571,-1
 565 141 l 2,572,573
 565 144 565 144 564.5 147 c 128,-1,574
 564 150 564 150 563 153 c 2,575,-1
 561 165 l 1,576,-1
 546 176 l 1,577,-1
 539 175 l 1,578,-1
 531 179 l 1,579,580
 528 187 528 187 520 187 c 2,581,-1
 519 187 l 2,582,583
 508 187 508 187 503 183 c 1,584,585
 498 189 498 189 484 192 c 128,-1,586
 470 195 470 195 454 195 c 0,587,588
 452 195 452 195 450 194.5 c 128,-1,589
 448 194 448 194 447 194 c 2,590,-1
 439 192 l 2,591,592
 439 190 439 190 436 190 c 2,593,-1
 431 190 l 1,594,-1
 419 184 l 2,595,596
 417 186 417 186 415 187 c 128,-1,597
 413 188 413 188 410 188 c 0,598,599
 404 188 404 188 401.5 182.5 c 128,-1,600
 399 177 399 177 399 172 c 1,601,-1
 389 173 l 1,602,-1
 378 169 l 1,603,-1
 371 160 l 1,604,-1
 359 157 l 1,605,-1
 362 131 l 1,606,-1
 376 136 l 1,607,-1
 382 148 l 1,608,-1
 383 164 l 1,609,-1
 388 168 l 1,610,-1
 389 142 l 1,611,-1
 403 153 l 2,612,613
 412 155 412 155 417 161 c 1,614,-1
 417 181 l 1,615,-1
 423 183 l 1,616,-1
 429 157 l 1,617,-1
 446 160 l 1,618,-1
 443 183 l 1,619,-1
 449 186 l 1,620,-1
 455 160 l 1,621,-1
 464 159 l 1,622,-1
 464 188 l 1,623,-1
 471 188 l 1,624,-1
 471 160 l 1,625,-1
 485 161 l 1,626,-1
 487 186 l 1,627,-1
 496 184 l 1,628,-1
 493 159 l 1,629,-1
 506 152 l 1,630,-1
 512 152 l 1,631,-1
 514 181 l 1,632,-1
 519 180 l 1,633,-1
 518 153 l 1,634,-1
 525 154 l 2,635,636
 536 154 536 154 542 147 c 1,637,-1
 541 172 l 1,638,-1
 547 171 l 1,639,-1
 545 144 l 1,640,-1
 550 134 l 1,641,-1
 565 122 l 1,571,-1
550 104 m 1,642,-1
 561 109 l 1,643,-1
 555 122 l 1,644,-1
 540 116 l 1,645,646
 543 124 543 124 543 129 c 0,647,648
 543 135 543 135 535 140.5 c 128,-1,649
 527 146 527 146 519 149 c 1,650,-1
 517 123 l 1,651,-1
 511 126 l 1,652,-1
 511 148 l 2,653,654
 509 149 509 149 505.5 149.5 c 128,-1,655
 502 150 502 150 500 151 c 0,656,657
 497 152 497 152 494 152.5 c 128,-1,658
 491 153 491 153 488 154 c 2,659,-1
 488 127 l 1,660,-1
 480 125 l 1,661,-1
 478 152 l 1,662,-1
 461 155 l 1,663,-1
 460 129 l 1,664,-1
 456 129 l 1,665,-1
 453 155 l 1,666,-1
 428 152 l 1,667,-1
 430 128 l 1,668,-1
 426 128 l 1,669,-1
 420 149 l 1,670,-1
 408 138 l 1,671,-1
 405 123 l 1,672,-1
 402 123 l 2,673,674
 400 126 400 126 398 130.5 c 128,-1,675
 396 135 396 135 392 135 c 2,676,-1
 390 135 l 1,677,-1
 385 116 l 1,678,679
 380 118 380 118 377.5 122 c 128,-1,680
 375 126 375 126 374 130 c 1,681,682
 371 128 371 128 367.5 126.5 c 128,-1,683
 364 125 364 125 362 123 c 2,684,-1
 365 110 l 1,685,-1
 376 115 l 1,686,-1
 385 106 l 1,687,-1
 396 120 l 1,688,-1
 409 113 l 1,689,-1
 420 127 l 1,690,-1
 434 119 l 1,691,-1
 443 109 l 1,692,-1
 455 125 l 1,693,694
 457 120 457 120 461.5 115.5 c 128,-1,695
 466 111 466 111 472 111 c 0,696,697
 482 111 482 111 488 119 c 2,698,-1
 496 126 l 1,699,700
 512 111 512 111 522.5 107.5 c 128,-1,701
 533 104 533 104 550 104 c 1,642,-1
223 -29 m 0,702,703
 231 -29 231 -29 240 -24.5 c 128,-1,704
 249 -20 249 -20 249 -10 c 256,705,706
 249 0 249 0 244 7 c 0,707,708
 239 15 239 15 239 22 c 0,709,710
 239 24 239 24 247 34 c 128,-1,711
 255 44 255 44 266.5 57 c 128,-1,712
 278 70 278 70 287.5 80.5 c 128,-1,713
 297 91 297 91 300 93 c 2,714,-1
 293 105 l 1,715,-1
 291 121 l 2,716,717
 290 125 290 125 290.5 129 c 128,-1,718
 291 133 291 133 291 137 c 2,719,-1
 291 154 l 1,720,721
 284 143 284 143 274 133.5 c 128,-1,722
 264 124 264 124 254 116 c 1,723,724
 232 81 232 81 198 54 c 1,725,726
 193 62 193 62 183.5 69 c 128,-1,727
 174 76 174 76 164 76 c 0,728,729
 145 76 145 76 135 68.5 c 128,-1,730
 125 61 125 61 125 50 c 0,731,732
 125 31 125 31 144 21 c 128,-1,733
 163 11 163 11 187 11 c 1,734,735
 190 -2 190 -2 200.5 -15.5 c 128,-1,736
 211 -29 211 -29 223 -29 c 0,702,703
701 -22 m 0,737,738
 713 -22 713 -22 723.5 -9 c 128,-1,739
 734 4 734 4 738 17 c 1,740,741
 752 13 752 13 765 13 c 0,742,743
 797 13 797 13 797 38 c 0,744,745
 797 56 797 56 786 69 c 128,-1,746
 775 82 775 82 756 82 c 0,747,748
 746 82 746 82 736.5 75 c 128,-1,749
 727 68 727 68 722 60 c 1,750,751
 707 70 707 70 695 84.5 c 128,-1,752
 683 99 683 99 673 114 c 1,753,754
 662 121 662 121 654.5 131.5 c 128,-1,755
 647 142 647 142 641 153 c 1,756,757
 641 148 641 148 641.5 143.5 c 128,-1,758
 642 139 642 139 642 136 c 2,759,-1
 642 133 l 2,760,761
 642 112 642 112 630 92 c 1,762,763
 634 88 634 88 647.5 73 c 128,-1,764
 661 58 661 58 673.5 44 c 128,-1,765
 686 30 686 30 686 28 c 0,766,767
 686 20 686 20 681 13 c 0,768,769
 676 3 676 3 676 -4 c 0,770,771
 676 -14 676 -14 684.5 -18 c 128,-1,772
 693 -22 693 -22 701 -22 c 0,737,738
464 76 m 0,773,774
 459 76 459 76 454.5 78 c 128,-1,775
 450 80 450 80 446 81 c 256,776,777
 442 82 442 82 438 83.5 c 128,-1,778
 434 85 434 85 429 86 c 2,779,-1
 425 86 l 2,780,781
 421 86 421 86 416.5 85.5 c 128,-1,782
 412 85 412 85 406 84 c 1,783,-1
 405 86 l 1,784,785
 415 93 415 93 426 94 c 1,786,787
 434 90 434 90 444.5 87 c 128,-1,788
 455 84 455 84 464 84 c 0,789,790
 472 84 472 84 479 87 c 0,791,792
 485 90 485 90 493 90 c 2,793,-1
 512 90 l 2,794,795
 513 90 513 90 517 88 c 2,796,-1
 525 85 l 2,797,798
 527 84 527 84 532 82 c 128,-1,799
 537 80 537 80 537 79 c 0,800,801
 537 77 537 77 534 77 c 0,802,803
 518 86 518 86 500 86 c 0,804,805
 492 86 492 86 482 81 c 0,806,807
 474 76 474 76 464 76 c 0,773,774
EndSplineSet
EndChar
StartChar: uni2655
Encoding: 9813 9813 1887
Width: 852
Flags: W
LayerCount: 2
Fore
SplineSet
426 -34 m 0,0,1
 380 -34 380 -34 343 -30 c 128,-1,2
 306 -26 306 -26 279 -18 c 0,3,4
 225 -3 225 -3 225 24 c 2,5,-1
 228 236 l 1,6,-1
 136 518 l 2,7,8
 133 517 133 517 128.5 516.5 c 128,-1,9
 124 516 124 516 118 516 c 0,10,11
 90 516 90 516 70.5 535.5 c 128,-1,12
 51 555 51 555 51 586 c 0,13,14
 51 614 51 614 71 633 c 128,-1,15
 91 652 91 652 119 652 c 0,16,17
 148 652 148 652 167.5 632.5 c 128,-1,18
 187 613 187 613 187 584 c 0,19,20
 187 568 187 568 178.5 551.5 c 128,-1,21
 170 535 170 535 157 527 c 1,22,-1
 280 328 l 1,23,-1
 259 598 l 1,24,-1
 257 598 l 2,25,26
 231 598 231 598 210.5 618 c 128,-1,27
 190 638 190 638 190 666 c 256,28,29
 190 694 190 694 209 714.5 c 128,-1,30
 228 735 228 735 257 735 c 0,31,32
 285 735 285 735 305.5 715.5 c 128,-1,33
 326 696 326 696 326 667 c 0,34,35
 326 645 326 645 314.5 627.5 c 128,-1,36
 303 610 303 610 282 603 c 1,37,-1
 372 349 l 1,38,-1
 414 632 l 1,39,40
 391 636 391 636 374.5 654.5 c 128,-1,41
 358 673 358 673 358 699 c 0,42,43
 358 728 358 728 378 747.5 c 128,-1,44
 398 767 398 767 426 767 c 256,45,46
 454 767 454 767 474 747.5 c 128,-1,47
 494 728 494 728 494 699 c 0,48,49
 494 673 494 673 477.5 654.5 c 128,-1,50
 461 636 461 636 438 632 c 1,51,-1
 480 349 l 1,52,-1
 570 603 l 1,53,54
 549 610 549 610 537.5 627.5 c 128,-1,55
 526 645 526 645 526 667 c 0,56,57
 526 696 526 696 546.5 715.5 c 128,-1,58
 567 735 567 735 595 735 c 0,59,60
 624 735 624 735 643 714.5 c 128,-1,61
 662 694 662 694 662 666 c 256,62,63
 662 638 662 638 641.5 618 c 128,-1,64
 621 598 621 598 595 598 c 2,65,-1
 593 598 l 1,66,-1
 572 328 l 1,67,-1
 695 527 l 1,68,69
 682 535 682 535 673.5 551.5 c 128,-1,70
 665 568 665 568 665 584 c 0,71,72
 665 613 665 613 684.5 632.5 c 128,-1,73
 704 652 704 652 733 652 c 256,74,75
 762 652 762 652 781.5 633 c 128,-1,76
 801 614 801 614 801 586 c 0,77,78
 801 554 801 554 781.5 535 c 128,-1,79
 762 516 762 516 734 516 c 0,80,81
 728 516 728 516 723.5 516.5 c 128,-1,82
 719 517 719 517 716 518 c 2,83,-1
 624 236 l 1,84,-1
 627 24 l 2,85,86
 627 -4 627 -4 573 -19 c 256,87,88
 519 -34 519 -34 426 -34 c 0,0,1
427 662 m 0,89,90
 441 662 441 662 451.5 673 c 128,-1,91
 462 684 462 684 462 700 c 0,92,93
 462 715 462 715 451.5 725 c 128,-1,94
 441 735 441 735 425 735 c 0,95,96
 411 735 411 735 400.5 725 c 128,-1,97
 390 715 390 715 390 700 c 0,98,99
 390 684 390 684 400 673 c 128,-1,100
 410 662 410 662 427 662 c 0,89,90
593 629 m 0,101,102
 610 629 610 629 620 639.5 c 128,-1,103
 630 650 630 650 630 667 c 0,104,105
 630 682 630 682 619.5 692 c 128,-1,106
 609 702 609 702 595 702 c 0,107,108
 576 702 576 702 566.5 691.5 c 128,-1,109
 557 681 557 681 557 665 c 0,110,111
 557 650 557 650 567 639.5 c 128,-1,112
 577 629 577 629 593 629 c 0,101,102
259 629 m 0,113,114
 275 629 275 629 285 639.5 c 128,-1,115
 295 650 295 650 295 665 c 0,116,117
 295 681 295 681 285 691.5 c 128,-1,118
 275 702 275 702 257 702 c 0,119,120
 243 702 243 702 232.5 692 c 128,-1,121
 222 682 222 682 222 667 c 0,122,123
 222 650 222 650 232 639.5 c 128,-1,124
 242 629 242 629 259 629 c 0,113,114
733 547 m 0,125,126
 750 547 750 547 760 557.5 c 128,-1,127
 770 568 770 568 770 585 c 0,128,129
 770 600 770 600 759.5 610 c 128,-1,130
 749 620 749 620 735 620 c 0,131,132
 717 620 717 620 707 609.5 c 128,-1,133
 697 599 697 599 697 583 c 0,134,135
 697 568 697 568 707 557.5 c 128,-1,136
 717 547 717 547 733 547 c 0,125,126
119 547 m 0,137,138
 135 547 135 547 145 557.5 c 128,-1,139
 155 568 155 568 155 583 c 0,140,141
 155 599 155 599 145 609.5 c 128,-1,142
 135 620 135 620 117 620 c 0,143,144
 103 620 103 620 92.5 610 c 128,-1,145
 82 600 82 600 82 585 c 0,146,147
 82 568 82 568 92 557.5 c 128,-1,148
 102 547 102 547 119 547 c 0,137,138
393 266 m 1,149,150
 401 267 401 267 409.5 267 c 128,-1,151
 418 267 418 267 426 267 c 256,152,153
 434 267 434 267 442.5 267 c 128,-1,154
 451 267 451 267 459 266 c 1,155,-1
 426 548 l 1,156,-1
 393 266 l 1,149,150
319 259 m 1,157,158
 329 260 329 260 339.5 261.5 c 128,-1,159
 350 263 350 263 362 264 c 1,160,-1
 292 495 l 1,161,-1
 319 259 l 1,157,158
533 259 m 1,162,-1
 560 495 l 1,163,-1
 490 264 l 1,164,165
 502 263 502 263 512.5 261.5 c 128,-1,166
 523 260 523 260 533 259 c 1,162,-1
254 245 m 1,167,-1
 290 254 l 1,168,-1
 194 421 l 1,169,-1
 254 245 l 1,167,-1
598 245 m 1,170,-1
 658 421 l 1,171,-1
 562 254 l 1,172,-1
 598 245 l 1,170,-1
274 186 m 1,173,174
 334 206 334 206 426 206 c 256,175,176
 518 206 518 206 578 186 c 1,177,-1
 578 219 l 1,178,179
 554 226 554 226 510.5 232.5 c 128,-1,180
 467 239 467 239 426 239 c 0,181,182
 386 239 386 239 341.5 232.5 c 128,-1,183
 297 226 297 226 274 219 c 1,184,-1
 274 186 l 1,173,174
273 126 m 1,185,186
 303 136 303 136 341 141 c 128,-1,187
 379 146 379 146 426 146 c 0,188,189
 519 146 519 146 579 126 c 1,190,-1
 579 159 l 1,191,192
 554 167 554 167 509.5 173 c 128,-1,193
 465 179 465 179 426 179 c 0,194,195
 386 179 386 179 342 173 c 128,-1,196
 298 167 298 167 273 159 c 1,197,-1
 273 126 l 1,185,186
272 68 m 1,198,199
 326 86 326 86 426 86 c 256,200,201
 526 86 526 86 580 68 c 1,202,-1
 580 99 l 1,203,204
 555 107 555 107 512 113 c 128,-1,205
 469 119 469 119 426 119 c 0,206,207
 385 119 385 119 341 113 c 128,-1,208
 297 107 297 107 272 99 c 1,209,-1
 272 68 l 1,198,199
426 -5 m 256,210,211
 582 -5 582 -5 582 26 c 0,212,213
 582 41 582 41 541 49 c 0,214,215
 520 53 520 53 491.5 55 c 128,-1,216
 463 57 463 57 426 57 c 256,217,218
 389 57 389 57 360.5 55.5 c 128,-1,219
 332 54 332 54 312 49 c 0,220,221
 270 40 270 40 270 26 c 0,222,223
 270 -5 270 -5 426 -5 c 256,210,211
EndSplineSet
EndChar
StartChar: uni2656
Encoding: 9814 9814 1888
Width: 751
Flags: W
LayerCount: 2
Fore
SplineSet
51 0 m 1,0,-1
 51 91 l 1,1,-1
 111 91 l 1,2,-1
 111 159 l 1,3,-1
 153 159 l 1,4,-1
 191 227 l 1,5,-1
 191 531 l 1,6,-1
 153 599 l 1,7,-1
 111 599 l 1,8,-1
 111 719 l 1,9,-1
 235 719 l 1,10,-1
 235 690 l 1,11,-1
 295 690 l 1,12,-1
 295 715 l 1,13,-1
 456 715 l 1,14,-1
 456 690 l 1,15,-1
 516 690 l 1,16,-1
 516 719 l 1,17,-1
 640 719 l 1,18,-1
 640 599 l 1,19,-1
 597 599 l 1,20,-1
 560 531 l 1,21,-1
 560 227 l 1,22,-1
 597 159 l 1,23,-1
 640 159 l 1,24,-1
 640 91 l 1,25,-1
 700 91 l 1,26,-1
 700 0 l 1,27,-1
 51 0 l 1,0,-1
154 627 m 1,28,-1
 597 627 l 1,29,-1
 597 686 l 1,30,-1
 542 686 l 1,31,-1
 542 657 l 1,32,-1
 430 657 l 1,33,-1
 430 682 l 1,34,-1
 321 682 l 1,35,-1
 321 657 l 1,36,-1
 209 657 l 1,37,-1
 209 686 l 1,38,-1
 154 686 l 1,39,-1
 154 627 l 1,28,-1
220 559 m 1,40,-1
 533 559 l 1,41,-1
 552 594 l 1,42,-1
 199 594 l 1,43,-1
 220 559 l 1,40,-1
234 232 m 1,44,-1
 517 232 l 1,45,-1
 517 526 l 1,46,-1
 234 526 l 1,47,-1
 234 232 l 1,44,-1
199 164 m 1,48,-1
 552 164 l 1,49,-1
 532 199 l 1,50,-1
 218 199 l 1,51,-1
 199 164 l 1,48,-1
154 96 m 1,52,-1
 597 96 l 1,53,-1
 597 131 l 1,54,-1
 154 131 l 1,55,-1
 154 96 l 1,52,-1
94 28 m 1,56,-1
 657 28 l 1,57,-1
 657 63 l 1,58,-1
 94 63 l 1,59,-1
 94 28 l 1,56,-1
EndSplineSet
EndChar
StartChar: uni265C
Encoding: 9820 9820 1894
Width: 751
Flags: W
LayerCount: 2
Fore
SplineSet
51 0 m 1,0,-1
 51 91 l 1,1,-1
 111 91 l 1,2,-1
 111 159 l 1,3,-1
 153 159 l 1,4,-1
 191 227 l 1,5,-1
 191 531 l 1,6,-1
 153 599 l 1,7,-1
 111 599 l 1,8,-1
 111 719 l 1,9,-1
 235 719 l 1,10,-1
 235 690 l 1,11,-1
 295 690 l 1,12,-1
 295 715 l 1,13,-1
 456 715 l 1,14,-1
 456 690 l 1,15,-1
 516 690 l 1,16,-1
 516 719 l 1,17,-1
 640 719 l 1,18,-1
 640 599 l 1,19,-1
 597 599 l 1,20,-1
 560 531 l 1,21,-1
 560 227 l 1,22,-1
 597 159 l 1,23,-1
 640 159 l 1,24,-1
 640 91 l 1,25,-1
 700 91 l 1,26,-1
 700 0 l 1,27,-1
 51 0 l 1,0,-1
141 622 m 1,28,-1
 610 622 l 1,29,-1
 610 643 l 1,30,-1
 141 643 l 1,31,-1
 141 622 l 1,28,-1
201 564 m 1,32,-1
 550 564 l 1,33,-1
 562 585 l 1,34,-1
 189 585 l 1,35,-1
 201 564 l 1,32,-1
186 169 m 1,36,-1
 565 169 l 1,37,-1
 553 190 l 1,38,-1
 198 190 l 1,39,-1
 186 169 l 1,36,-1
141 101 m 1,40,-1
 610 101 l 1,41,-1
 610 122 l 1,42,-1
 141 122 l 1,43,-1
 141 101 l 1,40,-1
81 33 m 1,44,-1
 670 33 l 1,45,-1
 670 54 l 1,46,-1
 81 54 l 1,47,-1
 81 33 l 1,44,-1
EndSplineSet
EndChar
StartChar: uni2661
Encoding: 9825 9825 1899
Width: 740
Flags: W
LayerCount: 2
Fore
SplineSet
346 0 m 1,0,1
 333 33 333 33 319.5 61.5 c 128,-1,2
 306 90 306 90 286 123 c 128,-1,3
 266 156 266 156 236 200 c 128,-1,4
 206 244 206 244 160 307 c 0,5,6
 101 388 101 388 76 446 c 128,-1,7
 51 504 51 504 51 559 c 0,8,9
 51 603 51 603 73.5 639.5 c 128,-1,10
 96 676 96 676 133.5 697.5 c 128,-1,11
 171 719 171 719 215 719 c 0,12,13
 262 719 262 719 302.5 695 c 128,-1,14
 343 671 343 671 369 622 c 1,15,16
 396 671 396 671 437 695 c 128,-1,17
 478 719 478 719 525 719 c 0,18,19
 568 719 568 719 605.5 697.5 c 128,-1,20
 643 676 643 676 666 639.5 c 128,-1,21
 689 603 689 603 689 559 c 0,22,23
 689 524 689 524 679.5 487.5 c 128,-1,24
 670 451 670 451 646 407.5 c 128,-1,25
 622 364 622 364 580 306 c 0,26,27
 534 242 534 242 503 197.5 c 128,-1,28
 472 153 472 153 452.5 120 c 128,-1,29
 433 87 433 87 419 59 c 128,-1,30
 405 31 405 31 393 0 c 1,31,-1
 346 0 l 1,0,1
369 87 m 1,32,33
 388 125 388 125 420.5 175 c 128,-1,34
 453 225 453 225 497 286 c 256,35,36
 541 347 541 347 569 391 c 128,-1,37
 597 435 597 435 609 461 c 0,38,39
 633 514 633 514 633 559 c 0,40,41
 633 588 633 588 618 611.5 c 128,-1,42
 603 635 603 635 578.5 649 c 128,-1,43
 554 663 554 663 525 663 c 0,44,45
 482 663 482 663 447 627.5 c 128,-1,46
 412 592 412 592 395 530 c 1,47,-1
 344 530 l 1,48,49
 325 598 325 598 290.5 630.5 c 128,-1,50
 256 663 256 663 215 663 c 0,51,52
 186 663 186 663 161.5 649 c 128,-1,53
 137 635 137 635 122 611.5 c 128,-1,54
 107 588 107 588 107 559 c 0,55,56
 107 517 107 517 130 463 c 0,57,58
 152 412 152 412 240 292 c 0,59,60
 284 234 284 234 316 182 c 128,-1,61
 348 130 348 130 369 87 c 1,32,33
EndSplineSet
EndChar
StartChar: uni2684
Encoding: 9860 9860 1910
Width: 778
Flags: W
LayerCount: 2
Fore
SplineSet
51 0 m 1,0,-1
 51 676 l 1,1,-1
 727 676 l 1,2,-1
 727 0 l 1,3,-1
 51 0 l 1,0,-1
99 48 m 1,4,-1
 679 48 l 1,5,-1
 679 628 l 1,6,-1
 99 628 l 1,7,-1
 99 48 l 1,4,-1
213 449 m 256,8,9
 188 449 188 449 170.5 467 c 128,-1,10
 153 485 153 485 153 509 c 0,11,12
 153 532 153 532 170 550.5 c 128,-1,13
 187 569 187 569 213 569 c 0,14,15
 238 569 238 569 255.5 551.5 c 128,-1,16
 273 534 273 534 273 509 c 256,17,18
 273 484 273 484 255.5 466.5 c 128,-1,19
 238 449 238 449 213 449 c 256,8,9
565 449 m 256,20,21
 540 449 540 449 522.5 467 c 128,-1,22
 505 485 505 485 505 509 c 0,23,24
 505 532 505 532 522 550.5 c 128,-1,25
 539 569 539 569 565 569 c 0,26,27
 590 569 590 569 607.5 551.5 c 128,-1,28
 625 534 625 534 625 509 c 256,29,30
 625 484 625 484 607.5 466.5 c 128,-1,31
 590 449 590 449 565 449 c 256,20,21
389 278 m 0,32,33
 365 278 365 278 347 295 c 128,-1,34
 329 312 329 312 329 338 c 0,35,36
 329 363 329 363 346.5 380.5 c 128,-1,37
 364 398 364 398 389 398 c 0,38,39
 415 398 415 398 432 379.5 c 128,-1,40
 449 361 449 361 449 338 c 0,41,42
 449 313 449 313 431.5 295.5 c 128,-1,43
 414 278 414 278 389 278 c 0,32,33
213 107 m 256,44,45
 188 107 188 107 170.5 125 c 128,-1,46
 153 143 153 143 153 167 c 0,47,48
 153 190 153 190 170 208.5 c 128,-1,49
 187 227 187 227 213 227 c 0,50,51
 238 227 238 227 255.5 209.5 c 128,-1,52
 273 192 273 192 273 167 c 256,53,54
 273 142 273 142 255.5 124.5 c 128,-1,55
 238 107 238 107 213 107 c 256,44,45
565 107 m 256,56,57
 540 107 540 107 522.5 125 c 128,-1,58
 505 143 505 143 505 167 c 0,59,60
 505 190 505 190 522 208.5 c 128,-1,61
 539 227 539 227 565 227 c 0,62,63
 590 227 590 227 607.5 209.5 c 128,-1,64
 625 192 625 192 625 167 c 256,65,66
 625 142 625 142 607.5 124.5 c 128,-1,67
 590 107 590 107 565 107 c 256,56,57
EndSplineSet
EndChar
StartChar: uni268B
Encoding: 9867 9867 310
Width: 940
Flags: W
LayerCount: 2
Fore
SplineSet
546 295 m 1,0,-1
 546 406 l 1,1,-1
 842 406 l 1,2,-1
 842 295 l 1,3,-1
 546 295 l 1,0,-1
98 295 m 1,4,-1
 98 406 l 1,5,-1
 394 406 l 1,6,-1
 394 295 l 1,7,-1
 98 295 l 1,4,-1
EndSplineSet
EndChar
StartChar: uni268C
Encoding: 9868 9868 311
Width: 940
Flags: W
LayerCount: 2
Fore
SplineSet
98 409 m 1,0,-1
 98 520 l 1,1,-1
 842 520 l 1,2,-1
 842 409 l 1,3,-1
 98 409 l 1,0,-1
98 181 m 1,4,-1
 98 292 l 1,5,-1
 842 292 l 1,6,-1
 842 181 l 1,7,-1
 98 181 l 1,4,-1
EndSplineSet
EndChar
StartChar: uni268D
Encoding: 9869 9869 312
Width: 940
Flags: W
LayerCount: 2
Fore
SplineSet
98 409 m 1,0,-1
 98 520 l 1,1,-1
 394 520 l 1,2,-1
 394 409 l 1,3,-1
 98 409 l 1,0,-1
546 409 m 1,4,-1
 546 520 l 1,5,-1
 842 520 l 1,6,-1
 842 409 l 1,7,-1
 546 409 l 1,4,-1
98 181 m 1,8,-1
 98 292 l 1,9,-1
 842 292 l 1,10,-1
 842 181 l 1,11,-1
 98 181 l 1,8,-1
EndSplineSet
EndChar
StartChar: uni269F
Encoding: 9887 9887 316
Width: 731
Flags: W
LayerCount: 2
Fore
SplineSet
73 432 m 1,0,-1
 51 481 l 1,1,-1
 608 716 l 1,2,-1
 630 666 l 1,3,-1
 73 432 l 1,0,-1
75 327 m 1,4,-1
 75 381 l 1,5,-1
 680 381 l 1,6,-1
 680 327 l 1,7,-1
 75 327 l 1,4,-1
608 -8 m 1,8,-1
 51 227 l 1,9,-1
 73 276 l 1,10,-1
 630 42 l 1,11,-1
 608 -8 l 1,8,-1
EndSplineSet
EndChar
StartChar: uni26A0
Encoding: 9888 9888 1912
Width: 926
Flags: W
LayerCount: 2
Fore
SplineSet
51 0 m 1,0,-1
 463 738 l 1,1,-1
 875 0 l 1,2,-1
 51 0 l 1,0,-1
135 49 m 1,3,-1
 791 49 l 1,4,-1
 463 645 l 1,5,-1
 135 49 l 1,3,-1
446 210 m 1,6,-1
 430 517 l 1,7,-1
 495 517 l 1,8,-1
 479 210 l 1,9,-1
 446 210 l 1,6,-1
462 82 m 256,10,11
 447 82 447 82 436 91 c 128,-1,12
 425 100 425 100 425 122 c 0,13,14
 425 162 425 162 462 162 c 256,15,16
 499 162 499 162 499 122 c 0,17,18
 499 100 499 100 488 91 c 128,-1,19
 477 82 477 82 462 82 c 256,10,11
EndSplineSet
EndChar
StartChar: uni26C2
Encoding: 9922 9922 321
Width: 948
Flags: W
LayerCount: 2
Fore
SplineSet
474 0 m 256,0,1
 300 0 300 0 175 51 c 0,2,3
 51 102 51 102 51 170 c 2,4,-1
 51 354 l 2,5,6
 51 424 51 424 175 475 c 0,7,8
 298 526 298 526 474 526 c 0,9,10
 562 526 562 526 637 513.5 c 128,-1,11
 712 501 712 501 774 475 c 0,12,13
 897 422 897 422 897 354 c 2,14,-1
 897 170 l 2,15,16
 897 102 897 102 772 51 c 0,17,18
 648 0 648 0 474 0 c 256,0,1
474 258 m 0,19,20
 540 258 540 258 596 267 c 128,-1,21
 652 276 652 276 699 292 c 0,22,23
 792 325 792 325 792 371 c 0,24,25
 792 416 792 416 699 451 c 0,26,27
 607 485 607 485 474 485 c 256,28,29
 341 485 341 485 249 451 c 0,30,31
 156 416 156 416 156 371 c 256,32,33
 156 326 156 326 249 292 c 0,34,35
 341 258 341 258 474 258 c 0,19,20
474 275 m 0,36,37
 413 275 413 275 360.5 282 c 128,-1,38
 308 289 308 289 265 304 c 0,39,40
 178 334 178 334 178 371 c 0,41,42
 178 410 178 410 265 438 c 0,43,44
 352 467 352 467 474 467 c 0,45,46
 536 467 536 467 589 460.5 c 128,-1,47
 642 454 642 454 685 438 c 0,48,49
 771 406 771 406 771 371 c 0,50,51
 771 333 771 333 685 304 c 0,52,53
 596 275 596 275 474 275 c 0,36,37
474 326 m 256,54,55
 519 326 519 326 548 340 c 128,-1,56
 577 354 577 354 577 376 c 256,57,58
 577 398 577 398 547 412 c 128,-1,59
 517 426 517 426 474 426 c 0,60,61
 430 426 430 426 400.5 411.5 c 128,-1,62
 371 397 371 397 371 376 c 256,63,64
 371 355 371 355 400 340.5 c 128,-1,65
 429 326 429 326 474 326 c 256,54,55
474 344 m 0,66,67
 455 344 455 344 441 347 c 128,-1,68
 427 350 427 350 415 354 c 0,69,70
 392 361 392 361 392 376 c 0,71,72
 392 388 392 388 417 398 c 0,73,74
 440 408 440 408 474 408 c 0,75,76
 490 408 490 408 505 405 c 128,-1,77
 520 402 520 402 532 398 c 0,78,79
 557 389 557 389 557 376 c 0,80,81
 557 369 557 369 550.5 364 c 128,-1,82
 544 359 544 359 534 354 c 0,83,84
 513 344 513 344 474 344 c 0,66,67
474 184 m 0,85,86
 567 184 567 184 647.5 199 c 128,-1,87
 728 214 728 214 787 242 c 128,-1,88
 846 270 846 270 876 307 c 1,89,-1
 876 321 l 1,90,91
 860 297 860 297 806 270.5 c 128,-1,92
 752 244 752 244 666 224 c 0,93,94
 622 214 622 214 574 209.5 c 128,-1,95
 526 205 526 205 474 205 c 0,96,97
 377 205 377 205 292.5 222 c 128,-1,98
 208 239 208 239 150 265.5 c 128,-1,99
 92 292 92 292 72 321 c 1,100,-1
 72 307 l 1,101,102
 102 270 102 270 161 242 c 128,-1,103
 220 214 220 214 300 199 c 128,-1,104
 380 184 380 184 474 184 c 0,85,86
797 109 m 1,105,-1
 821 123 l 2,106,107
 827 127 827 127 832 130 c 128,-1,108
 837 133 837 133 840 136 c 2,109,-1
 840 234 l 1,110,111
 823 221 823 221 797 209 c 1,112,-1
 797 109 l 1,105,-1
157 107 m 1,113,-1
 157 207 l 1,114,115
 134 216 134 216 117 227 c 1,116,-1
 117 130 l 1,117,118
 132 120 132 120 157 107 c 1,113,-1
711 78 m 1,119,120
 756 92 756 92 760 94 c 1,121,-1
 760 194 l 1,122,123
 744 188 744 188 711 179 c 1,124,-1
 711 78 l 1,119,120
235 79 m 1,125,-1
 235 179 l 1,126,-1
 195 192 l 1,127,-1
 195 91 l 1,128,129
 210 86 210 86 220 83 c 128,-1,130
 230 80 230 80 235 79 c 1,125,-1
642 63 m 1,131,-1
 682 70 l 1,132,-1
 682 171 l 1,133,-1
 642 163 l 1,134,-1
 642 63 l 1,131,-1
327 60 m 1,135,-1
 327 160 l 1,136,-1
 293 166 l 1,137,-1
 293 65 l 1,138,-1
 327 60 l 1,135,-1
574 53 m 1,139,-1
 607 57 l 1,140,-1
 607 158 l 1,141,-1
 574 154 l 1,142,-1
 574 53 l 1,139,-1
EndSplineSet
EndChar
StartChar: uni26CB
Encoding: 9931 9931 327
Width: 710
Flags: W
LayerCount: 2
Fore
SplineSet
152 -5 m 2,0,1
 108 -5 108 -5 86.5 2 c 128,-1,2
 65 9 65 9 58 30 c 128,-1,3
 51 51 51 51 51 94 c 2,4,-1
 51 504 l 2,5,6
 51 548 51 548 58 569 c 128,-1,7
 65 590 65 590 86.5 596.5 c 128,-1,8
 108 603 108 603 152 603 c 2,9,-1
 558 603 l 2,10,11
 602 603 602 603 623.5 596.5 c 128,-1,12
 645 590 645 590 652 569 c 128,-1,13
 659 548 659 548 659 504 c 2,14,-1
 659 94 l 2,15,16
 659 52 659 52 652 30.5 c 128,-1,17
 645 9 645 9 623.5 2 c 128,-1,18
 602 -5 602 -5 558 -5 c 2,19,-1
 152 -5 l 2,0,1
88 302 m 1,20,-1
 352 566 l 1,21,-1
 153 566 l 2,22,23
 121 566 121 566 107.5 561 c 128,-1,24
 94 556 94 556 91 539 c 128,-1,25
 88 522 88 522 88 486 c 2,26,-1
 88 302 l 1,20,-1
622 302 m 1,27,-1
 622 486 l 2,28,29
 622 522 622 522 619 539 c 128,-1,30
 616 556 616 556 602.5 561 c 128,-1,31
 589 566 589 566 557 566 c 2,32,-1
 358 566 l 1,33,-1
 622 302 l 1,27,-1
355 84 m 1,34,-1
 571 300 l 1,35,-1
 355 516 l 1,36,-1
 139 300 l 1,37,-1
 355 84 l 1,34,-1
153 32 m 2,38,-1
 354 32 l 1,39,-1
 88 298 l 1,40,-1
 88 112 l 2,41,42
 88 76 88 76 90.5 59 c 128,-1,43
 93 42 93 42 107 37 c 128,-1,44
 121 32 121 32 153 32 c 2,38,-1
356 32 m 1,45,-1
 557 32 l 2,46,47
 589 32 589 32 602.5 37 c 128,-1,48
 616 42 616 42 619 59 c 128,-1,49
 622 76 622 76 622 112 c 2,50,-1
 622 298 l 1,51,-1
 356 32 l 1,45,-1
EndSplineSet
EndChar
StartChar: uni26D0
Encoding: 9936 9936 1915
Width: 812
Flags: W
LayerCount: 2
Fore
SplineSet
625 336 m 256,0,1
 618 336 618 336 615 339 c 2,2,-1
 593 353 l 2,3,4
 587 354 587 354 587 362 c 256,5,6
 587 370 587 370 595 380 c 2,7,-1
 615 421 l 1,8,-1
 417 546 l 1,9,-1
 391 509 l 2,10,11
 377 490 377 490 372 490 c 0,12,13
 370 490 370 490 368 491 c 2,14,-1
 339 508 l 2,15,16
 335 511 335 511 335 516 c 0,17,18
 335 520 335 520 338 527 c 0,19,20
 340 530 340 530 347 542 c 128,-1,21
 354 554 354 554 367 576 c 1,22,-1
 354 586 l 2,23,24
 339 596 339 596 339 614 c 0,25,26
 339 630 339 630 352 650 c 128,-1,27
 365 670 365 670 382.5 686 c 128,-1,28
 400 702 400 702 413 705 c 2,29,-1
 426 707 l 2,30,31
 444 707 444 707 452.5 708.5 c 128,-1,32
 461 710 461 710 470 716 c 128,-1,33
 479 722 479 722 497 737 c 0,34,35
 525 760 525 760 540 760 c 0,36,37
 553 760 553 760 578 746 c 2,38,-1
 722 658 l 2,39,40
 756 637 756 637 756 608 c 2,41,-1
 756 601 l 1,42,-1
 744 547 l 1,43,-1
 743 534 l 1,44,-1
 744 525 l 2,45,46
 745 517 745 517 750 509 c 2,47,-1
 758 494 l 2,48,49
 761 485 761 485 761 476 c 0,50,51
 761 464 761 464 751.5 441 c 128,-1,52
 742 418 742 418 728 399 c 128,-1,53
 714 380 714 380 698 380 c 0,54,55
 688 380 688 380 679 383 c 2,56,-1
 665 390 l 1,57,-1
 642 353 l 2,58,59
 632 336 632 336 625 336 c 256,0,1
681 543 m 0,60,61
 694 543 694 543 700 584 c 2,62,-1
 705 620 l 1,63,-1
 552 715 l 1,64,-1
 522 693 l 2,65,66
 493 672 493 672 493 665 c 0,67,68
 493 657 493 657 506 649 c 2,69,-1
 669 547 l 2,70,71
 673 543 673 543 681 543 c 0,60,61
425 591 m 256,72,73
 436 591 436 591 443.5 599.5 c 128,-1,74
 451 608 451 608 451 618 c 256,75,76
 451 628 451 628 443.5 636.5 c 128,-1,77
 436 645 436 645 425 645 c 256,78,79
 414 645 414 645 405.5 636.5 c 128,-1,80
 397 628 397 628 397 618 c 256,81,82
 397 608 397 608 405.5 599.5 c 128,-1,83
 414 591 414 591 425 591 c 256,72,73
683 438 m 0,84,85
 695 438 695 438 702.5 446 c 128,-1,86
 710 454 710 454 710 465 c 0,87,88
 710 477 710 477 702.5 484.5 c 128,-1,89
 695 492 695 492 683 492 c 0,90,91
 672 492 672 492 665 484.5 c 128,-1,92
 658 477 658 477 658 465 c 0,93,94
 658 454 658 454 665 446 c 128,-1,95
 672 438 672 438 683 438 c 0,84,85
176 159 m 2,96,97
 123 159 123 159 99 185.5 c 128,-1,98
 75 212 75 212 75 264 c 2,99,-1
 75 332 l 2,100,101
 75 383 75 383 100.5 406.5 c 128,-1,102
 126 430 126 430 184 430 c 2,103,-1
 350 430 l 1,104,-1
 350 364 l 1,105,-1
 181 364 l 2,106,107
 140 364 140 364 140 332 c 2,108,-1
 140 264 l 2,109,110
 140 224 140 224 176 224 c 2,111,-1
 291 224 l 1,112,-1
 291 159 l 1,113,-1
 176 159 l 2,96,97
51 0 m 1,114,-1
 51 65 l 1,115,-1
 296 65 l 2,116,117
 359 65 359 65 359 109 c 2,118,-1
 359 242 l 2,119,120
 359 280 359 280 380 301.5 c 128,-1,121
 401 323 401 323 435 323 c 2,122,-1
 540 323 l 1,123,-1
 540 257 l 1,124,-1
 457 257 l 2,125,126
 440 257 440 257 432.5 248 c 128,-1,127
 425 239 425 239 425 216 c 2,128,-1
 425 109 l 2,129,130
 425 0 425 0 296 0 c 2,131,-1
 51 0 l 1,114,-1
651 0 m 1,132,-1
 651 91 l 2,133,134
 651 108 651 108 642.5 117 c 128,-1,135
 634 126 634 126 614 126 c 2,136,-1
 486 126 l 1,137,-1
 486 191 l 1,138,-1
 614 191 l 2,139,140
 717 191 717 191 717 91 c 2,141,-1
 717 0 l 1,142,-1
 651 0 l 1,132,-1
EndSplineSet
EndChar
StartChar: uni26D6
Encoding: 9942 9942 1918
Width: 880
Flags: W
LayerCount: 2
Fore
SplineSet
440 -14 m 0,0,1
 428 -14 428 -14 411 0 c 0,2,3
 406 4 406 4 382.5 26 c 128,-1,4
 359 48 359 48 325.5 81 c 128,-1,5
 292 114 292 114 254 150.5 c 128,-1,6
 216 187 216 187 180.5 221.5 c 128,-1,7
 145 256 145 256 118.5 282 c 128,-1,8
 92 308 92 308 82 318 c 0,9,10
 51 348 51 348 51 371 c 0,11,12
 51 382 51 382 59 396 c 0,13,14
 63 403 63 403 71 412 c 128,-1,15
 79 421 79 421 92 434 c 2,16,-1
 389 723 l 2,17,18
 399 732 399 732 406.5 738.5 c 128,-1,19
 414 745 414 745 419 749 c 0,20,21
 430 756 430 756 440 756 c 0,22,23
 455 756 455 756 472 740 c 0,24,25
 481 732 481 732 561 656.5 c 128,-1,26
 641 581 641 581 788 434 c 2,27,-1
 800 422 l 2,28,29
 829 393 829 393 829 371 c 0,30,31
 829 359 829 359 822 348 c 0,32,33
 814 334 814 334 788 308 c 2,34,-1
 491 20 l 2,35,36
 481 10 481 10 473.5 3.5 c 128,-1,37
 466 -3 466 -3 461 -7 c 0,38,39
 451 -14 451 -14 440 -14 c 0,0,1
320 176 m 1,40,-1
 374 176 l 1,41,-1
 374 469 l 1,42,-1
 455 456 l 1,43,-1
 347 574 l 1,44,-1
 239 456 l 1,45,-1
 320 469 l 1,46,-1
 320 176 l 1,40,-1
533 176 m 1,47,-1
 641 294 l 1,48,-1
 560 281 l 1,49,-1
 560 574 l 1,50,-1
 506 574 l 1,51,-1
 506 281 l 1,52,-1
 425 294 l 1,53,-1
 533 176 l 1,47,-1
EndSplineSet
EndChar
StartChar: uni26D7
Encoding: 9943 9943 1919
Width: 880
Flags: W
LayerCount: 2
Fore
SplineSet
440 -14 m 0,0,1
 428 -14 428 -14 411 0 c 0,2,3
 406 4 406 4 382.5 26 c 128,-1,4
 359 48 359 48 325.5 81 c 128,-1,5
 292 114 292 114 254 150.5 c 128,-1,6
 216 187 216 187 180.5 221.5 c 128,-1,7
 145 256 145 256 118.5 282 c 128,-1,8
 92 308 92 308 82 318 c 0,9,10
 51 348 51 348 51 371 c 0,11,12
 51 382 51 382 59 396 c 0,13,14
 63 403 63 403 71 412 c 128,-1,15
 79 421 79 421 92 434 c 2,16,-1
 389 723 l 2,17,18
 399 732 399 732 406.5 738.5 c 128,-1,19
 414 745 414 745 419 749 c 0,20,21
 430 756 430 756 440 756 c 0,22,23
 455 756 455 756 472 740 c 0,24,25
 481 732 481 732 561 656.5 c 128,-1,26
 641 581 641 581 788 434 c 2,27,-1
 800 422 l 2,28,29
 829 393 829 393 829 371 c 0,30,31
 829 359 829 359 822 348 c 0,32,33
 814 334 814 334 788 308 c 2,34,-1
 491 20 l 2,35,36
 481 10 481 10 473.5 3.5 c 128,-1,37
 466 -3 466 -3 461 -7 c 0,38,39
 451 -14 451 -14 440 -14 c 0,0,1
440 29 m 0,40,41
 446 29 446 29 454 35 c 0,42,43
 458 38 458 38 463.5 43 c 128,-1,44
 469 48 469 48 476 55 c 2,45,-1
 743 320 l 2,46,47
 786 363 786 363 786 371 c 0,48,49
 786 381 786 381 758 408 c 2,50,-1
 499 664 l 2,51,52
 480 683 480 683 469 694.5 c 128,-1,53
 458 706 458 706 454 708 c 0,54,55
 446 713 446 713 440 713 c 0,56,57
 430 713 430 713 404 687 c 2,58,-1
 137 422 l 2,59,60
 94 379 94 379 94 371 c 0,61,62
 94 362 94 362 123 333 c 2,63,-1
 404 55 l 2,64,65
 430 29 430 29 440 29 c 0,40,41
320 176 m 1,66,-1
 320 469 l 1,67,-1
 239 456 l 1,68,-1
 347 574 l 1,69,-1
 455 456 l 1,70,-1
 374 469 l 1,71,-1
 374 176 l 1,72,-1
 320 176 l 1,66,-1
533 176 m 1,73,-1
 425 294 l 1,74,-1
 506 281 l 1,75,-1
 506 574 l 1,76,-1
 560 574 l 1,77,-1
 560 281 l 1,78,-1
 641 294 l 1,79,-1
 533 176 l 1,73,-1
EndSplineSet
EndChar
StartChar: uni26D9
Encoding: 9945 9945 1921
Width: 800
Flags: W
LayerCount: 2
Fore
SplineSet
51 0 m 1,0,-1
 51 441 l 1,1,-1
 192 607 l 1,2,-1
 192 765 l 1,3,-1
 279 765 l 1,4,-1
 279 586 l 1,5,-1
 138 421 l 1,6,-1
 138 0 l 1,7,-1
 51 0 l 1,0,-1
662 0 m 1,8,-1
 662 765 l 1,9,-1
 749 765 l 1,10,-1
 749 0 l 1,11,-1
 662 0 l 1,8,-1
385 684 m 1,12,-1
 385 765 l 1,13,-1
 428 765 l 1,14,-1
 428 684 l 1,15,-1
 385 684 l 1,12,-1
385 547 m 1,16,-1
 385 628 l 1,17,-1
 428 628 l 1,18,-1
 428 547 l 1,19,-1
 385 547 l 1,16,-1
385 410 m 1,20,-1
 385 491 l 1,21,-1
 428 491 l 1,22,-1
 428 410 l 1,23,-1
 385 410 l 1,20,-1
385 273 m 1,24,-1
 385 354 l 1,25,-1
 428 354 l 1,26,-1
 428 273 l 1,27,-1
 385 273 l 1,24,-1
385 136 m 1,28,-1
 385 217 l 1,29,-1
 428 217 l 1,30,-1
 428 136 l 1,31,-1
 385 136 l 1,28,-1
385 0 m 1,32,-1
 385 81 l 1,33,-1
 428 81 l 1,34,-1
 428 0 l 1,35,-1
 385 0 l 1,32,-1
EndSplineSet
EndChar
StartChar: uni26DD
Encoding: 9949 9949 1925
Width: 859
Flags: W
LayerCount: 2
Fore
SplineSet
51 0 m 1,0,-1
 51 757 l 1,1,-1
 808 757 l 1,2,-1
 808 0 l 1,3,-1
 51 0 l 1,0,-1
427 433 m 1,4,-1
 715 720 l 1,5,-1
 140 720 l 1,6,-1
 427 433 l 1,4,-1
771 90 m 1,7,-1
 771 662 l 1,8,-1
 484 376 l 1,9,-1
 771 90 l 1,7,-1
88 94 m 1,10,-1
 370 376 l 1,11,-1
 88 658 l 1,12,-1
 88 94 l 1,10,-1
145 37 m 1,13,-1
 710 37 l 1,14,-1
 427 319 l 1,15,-1
 145 37 l 1,13,-1
EndSplineSet
EndChar
StartChar: uni26DF
Encoding: 9951 9951 1927
Width: 1381
Flags: W
LayerCount: 2
Fore
SplineSet
402 -1 m 256,0,1
 365 -1 365 -1 339 25 c 128,-1,2
 313 51 313 51 313 88 c 2,3,-1
 313 99 l 1,4,-1
 159 99 l 1,5,-1
 159 172 l 1,6,-1
 51 172 l 1,7,-1
 51 513 l 2,8,9
 51 571 51 571 74.5 600 c 128,-1,10
 98 629 98 629 152 629 c 2,11,-1
 901 629 l 2,12,13
 951 629 951 629 969.5 608 c 128,-1,14
 988 587 988 587 988 524 c 2,15,-1
 988 486 l 1,16,-1
 1095 486 l 2,17,18
 1148 486 1148 486 1184 441 c 128,-1,19
 1220 396 1220 396 1234 305 c 1,20,21
 1278 303 1278 303 1304 275 c 128,-1,22
 1330 247 1330 247 1330 205 c 2,23,-1
 1330 99 l 1,24,-1
 1215 99 l 1,25,26
 1216 95 1216 95 1216 88 c 0,27,28
 1216 52 1216 52 1190 25.5 c 128,-1,29
 1164 -1 1164 -1 1127 -1 c 256,30,31
 1090 -1 1090 -1 1064 25 c 128,-1,32
 1038 51 1038 51 1038 88 c 2,33,-1
 1038 99 l 1,34,-1
 490 99 l 1,35,36
 491 95 491 95 491 88 c 0,37,38
 491 52 491 52 465 25.5 c 128,-1,39
 439 -1 439 -1 402 -1 c 256,0,1
1027 308 m 1,40,-1
 1166 308 l 1,41,42
 1162 365 1162 365 1139 401 c 128,-1,43
 1116 437 1116 437 1082 437 c 2,44,-1
 1027 437 l 1,45,-1
 1027 308 l 1,40,-1
EndSplineSet
EndChar
StartChar: uni2702
Encoding: 9986 9986 1930
Width: 1062
Flags: W
LayerCount: 2
Fore
SplineSet
189 -20 m 0,0,1
 130 -20 130 -20 90.5 9 c 128,-1,2
 51 38 51 38 51 84 c 0,3,4
 51 145 51 145 91 177 c 128,-1,5
 131 209 131 209 207 209 c 0,6,7
 220 209 220 209 231.5 208.5 c 128,-1,8
 243 208 243 208 253 207 c 0,9,10
 272 204 272 204 291 204 c 0,11,12
 304 204 304 204 325.5 213.5 c 128,-1,13
 347 223 347 223 368.5 237 c 128,-1,14
 390 251 390 251 405 264 c 1,15,16
 386 284 386 284 352 300 c 128,-1,17
 318 316 318 316 277 326 c 128,-1,18
 236 336 236 336 197 338 c 256,19,20
 158 340 158 340 124.5 354 c 128,-1,21
 91 368 91 368 71 392.5 c 128,-1,22
 51 417 51 417 51 450 c 0,23,24
 51 499 51 499 84.5 529.5 c 128,-1,25
 118 560 118 560 167 560 c 0,26,27
 204 560 204 560 233 544.5 c 128,-1,28
 262 529 262 529 278.5 503 c 128,-1,29
 295 477 295 477 295 446 c 0,30,31
 295 398 295 398 277 380 c 1,32,33
 326 376 326 376 380.5 359 c 128,-1,34
 435 342 435 342 473 322 c 1,35,-1
 779 436 l 2,36,37
 817 450 817 450 848 456.5 c 128,-1,38
 879 463 879 463 903 463 c 0,39,40
 922 463 922 463 943.5 455.5 c 128,-1,41
 965 448 965 448 983.5 437 c 128,-1,42
 1002 426 1002 426 1011 414 c 1,43,-1
 603 264 l 1,44,-1
 1011 108 l 1,45,46
 998 88 998 88 972.5 72.5 c 128,-1,47
 947 57 947 57 907 57 c 0,48,49
 848 57 848 57 781 84 c 2,50,-1
 473 204 l 1,51,52
 468 200 468 200 443.5 188 c 128,-1,53
 419 176 419 176 388.5 165.5 c 128,-1,54
 358 155 358 155 333 154 c 1,55,-1
 331 150 l 1,56,57
 343 129 343 129 343 108 c 0,58,59
 343 70 343 70 322 41.5 c 128,-1,60
 301 13 301 13 266 -3.5 c 128,-1,61
 231 -20 231 -20 189 -20 c 0,0,1
205 385 m 0,62,63
 230 385 230 385 242.5 397.5 c 128,-1,64
 255 410 255 410 255 442 c 0,65,66
 255 476 255 476 229 502 c 128,-1,67
 203 528 203 528 163 528 c 0,68,69
 132 528 132 528 113.5 509.5 c 128,-1,70
 95 491 95 491 95 460 c 0,71,72
 95 426 95 426 124.5 405.5 c 128,-1,73
 154 385 154 385 205 385 c 0,62,63
191 18 m 0,74,75
 240 18 240 18 272.5 46 c 128,-1,76
 305 74 305 74 305 108 c 0,77,78
 305 136 305 136 281 147 c 0,79,80
 256 158 256 158 197 158 c 0,81,82
 148 158 148 158 121.5 139.5 c 128,-1,83
 95 121 95 121 95 88 c 0,84,85
 95 18 95 18 191 18 c 0,74,75
EndSplineSet
EndChar
StartChar: uni2703
Encoding: 9987 9987 329
Width: 1076
Flags: W
LayerCount: 2
Fore
SplineSet
187 -44 m 0,0,1
 144 -44 144 -44 116.5 -19 c 128,-1,2
 89 6 89 6 89 46 c 0,3,4
 89 98 89 98 122.5 125.5 c 128,-1,5
 156 153 156 153 217 164 c 0,6,7
 257 172 257 172 298.5 195 c 128,-1,8
 340 218 340 218 375 249.5 c 128,-1,9
 410 281 410 281 431 312 c 1,10,11
 416 324 416 324 392 335.5 c 128,-1,12
 368 347 368 347 341.5 354.5 c 128,-1,13
 315 362 315 362 295 362 c 0,14,15
 287 362 287 362 274 360 c 128,-1,16
 261 358 261 358 244 355 c 0,17,18
 226 352 226 352 209.5 350 c 128,-1,19
 193 348 193 348 177 348 c 0,20,21
 118 348 118 348 84.5 372.5 c 128,-1,22
 51 397 51 397 51 440 c 0,23,24
 51 490 51 490 90.5 522 c 128,-1,25
 130 554 130 554 188 554 c 0,26,27
 230 554 230 554 265 541.5 c 128,-1,28
 300 529 300 529 320.5 506.5 c 128,-1,29
 341 484 341 484 341 456 c 0,30,31
 341 439 341 439 334 423.5 c 128,-1,32
 327 408 327 408 319 402 c 1,33,-1
 327 402 l 2,34,35
 427 402 427 402 475 388 c 1,36,-1
 581 516 l 1,37,-1
 713 516 l 1,38,-1
 599 378 l 1,39,-1
 1025 328 l 1,40,41
 994 302 994 302 961.5 286.5 c 128,-1,42
 929 271 929 271 887.5 264.5 c 128,-1,43
 846 258 846 258 787 258 c 0,44,45
 756 258 756 258 707.5 260.5 c 128,-1,46
 659 263 659 263 607 266.5 c 128,-1,47
 555 270 555 270 511 274 c 1,48,49
 496 259 496 259 467.5 241.5 c 128,-1,50
 439 224 439 224 405 206.5 c 128,-1,51
 371 189 371 189 339 174.5 c 128,-1,52
 307 160 307 160 285 152 c 1,53,-1
 283 134 l 1,54,55
 290 128 290 128 298.5 110.5 c 128,-1,56
 307 93 307 93 307 78 c 0,57,58
 307 44 307 44 290.5 16.5 c 128,-1,59
 274 -11 274 -11 247 -27.5 c 128,-1,60
 220 -44 220 -44 187 -44 c 0,0,1
189 382 m 0,61,62
 245 382 245 382 278 402 c 128,-1,63
 311 422 311 422 311 454 c 256,64,65
 311 486 311 486 279 502.5 c 128,-1,66
 247 519 247 519 193 519 c 0,67,68
 147 519 147 519 118 498.5 c 128,-1,69
 89 478 89 478 89 444 c 0,70,71
 89 413 89 413 115.5 397.5 c 128,-1,72
 142 382 142 382 189 382 c 0,61,62
185 -10 m 0,73,74
 206 -10 206 -10 226 2 c 128,-1,75
 246 14 246 14 259.5 34 c 128,-1,76
 273 54 273 54 273 80 c 0,77,78
 273 102 273 102 255 117 c 128,-1,79
 237 132 237 132 213 132 c 0,80,81
 175 132 175 132 150 107 c 128,-1,82
 125 82 125 82 125 46 c 0,83,84
 125 20 125 20 140 5 c 128,-1,85
 155 -10 155 -10 185 -10 c 0,73,74
EndSplineSet
EndChar
StartChar: uni2706
Encoding: 9990 9990 331
Width: 982
Flags: W
LayerCount: 2
Fore
SplineSet
492 -83 m 0,0,1
 423 -83 423 -83 366.5 -65 c 128,-1,2
 310 -47 310 -47 276 -14.5 c 128,-1,3
 242 18 242 18 242 63 c 0,4,5
 242 102 242 102 277 143 c 1,6,7
 266 161 266 161 260.5 173.5 c 128,-1,8
 255 186 255 186 255 202 c 0,9,10
 255 226 255 226 267.5 270.5 c 128,-1,11
 280 315 280 315 300.5 368.5 c 128,-1,12
 321 422 321 422 346.5 474 c 128,-1,13
 372 526 372 526 398 564 c 0,14,15
 433 615 433 615 455.5 640.5 c 128,-1,16
 478 666 478 666 499.5 674.5 c 128,-1,17
 521 683 521 683 553 683 c 0,18,19
 591 683 591 683 607 679 c 1,20,-1
 607 660 l 2,21,22
 607 570 607 570 560 515 c 1,23,-1
 553 515 l 2,24,25
 511 515 511 515 491 492 c 0,26,27
 480 480 480 480 464.5 450 c 128,-1,28
 449 420 449 420 433 385 c 128,-1,29
 417 350 417 350 406.5 321 c 128,-1,30
 396 292 396 292 396 282 c 0,31,32
 396 253 396 253 421 231 c 1,33,34
 407 151 407 151 322 94 c 1,35,-1
 298 114 l 1,36,37
 280 95 280 95 280 69 c 0,38,39
 280 19 280 19 337 -12 c 128,-1,40
 394 -43 394 -43 492 -43 c 0,41,42
 597 -43 597 -43 688.5 10.5 c 128,-1,43
 780 64 780 64 837 157 c 0,44,45
 866 204 866 204 879.5 254.5 c 128,-1,46
 893 305 893 305 893 358 c 0,47,48
 893 430 893 430 869 496 c 128,-1,49
 845 562 845 562 799.5 616.5 c 128,-1,50
 754 671 754 671 692 706 c 0,51,52
 598 759 598 759 492 759 c 0,53,54
 420 759 420 759 353 733.5 c 128,-1,55
 286 708 286 708 232 662 c 128,-1,56
 178 616 178 616 142 554 c 0,57,58
 89 462 89 462 89 358 c 0,59,60
 89 281 89 281 115.5 216.5 c 128,-1,61
 142 152 142 152 199 83 c 1,62,63
 195 82 195 82 190 80 c 128,-1,64
 185 78 185 78 178 78 c 0,65,66
 158 78 158 78 136 103.5 c 128,-1,67
 114 129 114 129 94.5 171 c 128,-1,68
 75 213 75 213 63 262 c 128,-1,69
 51 311 51 311 51 358 c 0,70,71
 51 436 51 436 78 507.5 c 128,-1,72
 105 579 105 579 154.5 638 c 128,-1,73
 204 697 204 697 273 737 c 0,74,75
 375 797 375 797 492 797 c 0,76,77
 570 797 570 797 642 770.5 c 128,-1,78
 714 744 714 744 774 694.5 c 128,-1,79
 834 645 834 645 872 577 c 0,80,81
 931 473 931 473 931 358 c 0,82,83
 931 280 931 280 904 207.5 c 128,-1,84
 877 135 877 135 827 75 c 128,-1,85
 777 15 777 15 709 -24 c 0,86,87
 606 -83 606 -83 492 -83 c 0,0,1
630 491 m 0,88,89
 624 491 624 491 575 506 c 1,90,91
 604 542 604 542 614.5 575.5 c 128,-1,92
 625 609 625 609 625 654 c 2,93,-1
 625 672 l 1,94,-1
 665 652 l 2,95,96
 677 646 677 646 682 641 c 128,-1,97
 687 636 687 636 687 620 c 0,98,99
 687 592 687 592 683 568.5 c 128,-1,100
 679 545 679 545 669 526 c 0,101,102
 651 491 651 491 630 491 c 0,88,89
399 56 m 0,103,104
 398 56 398 56 397 56.5 c 128,-1,105
 396 57 396 57 395 57 c 2,106,107
 395 57 395 57 338 83 c 1,108,109
 428 142 428 142 439 224 c 1,110,-1
 472 199 l 2,111,112
 489 187 489 187 489 172 c 0,113,114
 489 162 489 162 479 142.5 c 128,-1,115
 469 123 469 123 454 103.5 c 128,-1,116
 439 84 439 84 424 70 c 128,-1,117
 409 56 409 56 399 56 c 0,103,104
EndSplineSet
EndChar
StartChar: uni2708
Encoding: 9992 9992 333
Width: 852
Flags: W
LayerCount: 2
Fore
SplineSet
281 -76 m 1,0,-1
 297 -56 l 1,1,-1
 397 202 l 1,2,-1
 403 254 l 1,3,4
 392 254 392 254 360.5 257 c 128,-1,5
 329 260 329 260 290.5 264.5 c 128,-1,6
 252 269 252 269 218.5 273.5 c 128,-1,7
 185 278 185 278 171 280 c 1,8,-1
 101 178 l 1,9,-1
 51 170 l 1,10,-1
 91 290 l 1,11,12
 53 295 53 295 53 304 c 0,13,14
 53 312 53 312 91 318 c 1,15,-1
 51 438 l 1,16,-1
 101 430 l 1,17,-1
 171 328 l 1,18,19
 188 331 188 331 222 335 c 128,-1,20
 256 339 256 339 294 343.5 c 128,-1,21
 332 348 332 348 362.5 351 c 128,-1,22
 393 354 393 354 403 354 c 1,23,-1
 397 406 l 1,24,-1
 297 664 l 1,25,-1
 281 684 l 1,26,-1
 341 666 l 2,27,28
 346 664 346 664 350 662.5 c 128,-1,29
 354 661 354 661 355 660 c 0,30,31
 356 658 356 658 372 637 c 128,-1,32
 388 616 388 616 419 576 c 1,33,-1
 459 574 l 2,34,35
 466 574 466 574 471.5 573 c 128,-1,36
 477 572 477 572 481 571 c 0,37,38
 489 569 489 569 489 562 c 2,39,-1
 489 554 l 2,40,41
 489 549 489 549 486 546 c 0,42,43
 484 545 484 545 474.5 542.5 c 128,-1,44
 465 540 465 540 447 536 c 1,45,-1
 493 474 l 1,46,-1
 533 472 l 2,47,48
 540 472 540 472 546 471.5 c 128,-1,49
 552 471 552 471 556 470 c 0,50,51
 565 467 565 467 565 460 c 2,52,-1
 565 452 l 2,53,54
 565 446 565 446 560 443 c 0,55,56
 556 440 556 440 521 434 c 1,57,-1
 581 352 l 1,58,59
 612 352 612 352 649.5 348 c 128,-1,60
 687 344 687 344 721.5 337.5 c 128,-1,61
 756 331 756 331 778.5 322.5 c 128,-1,62
 801 314 801 314 801 304 c 256,63,64
 801 294 801 294 778 285 c 128,-1,65
 755 276 755 276 720 269.5 c 128,-1,66
 685 263 685 263 647.5 259.5 c 128,-1,67
 610 256 610 256 581 256 c 1,68,-1
 521 174 l 1,69,-1
 549 170 l 2,70,71
 556 169 556 169 561 168 c 128,-1,72
 566 167 566 167 568 166 c 0,73,74
 573 165 573 165 573 158 c 2,75,-1
 573 150 l 2,76,77
 573 142 573 142 565 141 c 0,78,79
 559 140 559 140 543 138 c 2,80,-1
 493 134 l 1,81,-1
 447 72 l 1,82,-1
 475 68 l 2,83,84
 482 67 482 67 487.5 66 c 128,-1,85
 493 65 493 65 495 64 c 0,86,87
 499 63 499 63 499 56 c 2,88,-1
 499 48 l 2,89,90
 499 40 499 40 490 39 c 0,91,92
 482 38 482 38 467 36 c 2,93,-1
 417 32 l 1,94,-1
 362 -43 l 2,95,96
 354 -54 354 -54 341 -58 c 2,97,-1
 281 -76 l 1,0,-1
EndSplineSet
EndChar
StartChar: uni2710
Encoding: 10000 10000 335
Width: 998
Flags: W
LayerCount: 2
Fore
SplineSet
309 4 m 1,0,-1
 279 10 l 2,1,2
 265 13 265 13 254.5 15.5 c 128,-1,3
 244 18 244 18 237 20 c 256,4,5
 230 22 230 22 222 24.5 c 128,-1,6
 214 27 214 27 207 29 c 2,7,-1
 178 37 l 2,8,9
 170 39 170 39 161 41.5 c 128,-1,10
 152 44 152 44 143 46 c 1,11,12
 127 68 127 68 114.5 87.5 c 128,-1,13
 102 107 102 107 93 125 c 0,14,15
 84 142 84 142 78 153 c 128,-1,16
 72 164 72 164 69 168 c 2,17,-1
 51 200 l 1,18,19
 52 208 52 208 55 214.5 c 128,-1,20
 58 221 58 221 59 228 c 2,21,-1
 65 250 l 2,22,23
 66 254 66 254 68 261.5 c 128,-1,24
 70 269 70 269 72 281 c 256,25,26
 74 293 74 293 78 310.5 c 128,-1,27
 82 328 82 328 87 352 c 1,28,29
 103 361 103 361 117.5 369.5 c 128,-1,30
 132 378 132 378 146 385 c 2,31,-1
 168 397 l 2,32,33
 183 405 183 405 192.5 411.5 c 128,-1,34
 202 418 202 418 207 421 c 0,35,36
 213 426 213 426 224 432 c 2,37,-1
 248 446 l 2,38,39
 283 466 283 466 305.5 477.5 c 128,-1,40
 328 489 328 489 338 493 c 256,41,42
 348 497 348 497 362 504.5 c 128,-1,43
 376 512 376 512 395 523 c 2,44,-1
 475 571 l 1,45,-1
 515 594 l 2,46,47
 536 606 536 606 560 614.5 c 128,-1,48
 584 623 584 623 602 627.5 c 128,-1,49
 620 632 620 632 625 632 c 2,50,-1
 669 634 l 1,51,52
 669 634 669 634 691 634.5 c 128,-1,53
 713 635 713 635 745.5 636.5 c 128,-1,54
 778 638 778 638 809.5 639 c 128,-1,55
 841 640 841 640 862 640.5 c 128,-1,56
 883 641 883 641 881 641 c 2,57,-1
 901 641 l 2,58,59
 929 641 929 641 938 636 c 0,60,61
 947 632 947 632 947 622 c 0,62,63
 947 616 947 616 944.5 609 c 128,-1,64
 942 602 942 602 938 595 c 2,65,-1
 923 570 l 1,66,-1
 893 515 l 2,67,68
 888 504 888 504 880 492 c 2,69,-1
 858 453 l 2,70,71
 856 448 856 448 854 444.5 c 128,-1,72
 852 441 852 441 850 438 c 0,73,74
 848 436 848 436 846 431.5 c 128,-1,75
 844 427 844 427 841 421 c 2,76,-1
 813 364 l 2,77,78
 785 307 785 307 767 300 c 0,79,80
 759 297 759 297 743 287.5 c 128,-1,81
 727 278 727 278 704 263 c 2,82,-1
 668 240 l 2,83,84
 658 234 658 234 652.5 230 c 128,-1,85
 647 226 647 226 645 224 c 0,86,87
 642 222 642 222 638 219.5 c 128,-1,88
 634 217 634 217 630 214 c 2,89,-1
 521 145 l 2,90,91
 516 141 516 141 511.5 138.5 c 128,-1,92
 507 136 507 136 505 134 c 2,93,-1
 399 63 l 2,94,95
 379 50 379 50 356.5 35 c 128,-1,96
 334 20 334 20 309 4 c 1,0,-1
763 350 m 1,97,98
 772 362 772 362 785 388 c 2,99,-1
 818 452 l 1,100,-1
 823 462 l 2,101,102
 824 464 824 464 832 476 c 128,-1,103
 840 488 840 488 853 510 c 0,104,105
 879 554 879 554 879 565 c 0,106,107
 879 577 879 577 870 590.5 c 128,-1,108
 861 604 861 604 855 607 c 0,109,110
 850 611 850 611 831 611 c 0,111,112
 817 611 817 611 802.5 609.5 c 128,-1,113
 788 608 788 608 774 606 c 256,114,115
 760 604 760 604 740.5 603 c 128,-1,116
 721 602 721 602 696 602 c 2,117,-1
 673 602 l 2,118,119
 666 602 666 602 655.5 601.5 c 128,-1,120
 645 601 645 601 637 600 c 2,121,-1
 615 598 l 1,122,123
 647 573 647 573 656 572 c 0,124,125
 660 570 660 570 665.5 570 c 128,-1,126
 671 570 671 570 678 570 c 2,127,-1
 693 570 l 2,128,129
 697 570 697 570 700 570 c 128,-1,130
 703 570 703 570 707 571 c 2,131,-1
 721 572 l 1,132,133
 708 566 708 566 697 558.5 c 128,-1,134
 686 551 686 551 686 544 c 0,135,136
 686 540 686 540 690 536 c 256,137,138
 694 532 694 532 705 532 c 0,139,140
 718 532 718 532 739.5 537.5 c 128,-1,141
 761 543 761 543 789 552 c 1,142,143
 774 542 774 542 757 527.5 c 128,-1,144
 740 513 740 513 737 508 c 2,145,-1
 729 495 l 2,146,147
 725 488 725 488 725 478 c 0,148,149
 725 469 725 469 731.5 459 c 128,-1,150
 738 449 738 449 750 449 c 0,151,152
 757 449 757 449 764 453 c 2,153,-1
 783 460 l 2,154,155
 779 456 779 456 775.5 450.5 c 128,-1,156
 772 445 772 445 770 438 c 0,157,158
 768 432 768 432 764.5 426.5 c 128,-1,159
 761 421 761 421 758 416 c 0,160,161
 752 406 752 406 752 390 c 0,162,163
 752 380 752 380 755.5 369 c 128,-1,164
 759 358 759 358 763 350 c 1,97,98
261 330 m 1,165,-1
 271 334 l 1,166,-1
 295 348 l 2,167,168
 302 352 302 352 308 354 c 128,-1,169
 314 356 314 356 319 358 c 0,170,171
 329 360 329 360 346.5 370 c 128,-1,172
 364 380 364 380 381 394 c 0,173,174
 389 401 389 401 397.5 406.5 c 128,-1,175
 406 412 406 412 415 417 c 0,176,177
 433 428 433 428 443 436 c 2,178,-1
 453 444 l 2,179,180
 455 446 455 446 457 447.5 c 128,-1,181
 459 449 459 449 461 450 c 2,182,-1
 488 465 l 1,183,-1
 503 473 l 2,184,185
 507 475 507 475 509.5 476 c 128,-1,186
 512 477 512 477 513 478 c 2,187,-1
 542 499 l 1,188,-1
 560 513 l 2,189,190
 573 523 573 523 589 533 c 2,191,-1
 604 542 l 2,192,193
 608 544 608 544 613 546.5 c 128,-1,194
 618 549 618 549 623 552 c 1,195,-1
 565 588 l 1,196,197
 558 584 558 584 550.5 580.5 c 128,-1,198
 543 577 543 577 536 573 c 2,199,-1
 512 560 l 2,200,201
 502 555 502 555 493.5 550 c 128,-1,202
 485 545 485 545 477 540 c 2,203,-1
 438 513 l 2,204,205
 433 509 433 509 428.5 506.5 c 128,-1,206
 424 504 424 504 423 503 c 256,207,208
 422 502 422 502 417.5 500 c 128,-1,209
 413 498 413 498 406 494 c 2,210,-1
 376 477 l 2,211,212
 359 467 359 467 347 461 c 128,-1,213
 335 455 335 455 328 451 c 256,214,215
 321 447 321 447 311.5 441.5 c 128,-1,216
 302 436 302 436 288 429 c 2,217,-1
 259 414 l 1,218,-1
 228 396 l 2,219,220
 209 386 209 386 188.5 374.5 c 128,-1,221
 168 363 168 363 145 350 c 1,222,223
 162 350 162 350 174 348 c 128,-1,224
 186 346 186 346 194 344 c 256,225,226
 202 342 202 342 207 340 c 128,-1,227
 212 338 212 338 214 338 c 2,228,-1
 234 334 l 2,229,230
 241 332 241 332 247.5 332 c 128,-1,231
 254 332 254 332 261 330 c 1,165,-1
343 204 m 1,232,233
 347 206 347 206 350.5 208 c 128,-1,234
 354 210 354 210 357 211 c 2,235,-1
 370 219 l 1,236,-1
 394 235 l 2,237,238
 415 249 415 249 434 257 c 0,239,240
 442 260 442 260 460.5 270.5 c 128,-1,241
 479 281 479 281 508 300 c 2,242,-1
 577 344 l 2,243,244
 581 346 581 346 585 348.5 c 128,-1,245
 589 351 589 351 595 354 c 2,246,-1
 646 381 l 2,247,248
 652 384 652 384 656.5 387 c 128,-1,249
 661 390 661 390 665 392 c 2,250,-1
 681 402 l 2,251,252
 686 405 686 405 697.5 412.5 c 128,-1,253
 709 420 709 420 715 424 c 1,254,255
 713 434 713 434 710.5 444 c 128,-1,256
 708 454 708 454 705 464 c 0,257,258
 698 482 698 482 695 485 c 2,259,-1
 677 504 l 1,260,-1
 667 515 l 2,261,262
 660 522 660 522 657 526 c 1,263,-1
 645 519 l 2,264,265
 644 518 644 518 642 517 c 128,-1,266
 640 516 640 516 639 516 c 0,267,268
 637 516 637 516 629 511 c 2,269,-1
 612 501 l 1,270,-1
 594 490 l 2,271,272
 559 468 559 468 535 457 c 256,273,274
 511 446 511 446 507 442 c 2,275,-1
 494 430 l 2,276,277
 489 425 489 425 483.5 421 c 128,-1,278
 478 417 478 417 466 411 c 2,279,-1
 429 393 l 1,280,-1
 415 386 l 2,281,282
 410 384 410 384 402 378 c 128,-1,283
 394 372 394 372 385 364 c 2,284,-1
 369 350 l 2,285,286
 355 337 355 337 342 333 c 0,287,288
 336 330 336 330 330 326.5 c 128,-1,289
 324 323 324 323 318 320 c 2,290,-1
 305 313 l 2,291,292
 300 310 300 310 296 307.5 c 128,-1,293
 292 305 292 305 287 302 c 1,294,-1
 291 293 l 2,295,296
 292 292 292 292 292.5 290 c 128,-1,297
 293 288 293 288 294 286 c 2,298,-1
 297 280 l 2,299,300
 298 276 298 276 306 270 c 0,301,302
 315 263 315 263 321 250 c 2,303,-1
 335 221 l 2,304,305
 337 216 337 216 339 212 c 128,-1,306
 341 208 341 208 343 204 c 1,232,233
333 66 m 1,307,308
 338 69 338 69 343.5 72 c 128,-1,309
 349 75 349 75 356 79 c 0,310,311
 362 82 362 82 367 85 c 128,-1,312
 372 88 372 88 375 89 c 2,313,-1
 389 96 l 2,314,315
 396 100 396 100 410.5 110 c 128,-1,316
 425 120 425 120 447 136 c 256,317,318
 469 152 469 152 486.5 165.5 c 128,-1,319
 504 179 504 179 518 188 c 2,320,-1
 547 206 l 2,321,322
 554 210 554 210 561 215 c 128,-1,323
 568 220 568 220 576 225 c 256,324,325
 584 230 584 230 589.5 233.5 c 128,-1,326
 595 237 595 237 597 239 c 2,327,-1
 609 246 l 2,328,329
 610 247 610 247 613.5 248.5 c 128,-1,330
 617 250 617 250 620 252 c 256,331,332
 623 254 623 254 626.5 257 c 128,-1,333
 630 260 630 260 635 262 c 2,334,-1
 653 272 l 2,335,336
 657 276 657 276 678 287 c 0,337,338
 700 299 700 299 737 328 c 1,339,-1
 725 388 l 1,340,-1
 711 381 l 2,341,342
 709 380 709 380 706 378 c 128,-1,343
 703 376 703 376 700 375 c 2,344,-1
 689 370 l 2,345,346
 685 369 685 369 675 362 c 2,347,-1
 632 337 l 2,348,349
 627 334 627 334 622.5 331.5 c 128,-1,350
 618 329 618 329 613 327 c 0,351,352
 608 324 608 324 601 320 c 128,-1,353
 594 316 594 316 586 308 c 2,354,-1
 573 297 l 2,355,356
 566 292 566 292 563 290 c 2,357,-1
 541 279 l 2,358,359
 532 274 532 274 526 273 c 128,-1,360
 520 272 520 272 516 271 c 0,361,362
 507 269 507 269 494 256 c 2,363,-1
 483 246 l 2,364,365
 471 234 471 234 452 229 c 0,366,367
 434 225 434 225 422 213 c 256,368,369
 410 201 410 201 391 193 c 0,370,371
 370 183 370 183 349 164 c 0,372,373
 348 159 348 159 347 153.5 c 128,-1,374
 346 148 346 148 344 143 c 0,375,376
 343 138 343 138 342 134 c 128,-1,377
 341 130 341 130 340 126 c 2,378,-1
 337 114 l 2,379,380
 336 110 336 110 335.5 102 c 128,-1,381
 335 94 335 94 334 86 c 2,382,-1
 333 66 l 1,307,308
291 48 m 2,383,384
 291 50 291 50 293 56 c 128,-1,385
 295 62 295 62 296 64 c 2,386,-1
 301 74 l 2,387,388
 304 81 304 81 306 98.5 c 128,-1,389
 308 116 308 116 310 132 c 2,390,-1
 311 146 l 2,391,392
 312 155 312 155 314 163.5 c 128,-1,393
 316 172 316 172 317 174 c 0,394,395
 315 176 315 176 313.5 179 c 128,-1,396
 312 182 312 182 311 185 c 2,397,-1
 307 193 l 2,398,399
 306 195 306 195 305 197 c 128,-1,400
 304 199 304 199 303 200 c 2,401,-1
 289 219 l 2,402,403
 282 229 282 229 277 236.5 c 128,-1,404
 272 244 272 244 270 250 c 0,405,406
 268 257 268 257 265 262 c 128,-1,407
 262 267 262 267 260 270 c 2,408,-1
 255 279 l 1,409,-1
 250 290 l 2,410,411
 249 292 249 292 247.5 295 c 128,-1,412
 246 298 246 298 245 302 c 2,413,-1
 201 308 l 1,414,-1
 184 311 l 1,415,-1
 155 315 l 2,416,417
 154 315 154 315 138 317.5 c 128,-1,418
 122 320 122 320 115 322 c 1,419,420
 114 314 114 314 112.5 307 c 128,-1,421
 111 300 111 300 110 294 c 2,422,-1
 106 272 l 2,423,424
 105 263 105 263 103 258 c 0,425,426
 102 256 102 256 100 246 c 2,427,-1
 95 229 l 1,428,-1
 91 208 l 1,429,-1
 99 190 l 2,430,431
 103 182 103 182 105.5 177 c 128,-1,432
 108 172 108 172 110 168 c 0,433,434
 112 165 112 165 114.5 161.5 c 128,-1,435
 117 158 117 158 120 153 c 2,436,-1
 135 127 l 2,437,438
 136 124 136 124 143 116 c 0,439,440
 145 112 145 112 148.5 106 c 128,-1,441
 152 100 152 100 156 92 c 2,442,-1
 165 72 l 1,443,444
 186 66 186 66 218.5 60.5 c 128,-1,445
 251 55 251 55 268 52 c 2,446,-1
 291 48 l 2,383,384
223 126 m 0,447,448
 201 126 201 126 183 140.5 c 128,-1,449
 165 155 165 155 154.5 176.5 c 128,-1,450
 144 198 144 198 144 219 c 0,451,452
 144 236 144 236 154 247.5 c 128,-1,453
 164 259 164 259 178 259 c 0,454,455
 196 259 196 259 214 240.5 c 128,-1,456
 232 222 232 222 243.5 198 c 128,-1,457
 255 174 255 174 255 157 c 0,458,459
 255 126 255 126 223 126 c 0,447,448
EndSplineSet
EndChar
StartChar: uni2714
Encoding: 10004 10004 338
Width: 930
Flags: W
LayerCount: 2
Fore
SplineSet
213 -80 m 0,0,1
 185 -80 185 -80 158.5 -65 c 128,-1,2
 132 -50 132 -50 112 -30 c 0,3,4
 98 -16 98 -16 91 -8 c 128,-1,5
 84 0 84 0 80 11 c 128,-1,6
 76 22 76 22 73 45 c 0,7,8
 71 62 71 62 70 75 c 128,-1,9
 69 88 69 88 69 98 c 2,10,11
 69 98 69 98 67.5 117 c 128,-1,12
 66 136 66 136 64 165 c 128,-1,13
 62 194 62 194 60 226.5 c 128,-1,14
 58 259 58 259 56 288.5 c 128,-1,15
 54 318 54 318 52.5 336 c 128,-1,16
 51 354 51 354 51 354 c 2,17,18
 51 374 51 374 57 376 c 2,19,-1
 79 374 l 1,20,21
 85 388 85 388 102 403.5 c 128,-1,22
 119 419 119 419 126 421 c 0,23,24
 132 424 132 424 149 424 c 1,25,-1
 170 432 l 2,26,27
 176 435 176 435 187 435 c 0,28,29
 197 435 197 435 205 443 c 256,30,31
 213 451 213 451 218 451 c 0,32,33
 230 451 230 451 235 428 c 2,34,-1
 267 262 l 2,35,36
 270 247 270 247 271.5 236.5 c 128,-1,37
 273 226 273 226 277 218 c 0,38,39
 285 204 285 204 292 204 c 0,40,41
 303 204 303 204 306 207 c 2,42,-1
 510 396 l 2,43,44
 604 483 604 483 663.5 539.5 c 128,-1,45
 723 596 723 596 748 624 c 0,46,47
 797 679 797 679 822 679 c 0,48,49
 827 679 827 679 833 676 c 1,50,-1
 857 682 l 1,51,-1
 869 676 l 2,52,53
 870 675 870 675 870.5 674 c 128,-1,54
 871 673 871 673 872 672 c 256,55,56
 873 671 873 671 879 629 c 1,57,-1
 873 603 l 1,58,59
 879 588 879 588 879 571 c 0,60,61
 879 553 879 553 858 532 c 0,62,63
 848 522 848 522 831.5 503.5 c 128,-1,64
 815 485 815 485 792 458 c 256,65,66
 769 431 769 431 753.5 413 c 128,-1,67
 738 395 738 395 723.5 380 c 128,-1,68
 709 365 709 365 690.5 346 c 128,-1,69
 672 327 672 327 643 298 c 2,70,-1
 619 274 l 2,71,72
 551 206 551 206 497 152 c 128,-1,73
 443 98 443 98 402 57 c 256,74,75
 361 16 361 16 331 -11 c 128,-1,76
 301 -38 301 -38 282 -52 c 0,77,78
 245 -80 245 -80 213 -80 c 0,0,1
EndSplineSet
EndChar
StartChar: uni2715
Encoding: 10005 10005 339
Width: 864
Flags: W
LayerCount: 2
Fore
SplineSet
105 -76 m 1,0,-1
 51 -22 l 1,1,-1
 379 308 l 1,2,-1
 51 638 l 1,3,-1
 105 692 l 1,4,-1
 433 362 l 1,5,-1
 759 692 l 1,6,-1
 813 638 l 1,7,-1
 485 308 l 1,8,-1
 813 -22 l 1,9,-1
 759 -76 l 1,10,-1
 433 252 l 1,11,-1
 105 -76 l 1,0,-1
EndSplineSet
EndChar
StartChar: uni2716
Encoding: 10006 10006 340
Width: 846
Flags: W
LayerCount: 2
Fore
SplineSet
201 -108 m 1,0,-1
 51 42 l 1,1,-1
 273 264 l 1,2,-1
 51 486 l 1,3,-1
 201 636 l 1,4,-1
 423 414 l 1,5,-1
 645 636 l 1,6,-1
 795 486 l 1,7,-1
 575 264 l 1,8,-1
 795 42 l 1,9,-1
 645 -108 l 1,10,-1
 423 114 l 1,11,-1
 201 -108 l 1,0,-1
EndSplineSet
EndChar
StartChar: uni271C
Encoding: 10012 10012 295
Width: 834
Flags: W
LayerCount: 2
Fore
SplineSet
293 -8 m 1,0,-1
 293 234 l 1,1,-1
 51 234 l 1,2,-1
 51 482 l 1,3,-1
 293 482 l 1,4,-1
 293 724 l 1,5,-1
 541 724 l 1,6,-1
 541 482 l 1,7,-1
 783 482 l 1,8,-1
 783 234 l 1,9,-1
 541 234 l 1,10,-1
 541 -8 l 1,11,-1
 293 -8 l 1,0,-1
301 242 m 1,12,-1
 531 242 l 1,13,-1
 531 474 l 1,14,-1
 301 474 l 1,15,-1
 301 242 l 1,12,-1
EndSplineSet
EndChar
StartChar: uni2724
Encoding: 10020 10020 345
Width: 870
Flags: W
LayerCount: 2
Fore
SplineSet
435 -51 m 0,0,1
 397 -51 397 -51 365.5 -32.5 c 128,-1,2
 334 -14 334 -14 315.5 17.5 c 128,-1,3
 297 49 297 49 297 87 c 0,4,5
 297 135 297 135 318.5 167 c 128,-1,6
 340 199 340 199 387 242 c 0,7,8
 421 273 421 273 421 301 c 2,9,-1
 421 319 l 1,10,-1
 403 319 l 2,11,12
 372 319 372 319 318 257 c 0,13,14
 265 195 265 195 189 195 c 0,15,16
 151 195 151 195 119.5 213.5 c 128,-1,17
 88 232 88 232 69.5 263.5 c 128,-1,18
 51 295 51 295 51 333 c 256,19,20
 51 371 51 371 69.5 402.5 c 128,-1,21
 88 434 88 434 119.5 452.5 c 128,-1,22
 151 471 151 471 189 471 c 0,23,24
 264 471 264 471 317 410 c 256,25,26
 370 349 370 349 403 349 c 2,27,-1
 421 349 l 1,28,-1
 421 365 l 2,29,30
 421 393 421 393 387 424 c 2,31,-1
 364 445 l 2,32,33
 338 468 338 468 317.5 500 c 128,-1,34
 297 532 297 532 297 579 c 0,35,36
 297 617 297 617 315.5 648.5 c 128,-1,37
 334 680 334 680 365 698.5 c 128,-1,38
 396 717 396 717 435 717 c 0,39,40
 473 717 473 717 504.5 698 c 128,-1,41
 536 679 536 679 554.5 647.5 c 128,-1,42
 573 616 573 616 573 579 c 0,43,44
 573 504 573 504 512 451 c 256,45,46
 451 398 451 398 451 365 c 2,47,-1
 451 349 l 1,48,-1
 467 349 l 2,49,50
 501 349 501 349 553 410 c 0,51,52
 604 471 604 471 681 471 c 0,53,54
 719 471 719 471 750.5 452.5 c 128,-1,55
 782 434 782 434 800.5 403 c 128,-1,56
 819 372 819 372 819 333 c 0,57,58
 819 295 819 295 800.5 263.5 c 128,-1,59
 782 232 782 232 750.5 213.5 c 128,-1,60
 719 195 719 195 681 195 c 0,61,62
 634 195 634 195 600 218 c 128,-1,63
 566 241 566 241 526 285 c 0,64,65
 495 319 495 319 467 319 c 2,66,-1
 451 319 l 1,67,-1
 451 301 l 2,68,69
 451 264 451 264 512 215 c 256,70,71
 573 166 573 166 573 87 c 0,72,73
 573 49 573 49 554.5 17.5 c 128,-1,74
 536 -14 536 -14 505 -32.5 c 128,-1,75
 474 -51 474 -51 435 -51 c 0,0,1
EndSplineSet
EndChar
StartChar: uni2726
Encoding: 10022 10022 347
Width: 870
Flags: W
LayerCount: 2
Fore
SplineSet
415 -42 m 1,0,1
 404 22 404 22 357 98 c 128,-1,2
 310 174 310 174 223 239 c 0,3,4
 137 304 137 304 51 322 c 1,5,-1
 51 364 l 1,6,7
 136 384 136 384 214.5 438.5 c 128,-1,8
 293 493 293 493 346 570 c 0,9,10
 400 649 400 649 415 726 c 1,11,-1
 457 726 l 1,12,13
 466 676 466 676 493 623.5 c 128,-1,14
 520 571 520 571 562.5 523.5 c 128,-1,15
 605 476 605 476 658 438 c 0,16,17
 737 382 737 382 819 364 c 1,18,-1
 819 322 l 1,19,20
 764 310 764 310 705.5 276.5 c 128,-1,21
 647 243 647 243 597 196.5 c 128,-1,22
 547 150 547 150 515 99 c 0,23,24
 468 24 468 24 457 -42 c 1,25,-1
 415 -42 l 1,0,1
EndSplineSet
EndChar
StartChar: uni2729
Encoding: 10025 10025 349
Width: 1018
Flags: W
LayerCount: 2
Fore
SplineSet
210 -40 m 1,0,-1
 311 293 l 1,1,-1
 51 484 l 1,2,-1
 375 500 l 1,3,-1
 509 848 l 1,4,-1
 641 500 l 1,5,-1
 967 484 l 1,6,-1
 707 293 l 1,7,-1
 805 -40 l 1,8,-1
 509 154 l 1,9,-1
 210 -40 l 1,0,-1
268 34 m 1,10,-1
 509 242 l 1,11,-1
 749 34 l 1,12,-1
 623 317 l 1,13,-1
 870 455 l 1,14,-1
 587 432 l 1,15,-1
 509 758 l 1,16,-1
 428 432 l 1,17,-1
 148 455 l 1,18,-1
 395 317 l 1,19,-1
 268 34 l 1,10,-1
EndSplineSet
EndChar
StartChar: uni2731
Encoding: 10033 10033 357
Width: 774
Flags: W
LayerCount: 2
Fore
SplineSet
315 -4 m 1,0,-1
 315 216 l 1,1,-1
 123 106 l 1,2,-1
 51 232 l 1,3,-1
 241 342 l 1,4,-1
 51 452 l 1,5,-1
 123 578 l 1,6,-1
 315 468 l 1,7,-1
 315 688 l 1,8,-1
 461 688 l 1,9,-1
 461 468 l 1,10,-1
 651 578 l 1,11,-1
 723 452 l 1,12,-1
 533 342 l 1,13,-1
 723 232 l 1,14,-1
 651 106 l 1,15,-1
 461 216 l 1,16,-1
 461 -4 l 1,17,-1
 315 -4 l 1,0,-1
EndSplineSet
EndChar
StartChar: uni2732
Encoding: 10034 10034 358
Width: 790
Flags: W
LayerCount: 2
Fore
SplineSet
337 432 m 1,0,-1
 337 696 l 1,1,-1
 453 696 l 1,2,-1
 453 432 l 1,3,-1
 337 432 l 1,0,-1
279 332 m 1,4,-1
 51 464 l 1,5,-1
 109 564 l 1,6,-1
 336 432 l 1,7,-1
 279 332 l 1,4,-1
509 332 m 1,8,-1
 453 431 l 1,9,-1
 681 564 l 1,10,-1
 739 464 l 1,11,-1
 509 332 l 1,8,-1
681 100 m 1,12,-1
 451 232 l 1,13,-1
 509 331 l 1,14,-1
 739 200 l 1,15,-1
 681 100 l 1,12,-1
109 100 m 1,16,-1
 51 200 l 1,17,-1
 279 331 l 1,18,-1
 337 232 l 1,19,-1
 109 100 l 1,16,-1
337 -32 m 1,20,-1
 337 231 l 1,21,-1
 451 231 l 1,22,-1
 451 -32 l 1,23,-1
 337 -32 l 1,20,-1
EndSplineSet
EndChar
StartChar: uni273F
Encoding: 10047 10047 369
Width: 838
Flags: W
LayerCount: 2
Fore
SplineSet
274 -20 m 0,0,1
 238 -20 238 -20 207.5 -1.5 c 128,-1,2
 177 17 177 17 158.5 48 c 128,-1,3
 140 79 140 79 140 116 c 0,4,5
 140 170 140 170 180 208 c 128,-1,6
 220 246 220 246 282 252 c 1,7,-1
 272 284 l 1,8,9
 252 273 252 273 226 265 c 128,-1,10
 200 257 200 257 178 257 c 0,11,12
 142 257 142 257 113 275.5 c 128,-1,13
 84 294 84 294 67.5 324 c 128,-1,14
 51 354 51 354 51 390 c 0,15,16
 51 428 51 428 69.5 458.5 c 128,-1,17
 88 489 88 489 118 507 c 128,-1,18
 148 525 148 525 184 525 c 0,19,20
 225 525 225 525 263 495.5 c 128,-1,21
 301 466 301 466 318 426 c 1,22,-1
 344 446 l 1,23,24
 317 471 317 471 300.5 501.5 c 128,-1,25
 284 532 284 532 284 560 c 0,26,27
 284 598 284 598 302 628.5 c 128,-1,28
 320 659 320 659 350.5 677.5 c 128,-1,29
 381 696 381 696 418 696 c 256,30,31
 455 696 455 696 486 677.5 c 128,-1,32
 517 659 517 659 535.5 628 c 128,-1,33
 554 597 554 597 554 560 c 0,34,35
 554 532 554 532 537 500.5 c 128,-1,36
 520 469 520 469 494 446 c 1,37,-1
 520 426 l 1,38,39
 537 468 537 468 574.5 496.5 c 128,-1,40
 612 525 612 525 654 525 c 0,41,42
 690 525 690 525 720 507 c 128,-1,43
 750 489 750 489 768.5 458.5 c 128,-1,44
 787 428 787 428 787 390 c 0,45,46
 787 355 787 355 769.5 324.5 c 128,-1,47
 752 294 752 294 723.5 275.5 c 128,-1,48
 695 257 695 257 661 257 c 0,49,50
 616 257 616 257 566 284 c 1,51,-1
 556 252 l 1,52,53
 596 248 596 248 628 229.5 c 128,-1,54
 660 211 660 211 679 181.5 c 128,-1,55
 698 152 698 152 698 116 c 256,56,57
 698 80 698 80 679.5 49 c 128,-1,58
 661 18 661 18 630.5 -1 c 128,-1,59
 600 -20 600 -20 564 -20 c 0,60,61
 507 -20 507 -20 469 19.5 c 128,-1,62
 431 59 431 59 431 121 c 0,63,64
 431 144 431 144 436 164 c 1,65,-1
 402 164 l 1,66,67
 404 154 404 154 405.5 143 c 128,-1,68
 407 132 407 132 407 121 c 0,69,70
 407 60 407 60 369 20 c 128,-1,71
 331 -20 331 -20 274 -20 c 0,0,1
418 190 m 256,72,73
 452 190 452 190 480 207 c 128,-1,74
 508 224 508 224 525 252 c 128,-1,75
 542 280 542 280 542 314 c 256,76,77
 542 348 542 348 525 376 c 128,-1,78
 508 404 508 404 480 421 c 128,-1,79
 452 438 452 438 418 438 c 256,80,81
 384 438 384 438 356.5 421 c 128,-1,82
 329 404 329 404 312.5 376 c 128,-1,83
 296 348 296 348 296 314 c 256,84,85
 296 280 296 280 312.5 251.5 c 128,-1,86
 329 223 329 223 356.5 206.5 c 128,-1,87
 384 190 384 190 418 190 c 256,72,73
EndSplineSet
EndChar
StartChar: uni2740
Encoding: 10048 10048 370
Width: 906
Flags: W
LayerCount: 2
Fore
SplineSet
290 -48 m 0,0,1
 255 -48 255 -48 223 -28.5 c 128,-1,2
 191 -9 191 -9 171 22 c 128,-1,3
 151 53 151 53 151 86 c 0,4,5
 151 126 151 126 173 162.5 c 128,-1,6
 195 199 195 199 228.5 225.5 c 128,-1,7
 262 252 262 252 295 264 c 1,8,9
 261 254 261 254 225 254 c 0,10,11
 178 254 178 254 138.5 271 c 128,-1,12
 99 288 99 288 75 319.5 c 128,-1,13
 51 351 51 351 51 394 c 256,14,15
 51 437 51 437 69.5 469.5 c 128,-1,16
 88 502 88 502 119 520 c 128,-1,17
 150 538 150 538 187 538 c 0,18,19
 231 538 231 538 277.5 512.5 c 128,-1,20
 324 487 324 487 355 448 c 1,21,22
 338 473 338 473 325.5 509.5 c 128,-1,23
 313 546 313 546 313 586 c 256,24,25
 313 626 313 626 330.5 658.5 c 128,-1,26
 348 691 348 691 379 710.5 c 128,-1,27
 410 730 410 730 453 730 c 0,28,29
 515 730 515 730 553 688.5 c 128,-1,30
 591 647 591 647 591 586 c 0,31,32
 591 549 591 549 579.5 512.5 c 128,-1,33
 568 476 568 476 549 448 c 2,34,-1
 553 453 l 2,35,36
 585 493 585 493 628.5 515.5 c 128,-1,37
 672 538 672 538 719 538 c 0,38,39
 755 538 755 538 786 520.5 c 128,-1,40
 817 503 817 503 836 470.5 c 128,-1,41
 855 438 855 438 855 395 c 0,42,43
 855 350 855 350 829.5 318.5 c 128,-1,44
 804 287 804 287 764 270.5 c 128,-1,45
 724 254 724 254 680 254 c 0,46,47
 657 255 657 255 639 257.5 c 128,-1,48
 621 260 621 260 609 264 c 1,49,50
 644 252 644 252 677.5 225.5 c 128,-1,51
 711 199 711 199 733 162.5 c 128,-1,52
 755 126 755 126 755 84 c 0,53,54
 755 54 755 54 735.5 23.5 c 128,-1,55
 716 -7 716 -7 684 -27.5 c 128,-1,56
 652 -48 652 -48 615 -48 c 0,57,58
 566 -48 566 -48 529.5 -17.5 c 128,-1,59
 493 13 493 13 473 64 c 0,60,61
 462 90 462 90 457.5 111.5 c 128,-1,62
 453 133 453 133 453 150 c 1,63,64
 442 58 442 58 399.5 5 c 128,-1,65
 357 -48 357 -48 290 -48 c 0,0,1
397 432 m 1,66,-1
 429 444 l 1,67,68
 434 455 434 455 435.5 464.5 c 128,-1,69
 437 474 437 474 437 482 c 0,70,71
 437 492 437 492 433 507 c 128,-1,72
 429 522 429 522 429 530 c 0,73,74
 429 544 429 544 435 554 c 128,-1,75
 441 564 441 564 453 564 c 256,76,77
 465 564 465 564 471 554 c 128,-1,78
 477 544 477 544 477 530 c 0,79,80
 477 520 477 520 472 506 c 128,-1,81
 467 492 467 492 467 482 c 0,82,83
 467 465 467 465 475 444 c 1,84,-1
 507 432 l 1,85,86
 527 452 527 452 539 485.5 c 128,-1,87
 551 519 551 519 551 554 c 0,88,89
 551 601 551 601 523.5 629.5 c 128,-1,90
 496 658 496 658 453 658 c 256,91,92
 410 658 410 658 381.5 629.5 c 128,-1,93
 353 601 353 601 353 554 c 0,94,95
 353 519 353 519 365 485.5 c 128,-1,96
 377 452 377 452 397 432 c 1,66,-1
251 278 m 0,97,98
 292 278 292 278 321 294 c 1,99,-1
 321 328 l 1,100,101
 316 336 316 336 301 342 c 128,-1,102
 286 348 286 348 261 350 c 0,103,104
 212 355 212 355 212 380 c 0,105,106
 212 391 212 391 219.5 396 c 128,-1,107
 227 401 227 401 236 401 c 0,108,109
 242 401 242 401 252 397.5 c 128,-1,110
 262 394 262 394 276 386 c 0,111,112
 302 370 302 370 331 370 c 2,113,-1
 335 370 l 1,114,-1
 355 398 l 1,115,116
 345 418 345 418 323 438 c 128,-1,117
 301 458 301 458 272.5 471 c 128,-1,118
 244 484 244 484 215 484 c 0,119,120
 173 484 173 484 146.5 454 c 128,-1,121
 120 424 120 424 120 382 c 0,122,123
 120 337 120 337 156 307.5 c 128,-1,124
 192 278 192 278 251 278 c 0,97,98
654 278 m 0,125,126
 712 278 712 278 749 307.5 c 128,-1,127
 786 337 786 337 786 382 c 0,128,129
 786 426 786 426 758.5 455 c 128,-1,130
 731 484 731 484 690 484 c 0,131,132
 660 484 660 484 631 471 c 128,-1,133
 602 458 602 458 580 438 c 128,-1,134
 558 418 558 418 549 398 c 1,135,-1
 571 370 l 1,136,-1
 575 370 l 1,137,-1
 583 371 l 2,138,139
 595 372 595 372 607 375 c 128,-1,140
 619 378 619 378 631 386 c 0,141,142
 655 401 655 401 668 401 c 0,143,144
 692 401 692 401 692 379 c 0,145,146
 692 354 692 354 653 352 c 0,147,148
 613 350 613 350 585 328 c 1,149,-1
 583 294 l 1,150,151
 612 278 612 278 654 278 c 0,125,126
306 16 m 0,152,153
 340 16 340 16 366.5 41 c 128,-1,154
 393 66 393 66 408.5 101.5 c 128,-1,155
 424 137 424 137 424 168 c 2,156,-1
 424 178 l 1,157,-1
 423 186 l 1,158,-1
 391 196 l 1,159,160
 356 175 356 175 347 141 c 256,161,162
 338 107 338 107 314 107 c 0,163,164
 305 107 305 107 298.5 114.5 c 128,-1,165
 292 122 292 122 292 130 c 0,166,167
 292 150 292 150 318 168 c 256,168,169
 344 186 344 186 353 222 c 1,170,-1
 335 250 l 1,171,172
 308 245 308 245 277.5 226 c 128,-1,173
 247 207 247 207 225.5 177.5 c 128,-1,174
 204 148 204 148 204 114 c 0,175,176
 204 88 204 88 219 65.5 c 128,-1,177
 234 43 234 43 257 29.5 c 128,-1,178
 280 16 280 16 306 16 c 0,152,153
594 16 m 0,179,180
 620 16 620 16 643.5 30 c 128,-1,181
 667 44 667 44 681.5 66 c 128,-1,182
 696 88 696 88 696 114 c 0,183,184
 696 149 696 149 674.5 177.5 c 128,-1,185
 653 206 653 206 622.5 225 c 128,-1,186
 592 244 592 244 565 250 c 1,187,-1
 547 222 l 1,188,189
 551 205 551 205 559.5 191.5 c 128,-1,190
 568 178 568 178 581 168 c 0,191,192
 607 147 607 147 607 128 c 0,193,194
 607 120 607 120 600.5 113.5 c 128,-1,195
 594 107 594 107 586 107 c 0,196,197
 564 107 564 107 552 141 c 0,198,199
 541 172 541 172 509 196 c 1,200,-1
 477 186 l 1,201,-1
 476 178 l 1,202,-1
 476 168 l 2,203,204
 476 150 476 150 483.5 125.5 c 128,-1,205
 491 101 491 101 504.5 77.5 c 128,-1,206
 518 54 518 54 536 39 c 0,207,208
 564 16 564 16 594 16 c 0,179,180
EndSplineSet
EndChar
StartChar: uni2742
Encoding: 10050 10050 372
Width: 827
Flags: W
LayerCount: 2
Fore
SplineSet
413 0 m 256,0,1
 339 0 339 0 273.5 28 c 128,-1,2
 208 56 208 56 158 105.5 c 128,-1,3
 108 155 108 155 79.5 221 c 128,-1,4
 51 287 51 287 51 362 c 0,5,6
 51 436 51 436 79 501.5 c 128,-1,7
 107 567 107 567 157 617 c 128,-1,8
 207 667 207 667 272.5 695.5 c 128,-1,9
 338 724 338 724 413 724 c 256,10,11
 488 724 488 724 553.5 696 c 128,-1,12
 619 668 619 668 669 618 c 128,-1,13
 719 568 719 568 747.5 502.5 c 128,-1,14
 776 437 776 437 776 362 c 0,15,16
 776 285 776 285 747.5 219 c 128,-1,17
 719 153 719 153 669 104 c 128,-1,18
 619 55 619 55 553 27.5 c 128,-1,19
 487 0 487 0 413 0 c 256,0,1
349 551 m 1,20,21
 382 562 382 562 413 562 c 0,22,23
 442 562 442 562 477 551 c 1,24,-1
 413 699 l 1,25,-1
 349 551 l 1,20,21
233 450 m 1,26,27
 265 513 265 513 324 541 c 1,28,-1
 175 600 l 1,29,-1
 233 450 l 1,26,27
592 450 m 1,30,-1
 651 600 l 1,31,-1
 501 541 l 1,32,33
 561 513 561 513 592 450 c 1,30,-1
413 187 m 0,34,35
 461 187 461 187 500.5 211 c 128,-1,36
 540 235 540 235 564 275 c 128,-1,37
 588 315 588 315 588 362 c 256,38,39
 588 409 588 409 564 449 c 128,-1,40
 540 489 540 489 500.5 513 c 128,-1,41
 461 537 461 537 413 537 c 0,42,43
 364 537 364 537 324.5 513 c 128,-1,44
 285 489 285 489 261.5 449 c 128,-1,45
 238 409 238 409 238 362 c 256,46,47
 238 315 238 315 261.5 275 c 128,-1,48
 285 235 285 235 324.5 211 c 128,-1,49
 364 187 364 187 413 187 c 0,34,35
223 298 m 1,50,51
 213 324 213 324 213 362 c 0,52,53
 213 399 213 399 223 426 c 1,54,-1
 76 362 l 1,55,-1
 223 298 l 1,50,51
602 298 m 1,56,-1
 750 362 l 1,57,-1
 602 426 l 1,58,59
 613 393 613 393 613 362 c 256,60,61
 613 331 613 331 602 298 c 1,56,-1
175 124 m 1,62,-1
 324 182 l 1,63,64
 264 213 264 213 233 273 c 1,65,-1
 175 124 l 1,62,-1
651 124 m 1,66,-1
 592 273 l 1,67,68
 561 211 561 211 501 182 c 1,69,-1
 651 124 l 1,66,-1
413 25 m 1,70,-1
 477 172 l 1,71,72
 450 162 450 162 413 162 c 0,73,74
 378 162 378 162 349 172 c 1,75,-1
 413 25 l 1,70,-1
EndSplineSet
EndChar
StartChar: uni2750
Encoding: 10064 10064 383
Width: 828
Flags: W
LayerCount: 2
Fore
SplineSet
51 -48 m 1,0,-1
 51 580 l 1,1,-1
 151 580 l 1,2,-1
 151 676 l 1,3,-1
 777 676 l 1,4,-1
 777 50 l 1,5,-1
 681 50 l 1,6,-1
 681 -48 l 1,7,-1
 51 -48 l 1,0,-1
91 -6 m 1,8,-1
 641 -6 l 1,9,-1
 641 542 l 1,10,-1
 91 542 l 1,11,-1
 91 -6 l 1,8,-1
EndSplineSet
EndChar
StartChar: uni275A
Encoding: 10074 10074 388
Width: 486
Flags: W
LayerCount: 2
Fore
SplineSet
51 -92 m 1,0,-1
 51 792 l 1,1,-1
 435 792 l 1,2,-1
 435 -92 l 1,3,-1
 51 -92 l 1,0,-1
EndSplineSet
EndChar
StartChar: uni275C
Encoding: 10076 10076 390
Width: 446
Flags: W
LayerCount: 2
Fore
SplineSet
51 280 m 1,0,-1
 51 306 l 1,1,-1
 85 307 l 2,2,3
 135 307 135 307 187 323.5 c 128,-1,4
 239 340 239 340 267 376 c 0,5,6
 295 413 295 413 295 466 c 1,7,8
 284 454 284 454 257 446 c 128,-1,9
 230 438 230 438 199 438 c 0,10,11
 156 438 156 438 122.5 459 c 128,-1,12
 89 480 89 480 70 515.5 c 128,-1,13
 51 551 51 551 51 594 c 0,14,15
 51 667 51 667 97 713.5 c 128,-1,16
 143 760 143 760 219 760 c 0,17,18
 269 760 269 760 309 736.5 c 128,-1,19
 349 713 349 713 372 668.5 c 128,-1,20
 395 624 395 624 395 560 c 0,21,22
 395 497 395 497 370.5 441.5 c 128,-1,23
 346 386 346 386 305 349 c 0,24,25
 278 324 278 324 245 309 c 128,-1,26
 212 294 212 294 165.5 287 c 128,-1,27
 119 280 119 280 51 280 c 1,0,-1
EndSplineSet
EndChar
StartChar: uni275E
Encoding: 10078 10078 392
Width: 758
Flags: W
LayerCount: 2
Fore
SplineSet
73 280 m 1,0,-1
 53 308 l 1,1,2
 78 308 78 308 116.5 317.5 c 128,-1,3
 155 327 155 327 193.5 346.5 c 128,-1,4
 232 366 232 366 257 394 c 0,5,6
 295 435 295 435 295 466 c 1,7,8
 284 455 284 455 257 446.5 c 128,-1,9
 230 438 230 438 199 438 c 0,10,11
 156 438 156 438 122.5 459 c 128,-1,12
 89 480 89 480 70 515.5 c 128,-1,13
 51 551 51 551 51 594 c 0,14,15
 51 667 51 667 97 713.5 c 128,-1,16
 143 760 143 760 219 760 c 0,17,18
 272 760 272 760 313.5 734 c 128,-1,19
 355 708 355 708 375 662 c 1,20,21
 394 708 394 708 434 734 c 128,-1,22
 474 760 474 760 531 760 c 0,23,24
 581 760 581 760 621 736.5 c 128,-1,25
 661 713 661 713 684 668.5 c 128,-1,26
 707 624 707 624 707 560 c 0,27,28
 707 509 707 509 685 460.5 c 128,-1,29
 663 412 663 412 624.5 373.5 c 128,-1,30
 586 335 586 335 535 313 c 0,31,32
 458 280 458 280 385 280 c 1,33,-1
 365 308 l 1,34,35
 390 308 390 308 428.5 317.5 c 128,-1,36
 467 327 467 327 505.5 346.5 c 128,-1,37
 544 366 544 366 569 394 c 0,38,39
 607 435 607 435 607 466 c 1,40,41
 596 455 596 455 569 446.5 c 128,-1,42
 542 438 542 438 511 438 c 0,43,44
 431 438 431 438 389 504 c 1,45,46
 373 438 373 438 324 385 c 128,-1,47
 275 332 275 332 206 306 c 0,48,49
 136 280 136 280 73 280 c 1,0,-1
EndSplineSet
EndChar
StartChar: uni2761
Encoding: 10081 10081 395
Width: 748
Flags: W
LayerCount: 2
Fore
SplineSet
303 -144 m 0,0,1
 224 -144 224 -144 176.5 -104 c 128,-1,2
 129 -64 129 -64 129 4 c 0,3,4
 129 38 129 38 144 65 c 128,-1,5
 159 92 159 92 184.5 108 c 128,-1,6
 210 124 210 124 241 124 c 0,7,8
 284 124 284 124 309.5 101 c 128,-1,9
 335 78 335 78 335 38 c 0,10,11
 335 1 335 1 313.5 -19.5 c 128,-1,12
 292 -40 292 -40 273 -40 c 0,13,14
 243 -40 243 -40 229 -30 c 1,15,16
 229 -68 229 -68 251.5 -88 c 128,-1,17
 274 -108 274 -108 315 -108 c 0,18,19
 364 -108 364 -108 402 -78.5 c 128,-1,20
 440 -49 440 -49 461.5 14.5 c 128,-1,21
 483 78 483 78 483 182 c 2,22,-1
 483 225 l 1,23,-1
 448 223 l 1,24,-1
 333 218 l 2,25,26
 251 218 251 218 187.5 244 c 128,-1,27
 124 270 124 270 87.5 321.5 c 128,-1,28
 51 373 51 373 51 449 c 0,29,30
 51 522 51 522 85.5 571 c 128,-1,31
 120 620 120 620 177 645 c 128,-1,32
 234 670 234 670 301 670 c 2,33,-1
 483 670 l 1,34,-1
 483 696 l 2,35,36
 483 710 483 710 481 731 c 128,-1,37
 479 752 479 752 475 778 c 1,38,-1
 543 794 l 1,39,40
 542 784 542 784 539.5 753 c 128,-1,41
 537 722 537 722 533 670 c 1,42,-1
 697 670 l 1,43,-1
 689 616 l 1,44,45
 558 628 558 628 531 628 c 1,46,-1
 529 514 l 1,47,-1
 529 240 l 2,48,49
 529 142 529 142 520 75.5 c 128,-1,50
 511 9 511 9 490.5 -33.5 c 128,-1,51
 470 -76 470 -76 436 -103 c 0,52,53
 384 -144 384 -144 303 -144 c 0,0,1
483 261 m 1,54,-1
 483 628 l 1,55,-1
 393 628 l 1,56,57
 389 594 389 594 387 553 c 128,-1,58
 385 512 385 512 385 462 c 0,59,60
 385 366 385 366 397 278 c 1,61,62
 429 261 429 261 483 261 c 1,54,-1
EndSplineSet
EndChar
StartChar: uni2762
Encoding: 10082 10082 396
Width: 582
Flags: W
LayerCount: 2
Fore
SplineSet
291 -40 m 0,0,1
 248 -40 248 -40 211.5 -19 c 128,-1,2
 175 2 175 2 153 36.5 c 128,-1,3
 131 71 131 71 131 113 c 0,4,5
 131 151 131 151 149.5 184 c 128,-1,6
 168 217 168 217 200 238.5 c 128,-1,7
 232 260 232 260 272 265 c 1,8,-1
 272 272 l 2,9,10
 272 308 272 308 249.5 342 c 128,-1,11
 227 376 227 376 161 416 c 0,12,13
 117 442 117 442 93 467 c 128,-1,14
 69 492 69 492 60 520 c 128,-1,15
 51 548 51 548 51 584 c 0,16,17
 51 666 51 666 114.5 713 c 128,-1,18
 178 760 178 760 291 760 c 256,19,20
 404 760 404 760 467.5 713 c 128,-1,21
 531 666 531 666 531 584 c 0,22,23
 531 530 531 530 508.5 491.5 c 128,-1,24
 486 453 486 453 422 414 c 0,25,26
 357 374 357 374 334 339.5 c 128,-1,27
 311 305 311 305 311 272 c 2,28,-1
 311 265 l 1,29,30
 351 260 351 260 382.5 238.5 c 128,-1,31
 414 217 414 217 432.5 184 c 128,-1,32
 451 151 451 151 451 113 c 0,33,34
 451 70 451 70 429.5 35.5 c 128,-1,35
 408 1 408 1 371.5 -19.5 c 128,-1,36
 335 -40 335 -40 291 -40 c 0,0,1
EndSplineSet
EndChar
StartChar: uni2766
Encoding: 10086 10086 398
Width: 784
Flags: W
LayerCount: 2
Fore
SplineSet
401 318 m 1,0,-1
 391 340 l 1,1,-1
 420 397 l 2,2,3
 427 410 427 410 431 421.5 c 128,-1,4
 435 433 435 433 439 444 c 1,5,6
 376 465 376 465 327 508 c 2,7,-1
 289 542 l 2,8,9
 207 616 207 616 167 616 c 0,10,11
 105 616 105 616 105 556 c 0,12,13
 105 536 105 536 115 524 c 128,-1,14
 125 512 125 512 139 512 c 0,15,16
 150 512 150 512 156 514 c 128,-1,17
 162 516 162 516 173 524 c 1,18,19
 170 496 170 496 153.5 480 c 128,-1,20
 137 464 137 464 109 464 c 256,21,22
 81 464 81 464 66 485.5 c 128,-1,23
 51 507 51 507 51 536 c 0,24,25
 51 586 51 586 83 620 c 128,-1,26
 115 654 115 654 173 654 c 0,27,28
 236 654 236 654 343 568 c 1,29,30
 337 588 337 588 337 616 c 0,31,32
 337 645 337 645 357.5 665.5 c 128,-1,33
 378 686 378 686 413 686 c 0,34,35
 455 686 455 686 481 655 c 128,-1,36
 507 624 507 624 507 576 c 0,37,38
 507 538 507 538 483 478 c 1,39,40
 497 471 497 471 521.5 466.5 c 128,-1,41
 546 462 546 462 565 462 c 0,42,43
 604 462 604 462 622.5 478 c 128,-1,44
 641 494 641 494 641 516 c 0,45,46
 641 534 641 534 626 544 c 256,47,48
 611 554 611 554 611 578 c 0,49,50
 611 603 611 603 628 619.5 c 128,-1,51
 645 636 645 636 671 636 c 0,52,53
 698 636 698 636 715.5 615.5 c 128,-1,54
 733 595 733 595 733 566 c 0,55,56
 733 542 733 542 714 509 c 128,-1,57
 695 476 695 476 656 451 c 0,58,59
 616 426 616 426 559 426 c 0,60,61
 506 426 506 426 465 436 c 1,62,63
 448 392 448 392 401 318 c 1,0,-1
455 492 m 1,64,65
 460 512 460 512 462.5 530 c 128,-1,66
 465 548 465 548 465 564 c 0,67,68
 465 595 465 595 449.5 616.5 c 128,-1,69
 434 638 434 638 409 638 c 0,70,71
 386 638 386 638 374.5 626 c 128,-1,72
 363 614 363 614 363 594 c 0,73,74
 363 586 363 586 364 575 c 128,-1,75
 365 564 365 564 367 550 c 1,76,77
 391 529 391 529 414 516 c 2,78,-1
 455 492 l 1,64,65
465 -138 m 0,79,80
 417 -138 417 -138 363 -115.5 c 128,-1,81
 309 -93 309 -93 259.5 -53.5 c 128,-1,82
 210 -14 210 -14 177 38 c 0,83,84
 127 115 127 115 127 202 c 0,85,86
 127 260 127 260 144 307 c 128,-1,87
 161 354 161 354 193.5 382 c 128,-1,88
 226 410 226 410 273 410 c 0,89,90
 326 410 326 410 354 377.5 c 128,-1,91
 382 345 382 345 385 274 c 1,92,-1
 401 274 l 1,93,94
 414 324 414 324 450 354 c 128,-1,95
 486 384 486 384 539 384 c 0,96,97
 598 384 598 384 631.5 345 c 128,-1,98
 665 306 665 306 665 240 c 0,99,100
 665 205 665 205 641.5 166 c 128,-1,101
 618 127 618 127 558 88 c 0,102,103
 497 48 497 48 463 20.5 c 128,-1,104
 429 -7 429 -7 429 -44 c 0,105,106
 429 -68 429 -68 449 -85 c 128,-1,107
 469 -102 469 -102 493 -102 c 0,108,109
 520 -102 520 -102 535.5 -87.5 c 128,-1,110
 551 -73 551 -73 551 -50 c 0,111,112
 551 -31 551 -31 533 2 c 1,113,114
 551 38 551 38 581 38 c 0,115,116
 629 38 629 38 629 -14 c 0,117,118
 629 -64 629 -64 587 -101 c 128,-1,119
 545 -138 545 -138 465 -138 c 0,79,80
EndSplineSet
EndChar
StartChar: uni276F
Encoding: 10095 10095 86
Width: 553
Flags: W
LayerCount: 2
Fore
SplineSet
51 -74 m 1,0,-1
 310 362 l 1,1,-1
 51 798 l 1,2,-1
 250 798 l 1,3,-1
 502 362 l 1,4,-1
 249 -74 l 1,5,-1
 51 -74 l 1,0,-1
EndSplineSet
EndChar
StartChar: uni2771
Encoding: 10097 10097 85
Width: 494
Flags: W
LayerCount: 2
Fore
SplineSet
51 -74 m 1,0,-1
 171 364 l 1,1,-1
 51 798 l 1,2,-1
 313 798 l 1,3,-1
 443 364 l 1,4,-1
 313 -74 l 1,5,-1
 51 -74 l 1,0,-1
EndSplineSet
EndChar
StartChar: uni27A0
Encoding: 10144 10144 130
Width: 967
Flags: W
LayerCount: 2
Fore
SplineSet
636 22 m 1,0,-1
 636 152 l 1,1,-1
 455 152 l 1,2,-1
 455 448 l 1,3,-1
 635 448 l 1,4,-1
 635 578 l 1,5,-1
 653 578 l 1,6,7
 676 534 676 534 714.5 485.5 c 128,-1,8
 753 437 753 437 804.5 391 c 128,-1,9
 856 345 856 345 916 308 c 1,10,-1
 916 292 l 1,11,12
 829 237 829 237 759.5 165.5 c 128,-1,13
 690 94 690 94 654 22 c 1,14,-1
 636 22 l 1,0,-1
51 152 m 1,15,-1
 51 448 l 1,16,-1
 81 448 l 1,17,-1
 81 152 l 1,18,-1
 51 152 l 1,15,-1
148 152 m 1,19,-1
 148 448 l 1,20,-1
 191 448 l 1,21,-1
 191 152 l 1,22,-1
 148 152 l 1,19,-1
244 152 m 1,23,-1
 244 448 l 1,24,-1
 305 448 l 1,25,-1
 305 152 l 1,26,-1
 244 152 l 1,23,-1
347 152 m 1,27,-1
 347 448 l 1,28,-1
 429 448 l 1,29,-1
 429 152 l 1,30,-1
 347 152 l 1,27,-1
EndSplineSet
EndChar
StartChar: uni27A1
Encoding: 10145 10145 169
Width: 914
Flags: W
LayerCount: 2
Fore
SplineSet
615 26 m 1,0,-1
 615 150 l 1,1,-1
 51 150 l 1,2,-1
 51 450 l 1,3,-1
 615 450 l 1,4,-1
 615 574 l 1,5,-1
 863 300 l 1,6,-1
 615 26 l 1,0,-1
EndSplineSet
EndChar
StartChar: uni27AB
Encoding: 10155 10155 150
Width: 954
Flags: W
LayerCount: 2
Fore
SplineSet
401 3 m 1,0,-1
 401 100 l 1,1,-1
 51 100 l 1,2,-1
 51 237 l 1,3,-1
 247 419 l 1,4,-1
 659 419 l 1,5,-1
 701 498 l 1,6,-1
 903 313 l 1,7,-1
 903 193 l 1,8,-1
 401 3 l 1,0,-1
433 138 m 1,9,-1
 871 305 l 1,10,-1
 707 453 l 1,11,-1
 673 387 l 1,12,-1
 259 387 l 1,13,-1
 87 225 l 1,14,-1
 531 225 l 1,15,-1
 433 138 l 1,9,-1
EndSplineSet
EndChar
StartChar: uni27B7
Encoding: 10167 10167 163
Width: 926
Flags: W
LayerCount: 2
Fore
SplineSet
569 4 m 1,0,-1
 563 10 l 1,1,2
 579 32 579 32 602 57.5 c 128,-1,3
 625 83 625 83 647.5 103.5 c 128,-1,4
 670 124 670 124 687 132 c 1,5,-1
 483 264 l 1,6,7
 437 241 437 241 389.5 225 c 128,-1,8
 342 209 342 209 307 206 c 1,9,-1
 51 390 l 1,10,11
 119 482 119 482 213 482 c 0,12,13
 220 482 220 482 227.5 481.5 c 128,-1,14
 235 481 235 481 241 480 c 1,15,16
 221 515 221 515 221 560 c 0,17,18
 221 626 221 626 267 688 c 1,19,-1
 523 502 l 1,20,21
 527 486 527 486 529 467 c 128,-1,22
 531 448 531 448 531 425 c 0,23,24
 531 396 531 396 528.5 369 c 128,-1,25
 526 342 526 342 521 316 c 1,26,-1
 709 164 l 1,27,28
 712 182 712 182 724.5 209.5 c 128,-1,29
 737 237 737 237 754.5 265.5 c 128,-1,30
 772 294 772 294 789 318 c 1,31,-1
 795 314 l 1,32,33
 799 246 799 246 818.5 176.5 c 128,-1,34
 838 107 838 107 875 24 c 1,35,-1
 871 18 l 1,36,37
 826 24 826 24 737 24 c 0,38,39
 646 24 646 24 569 4 c 1,0,-1
EndSplineSet
EndChar
StartChar: uni27BB
Encoding: 10171 10171 165
Width: 952
Flags: W
LayerCount: 2
Fore
SplineSet
659 54 m 1,0,1
 589 100 589 100 589 174 c 0,2,3
 589 229 589 229 645 286 c 1,4,-1
 571 282 l 2,5,6
 524 280 524 280 487 261 c 128,-1,7
 450 242 450 242 403 202 c 256,8,9
 356 162 356 162 316 139 c 128,-1,10
 276 116 276 116 247 116 c 0,11,12
 210 116 210 116 181.5 128 c 128,-1,13
 153 140 153 140 136 170 c 0,14,15
 128 184 128 184 120.5 200.5 c 128,-1,16
 113 217 113 217 107 236 c 0,17,18
 100 260 100 260 91 271 c 128,-1,19
 82 282 82 282 67 288 c 0,20,21
 60 291 60 291 55.5 293 c 128,-1,22
 51 295 51 295 51 300 c 0,23,24
 51 312 51 312 67 313 c 0,25,26
 91 316 91 316 107 364 c 0,27,28
 119 401 119 401 136.5 430.5 c 128,-1,29
 154 460 154 460 182 472 c 256,30,31
 210 484 210 484 247 484 c 0,32,33
 280 484 280 484 322 459 c 128,-1,34
 364 434 364 434 413 391 c 256,35,36
 462 348 462 348 500.5 334 c 128,-1,37
 539 320 539 320 571 318 c 2,38,-1
 645 314 l 1,39,40
 589 373 589 373 589 426 c 0,41,42
 589 500 589 500 659 546 c 1,43,44
 680 496 680 496 709.5 454.5 c 128,-1,45
 739 413 739 413 785.5 375.5 c 128,-1,46
 832 338 832 338 901 300 c 1,47,48
 826 258 826 258 780 220 c 128,-1,49
 734 182 734 182 706 142 c 128,-1,50
 678 102 678 102 659 54 c 1,0,1
EndSplineSet
EndChar
StartChar: uni2803
Encoding: 10243 10243 525
Width: 700
Flags: W
LayerCount: 2
Fore
SplineSet
217 559 m 0,0,1
 187 559 187 559 169.5 577 c 128,-1,2
 152 595 152 595 152 629 c 0,3,4
 152 661 152 661 169 680 c 128,-1,5
 186 699 186 699 217 699 c 0,6,7
 246 699 246 699 263.5 681 c 128,-1,8
 281 663 281 663 281 629 c 0,9,10
 281 596 281 596 263.5 577.5 c 128,-1,11
 246 559 246 559 217 559 c 0,0,1
217 309 m 0,12,13
 187 309 187 309 169.5 327 c 128,-1,14
 152 345 152 345 152 379 c 0,15,16
 152 411 152 411 169 430 c 128,-1,17
 186 449 186 449 217 449 c 0,18,19
 246 449 246 449 263.5 431 c 128,-1,20
 281 413 281 413 281 379 c 0,21,22
 281 346 281 346 263.5 327.5 c 128,-1,23
 246 309 246 309 217 309 c 0,12,13
EndSplineSet
EndChar
StartChar: uni280A
Encoding: 10250 10250 685
Width: 700
Flags: W
LayerCount: 2
Fore
SplineSet
484 559 m 0,0,1
 454 559 454 559 436.5 577 c 128,-1,2
 419 595 419 595 419 629 c 0,3,4
 419 661 419 661 436 680 c 128,-1,5
 453 699 453 699 484 699 c 0,6,7
 512 699 512 699 530 681 c 128,-1,8
 548 663 548 663 548 629 c 0,9,10
 548 596 548 596 530.5 577.5 c 128,-1,11
 513 559 513 559 484 559 c 0,0,1
217 309 m 0,12,13
 187 309 187 309 169.5 327 c 128,-1,14
 152 345 152 345 152 379 c 0,15,16
 152 411 152 411 169 430 c 128,-1,17
 186 449 186 449 217 449 c 0,18,19
 246 449 246 449 263.5 431 c 128,-1,20
 281 413 281 413 281 379 c 0,21,22
 281 346 281 346 263.5 327.5 c 128,-1,23
 246 309 246 309 217 309 c 0,12,13
EndSplineSet
EndChar
StartChar: uni280B
Encoding: 10251 10251 558
Width: 700
Flags: W
LayerCount: 2
Fore
SplineSet
484 559 m 0,0,1
 454 559 454 559 436.5 577 c 128,-1,2
 419 595 419 595 419 629 c 0,3,4
 419 661 419 661 436 680 c 128,-1,5
 453 699 453 699 484 699 c 0,6,7
 512 699 512 699 530 681 c 128,-1,8
 548 663 548 663 548 629 c 0,9,10
 548 596 548 596 530.5 577.5 c 128,-1,11
 513 559 513 559 484 559 c 0,0,1
217 559 m 0,12,13
 187 559 187 559 169.5 577 c 128,-1,14
 152 595 152 595 152 629 c 0,15,16
 152 661 152 661 169 680 c 128,-1,17
 186 699 186 699 217 699 c 0,18,19
 246 699 246 699 263.5 681 c 128,-1,20
 281 663 281 663 281 629 c 0,21,22
 281 596 281 596 263.5 577.5 c 128,-1,23
 246 559 246 559 217 559 c 0,12,13
217 309 m 0,24,25
 187 309 187 309 169.5 327 c 128,-1,26
 152 345 152 345 152 379 c 0,27,28
 152 411 152 411 169 430 c 128,-1,29
 186 449 186 449 217 449 c 0,30,31
 246 449 246 449 263.5 431 c 128,-1,32
 281 413 281 413 281 379 c 0,33,34
 281 346 281 346 263.5 327.5 c 128,-1,35
 246 309 246 309 217 309 c 0,24,25
EndSplineSet
EndChar
StartChar: uni2812
Encoding: 10258 10258 701
Width: 700
Flags: W
LayerCount: 2
Fore
SplineSet
484 309 m 0,0,1
 454 309 454 309 436.5 327 c 128,-1,2
 419 345 419 345 419 379 c 0,3,4
 419 411 419 411 436 430 c 128,-1,5
 453 449 453 449 484 449 c 0,6,7
 512 449 512 449 530 431 c 128,-1,8
 548 413 548 413 548 379 c 0,9,10
 548 346 548 346 530.5 327.5 c 128,-1,11
 513 309 513 309 484 309 c 0,0,1
217 309 m 0,12,13
 187 309 187 309 169.5 327 c 128,-1,14
 152 345 152 345 152 379 c 0,15,16
 152 411 152 411 169 430 c 128,-1,17
 186 449 186 449 217 449 c 0,18,19
 246 449 246 449 263.5 431 c 128,-1,20
 281 413 281 413 281 379 c 0,21,22
 281 346 281 346 263.5 327.5 c 128,-1,23
 246 309 246 309 217 309 c 0,12,13
EndSplineSet
EndChar
StartChar: uni2820
Encoding: 10272 10272 772
Width: 700
Flags: W
LayerCount: 2
Fore
SplineSet
484 59 m 0,0,1
 454 59 454 59 436.5 77 c 128,-1,2
 419 95 419 95 419 129 c 0,3,4
 419 161 419 161 436 180 c 128,-1,5
 453 199 453 199 484 199 c 0,6,7
 512 199 512 199 530 181 c 128,-1,8
 548 163 548 163 548 129 c 0,9,10
 548 96 548 96 530.5 77.5 c 128,-1,11
 513 59 513 59 484 59 c 0,0,1
EndSplineSet
EndChar
StartChar: uni284A
Encoding: 10314 10314 698
Width: 700
Flags: W
LayerCount: 2
Fore
SplineSet
484 559 m 0,0,1
 454 559 454 559 436.5 577 c 128,-1,2
 419 595 419 595 419 629 c 0,3,4
 419 661 419 661 436 680 c 128,-1,5
 453 699 453 699 484 699 c 0,6,7
 512 699 512 699 530 681 c 128,-1,8
 548 663 548 663 548 629 c 0,9,10
 548 596 548 596 530.5 577.5 c 128,-1,11
 513 559 513 559 484 559 c 0,0,1
217 309 m 0,12,13
 187 309 187 309 169.5 327 c 128,-1,14
 152 345 152 345 152 379 c 0,15,16
 152 411 152 411 169 430 c 128,-1,17
 186 449 186 449 217 449 c 0,18,19
 246 449 246 449 263.5 431 c 128,-1,20
 281 413 281 413 281 379 c 0,21,22
 281 346 281 346 263.5 327.5 c 128,-1,23
 246 309 246 309 217 309 c 0,12,13
217 -191 m 0,24,25
 187 -191 187 -191 169.5 -173 c 128,-1,26
 152 -155 152 -155 152 -121 c 0,27,28
 152 -89 152 -89 169 -70 c 128,-1,29
 186 -51 186 -51 217 -51 c 0,30,31
 246 -51 246 -51 263.5 -69 c 128,-1,32
 281 -87 281 -87 281 -121 c 0,33,34
 281 -154 281 -154 263.5 -172.5 c 128,-1,35
 246 -191 246 -191 217 -191 c 0,24,25
EndSplineSet
EndChar
StartChar: uni2881
Encoding: 10369 10369 651
Width: 700
Flags: W
LayerCount: 2
Fore
SplineSet
217 559 m 0,0,1
 187 559 187 559 169.5 577 c 128,-1,2
 152 595 152 595 152 629 c 0,3,4
 152 661 152 661 169 680 c 128,-1,5
 186 699 186 699 217 699 c 0,6,7
 246 699 246 699 263.5 681 c 128,-1,8
 281 663 281 663 281 629 c 0,9,10
 281 596 281 596 263.5 577.5 c 128,-1,11
 246 559 246 559 217 559 c 0,0,1
484 -191 m 0,12,13
 454 -191 454 -191 436.5 -173 c 128,-1,14
 419 -155 419 -155 419 -121 c 0,15,16
 419 -89 419 -89 436 -70 c 128,-1,17
 453 -51 453 -51 484 -51 c 0,18,19
 512 -51 512 -51 530 -69 c 128,-1,20
 548 -87 548 -87 548 -121 c 0,21,22
 548 -154 548 -154 530.5 -172.5 c 128,-1,23
 513 -191 513 -191 484 -191 c 0,12,13
EndSplineSet
EndChar
StartChar: uni2890
Encoding: 10384 10384 771
Width: 700
Flags: W
LayerCount: 2
Fore
SplineSet
484 309 m 0,0,1
 454 309 454 309 436.5 327 c 128,-1,2
 419 345 419 345 419 379 c 0,3,4
 419 411 419 411 436 430 c 128,-1,5
 453 449 453 449 484 449 c 0,6,7
 512 449 512 449 530 431 c 128,-1,8
 548 413 548 413 548 379 c 0,9,10
 548 346 548 346 530.5 327.5 c 128,-1,11
 513 309 513 309 484 309 c 0,0,1
484 -191 m 0,12,13
 454 -191 454 -191 436.5 -173 c 128,-1,14
 419 -155 419 -155 419 -121 c 0,15,16
 419 -89 419 -89 436 -70 c 128,-1,17
 453 -51 453 -51 484 -51 c 0,18,19
 512 -51 512 -51 530 -69 c 128,-1,20
 548 -87 548 -87 548 -121 c 0,21,22
 548 -154 548 -154 530.5 -172.5 c 128,-1,23
 513 -191 513 -191 484 -191 c 0,12,13
EndSplineSet
EndChar
StartChar: uni28A4
Encoding: 10404 10404 744
Width: 700
Flags: W
LayerCount: 2
Fore
SplineSet
484 59 m 0,0,1
 454 59 454 59 436.5 77 c 128,-1,2
 419 95 419 95 419 129 c 0,3,4
 419 161 419 161 436 180 c 128,-1,5
 453 199 453 199 484 199 c 0,6,7
 512 199 512 199 530 181 c 128,-1,8
 548 163 548 163 548 129 c 0,9,10
 548 96 548 96 530.5 77.5 c 128,-1,11
 513 59 513 59 484 59 c 0,0,1
217 59 m 0,12,13
 187 59 187 59 169.5 77 c 128,-1,14
 152 95 152 95 152 129 c 0,15,16
 152 161 152 161 169 180 c 128,-1,17
 186 199 186 199 217 199 c 0,18,19
 246 199 246 199 263.5 181 c 128,-1,20
 281 163 281 163 281 129 c 0,21,22
 281 96 281 96 263.5 77.5 c 128,-1,23
 246 59 246 59 217 59 c 0,12,13
484 -191 m 0,24,25
 454 -191 454 -191 436.5 -173 c 128,-1,26
 419 -155 419 -155 419 -121 c 0,27,28
 419 -89 419 -89 436 -70 c 128,-1,29
 453 -51 453 -51 484 -51 c 0,30,31
 512 -51 512 -51 530 -69 c 128,-1,32
 548 -87 548 -87 548 -121 c 0,33,34
 548 -154 548 -154 530.5 -172.5 c 128,-1,35
 513 -191 513 -191 484 -191 c 0,24,25
EndSplineSet
EndChar
StartChar: uni28A6
Encoding: 10406 10406 681
Width: 700
Flags: W
LayerCount: 2
Fore
SplineSet
217 309 m 0,0,1
 187 309 187 309 169.5 327 c 128,-1,2
 152 345 152 345 152 379 c 0,3,4
 152 411 152 411 169 430 c 128,-1,5
 186 449 186 449 217 449 c 0,6,7
 246 449 246 449 263.5 431 c 128,-1,8
 281 413 281 413 281 379 c 0,9,10
 281 346 281 346 263.5 327.5 c 128,-1,11
 246 309 246 309 217 309 c 0,0,1
484 59 m 0,12,13
 454 59 454 59 436.5 77 c 128,-1,14
 419 95 419 95 419 129 c 0,15,16
 419 161 419 161 436 180 c 128,-1,17
 453 199 453 199 484 199 c 0,18,19
 512 199 512 199 530 181 c 128,-1,20
 548 163 548 163 548 129 c 0,21,22
 548 96 548 96 530.5 77.5 c 128,-1,23
 513 59 513 59 484 59 c 0,12,13
217 59 m 0,24,25
 187 59 187 59 169.5 77 c 128,-1,26
 152 95 152 95 152 129 c 0,27,28
 152 161 152 161 169 180 c 128,-1,29
 186 199 186 199 217 199 c 0,30,31
 246 199 246 199 263.5 181 c 128,-1,32
 281 163 281 163 281 129 c 0,33,34
 281 96 281 96 263.5 77.5 c 128,-1,35
 246 59 246 59 217 59 c 0,24,25
484 -191 m 0,36,37
 454 -191 454 -191 436.5 -173 c 128,-1,38
 419 -155 419 -155 419 -121 c 0,39,40
 419 -89 419 -89 436 -70 c 128,-1,41
 453 -51 453 -51 484 -51 c 0,42,43
 512 -51 512 -51 530 -69 c 128,-1,44
 548 -87 548 -87 548 -121 c 0,45,46
 548 -154 548 -154 530.5 -172.5 c 128,-1,47
 513 -191 513 -191 484 -191 c 0,36,37
EndSplineSet
EndChar
StartChar: uni28BC
Encoding: 10428 10428 722
Width: 700
Flags: W
LayerCount: 2
Fore
SplineSet
484 559 m 0,0,1
 454 559 454 559 436.5 577 c 128,-1,2
 419 595 419 595 419 629 c 0,3,4
 419 661 419 661 436 680 c 128,-1,5
 453 699 453 699 484 699 c 0,6,7
 512 699 512 699 530 681 c 128,-1,8
 548 663 548 663 548 629 c 0,9,10
 548 596 548 596 530.5 577.5 c 128,-1,11
 513 559 513 559 484 559 c 0,0,1
484 309 m 0,12,13
 454 309 454 309 436.5 327 c 128,-1,14
 419 345 419 345 419 379 c 0,15,16
 419 411 419 411 436 430 c 128,-1,17
 453 449 453 449 484 449 c 0,18,19
 512 449 512 449 530 431 c 128,-1,20
 548 413 548 413 548 379 c 0,21,22
 548 346 548 346 530.5 327.5 c 128,-1,23
 513 309 513 309 484 309 c 0,12,13
217 59 m 0,24,25
 187 59 187 59 169.5 77 c 128,-1,26
 152 95 152 95 152 129 c 0,27,28
 152 161 152 161 169 180 c 128,-1,29
 186 199 186 199 217 199 c 0,30,31
 246 199 246 199 263.5 181 c 128,-1,32
 281 163 281 163 281 129 c 0,33,34
 281 96 281 96 263.5 77.5 c 128,-1,35
 246 59 246 59 217 59 c 0,24,25
484 59 m 0,36,37
 454 59 454 59 436.5 77 c 128,-1,38
 419 95 419 95 419 129 c 0,39,40
 419 161 419 161 436 180 c 128,-1,41
 453 199 453 199 484 199 c 0,42,43
 512 199 512 199 530 181 c 128,-1,44
 548 163 548 163 548 129 c 0,45,46
 548 96 548 96 530.5 77.5 c 128,-1,47
 513 59 513 59 484 59 c 0,36,37
484 -191 m 0,48,49
 454 -191 454 -191 436.5 -173 c 128,-1,50
 419 -155 419 -155 419 -121 c 0,51,52
 419 -89 419 -89 436 -70 c 128,-1,53
 453 -51 453 -51 484 -51 c 0,54,55
 512 -51 512 -51 530 -69 c 128,-1,56
 548 -87 548 -87 548 -121 c 0,57,58
 548 -154 548 -154 530.5 -172.5 c 128,-1,59
 513 -191 513 -191 484 -191 c 0,48,49
EndSplineSet
EndChar
StartChar: uni28CC
Encoding: 10444 10444 731
Width: 700
Flags: W
LayerCount: 2
Fore
SplineSet
484 559 m 0,0,1
 454 559 454 559 436.5 577 c 128,-1,2
 419 595 419 595 419 629 c 0,3,4
 419 661 419 661 436 680 c 128,-1,5
 453 699 453 699 484 699 c 0,6,7
 512 699 512 699 530 681 c 128,-1,8
 548 663 548 663 548 629 c 0,9,10
 548 596 548 596 530.5 577.5 c 128,-1,11
 513 559 513 559 484 559 c 0,0,1
217 59 m 0,12,13
 187 59 187 59 169.5 77 c 128,-1,14
 152 95 152 95 152 129 c 0,15,16
 152 161 152 161 169 180 c 128,-1,17
 186 199 186 199 217 199 c 0,18,19
 246 199 246 199 263.5 181 c 128,-1,20
 281 163 281 163 281 129 c 0,21,22
 281 96 281 96 263.5 77.5 c 128,-1,23
 246 59 246 59 217 59 c 0,12,13
217 -191 m 0,24,25
 187 -191 187 -191 169.5 -173 c 128,-1,26
 152 -155 152 -155 152 -121 c 0,27,28
 152 -89 152 -89 169 -70 c 128,-1,29
 186 -51 186 -51 217 -51 c 0,30,31
 246 -51 246 -51 263.5 -69 c 128,-1,32
 281 -87 281 -87 281 -121 c 0,33,34
 281 -154 281 -154 263.5 -172.5 c 128,-1,35
 246 -191 246 -191 217 -191 c 0,24,25
484 -191 m 0,36,37
 454 -191 454 -191 436.5 -173 c 128,-1,38
 419 -155 419 -155 419 -121 c 0,39,40
 419 -89 419 -89 436 -70 c 128,-1,41
 453 -51 453 -51 484 -51 c 0,42,43
 512 -51 512 -51 530 -69 c 128,-1,44
 548 -87 548 -87 548 -121 c 0,45,46
 548 -154 548 -154 530.5 -172.5 c 128,-1,47
 513 -191 513 -191 484 -191 c 0,36,37
EndSplineSet
EndChar
StartChar: uni29BF
Encoding: 10687 10687 102
Width: 894
Flags: W
LayerCount: 2
Fore
SplineSet
447 -34 m 256,0,1
 365 -34 365 -34 293.5 -3.5 c 128,-1,2
 222 27 222 27 167.5 81.5 c 128,-1,3
 113 136 113 136 82 208 c 128,-1,4
 51 280 51 280 51 362 c 256,5,6
 51 444 51 444 82 516 c 128,-1,7
 113 588 113 588 167.5 642.5 c 128,-1,8
 222 697 222 697 293.5 727.5 c 128,-1,9
 365 758 365 758 447 758 c 256,10,11
 529 758 529 758 601 727.5 c 128,-1,12
 673 697 673 697 727.5 642.5 c 128,-1,13
 782 588 782 588 812.5 516 c 128,-1,14
 843 444 843 444 843 362 c 256,15,16
 843 280 843 280 812.5 208 c 128,-1,17
 782 136 782 136 727.5 81.5 c 128,-1,18
 673 27 673 27 601 -3.5 c 128,-1,19
 529 -34 529 -34 447 -34 c 256,0,1
447 35 m 256,20,21
 515 35 515 35 574 60.5 c 128,-1,22
 633 86 633 86 678 131 c 128,-1,23
 723 176 723 176 748.5 235 c 128,-1,24
 774 294 774 294 774 362 c 256,25,26
 774 430 774 430 748.5 489 c 128,-1,27
 723 548 723 548 678 593 c 128,-1,28
 633 638 633 638 574 663.5 c 128,-1,29
 515 689 515 689 447 689 c 256,30,31
 379 689 379 689 320 663.5 c 128,-1,32
 261 638 261 638 216 593 c 128,-1,33
 171 548 171 548 145.5 489 c 128,-1,34
 120 430 120 430 120 362 c 256,35,36
 120 294 120 294 145.5 235 c 128,-1,37
 171 176 171 176 216 131 c 128,-1,38
 261 86 261 86 320 60.5 c 128,-1,39
 379 35 379 35 447 35 c 256,20,21
447 157 m 256,40,41
 390 157 390 157 343.5 184.5 c 128,-1,42
 297 212 297 212 269.5 259 c 128,-1,43
 242 306 242 306 242 362 c 0,44,45
 242 419 242 419 269.5 465.5 c 128,-1,46
 297 512 297 512 343.5 539.5 c 128,-1,47
 390 567 390 567 447 567 c 256,48,49
 504 567 504 567 550.5 539.5 c 128,-1,50
 597 512 597 512 624.5 465.5 c 128,-1,51
 652 419 652 419 652 362 c 0,52,53
 652 306 652 306 624.5 259 c 128,-1,54
 597 212 597 212 550.5 184.5 c 128,-1,55
 504 157 504 157 447 157 c 256,40,41
EndSplineSet
EndChar
StartChar: uni2B00
Encoding: 11008 11008 105
Width: 696
Flags: W
LayerCount: 2
Fore
SplineSet
231 6 m 1,0,-1
 51 186 l 1,1,-1
 357 492 l 1,2,-1
 249 600 l 1,3,-1
 645 600 l 1,4,-1
 645 204 l 1,5,-1
 537 312 l 1,6,-1
 231 6 l 1,0,-1
231 48 m 1,7,-1
 537 355 l 1,8,-1
 615 277 l 1,9,-1
 615 570 l 1,10,-1
 322 570 l 1,11,-1
 400 492 l 1,12,-1
 93 186 l 1,13,-1
 231 48 l 1,7,-1
EndSplineSet
EndChar
StartChar: uni2B03
Encoding: 11011 11011 109
Width: 696
Flags: W
LayerCount: 2
Fore
SplineSet
51 6 m 1,0,-1
 51 402 l 1,1,-1
 159 294 l 1,2,-1
 465 600 l 1,3,-1
 645 420 l 1,4,-1
 339 114 l 1,5,-1
 447 6 l 1,6,-1
 51 6 l 1,0,-1
81 36 m 1,7,-1
 374 36 l 1,8,-1
 296 114 l 1,9,-1
 603 420 l 1,10,-1
 465 558 l 1,11,-1
 159 251 l 1,12,-1
 81 329 l 1,13,-1
 81 36 l 1,7,-1
EndSplineSet
EndChar
StartChar: uni2B19
Encoding: 11033 11033 205
Width: 703
Flags: W
LayerCount: 2
Fore
SplineSet
353 63 m 1,0,-1
 51 362 l 1,1,-1
 353 661 l 1,2,-1
 652 362 l 1,3,-1
 353 63 l 1,0,-1
106 362 m 1,4,-1
 601 362 l 1,5,-1
 353 609 l 1,6,-1
 106 362 l 1,4,-1
EndSplineSet
EndChar
StartChar: uni2B1C
Encoding: 11036 11036 1220
Width: 1022
Flags: W
LayerCount: 2
Fore
SplineSet
51 -98 m 1,0,-1
 51 822 l 1,1,-1
 971 822 l 1,2,-1
 971 -98 l 1,3,-1
 51 -98 l 1,0,-1
88 -61 m 1,4,-1
 934 -61 l 1,5,-1
 934 785 l 1,6,-1
 88 785 l 1,7,-1
 88 -61 l 1,4,-1
EndSplineSet
EndChar
StartChar: uni2B1D
Encoding: 11037 11037 481
Width: 284
Flags: W
LayerCount: 2
Fore
SplineSet
51 271 m 1,0,-1
 51 453 l 1,1,-1
 233 453 l 1,2,-1
 233 271 l 1,3,-1
 51 271 l 1,0,-1
EndSplineSet
EndChar
StartChar: uni2B1E
Encoding: 11038 11038 1234
Width: 284
Flags: W
LayerCount: 2
Fore
SplineSet
51 271 m 1,0,-1
 51 453 l 1,1,-1
 233 453 l 1,2,-1
 233 271 l 1,3,-1
 51 271 l 1,0,-1
88 308 m 1,4,-1
 196 308 l 1,5,-1
 196 416 l 1,6,-1
 88 416 l 1,7,-1
 88 308 l 1,4,-1
EndSplineSet
EndChar
StartChar: uni2B1F
Encoding: 11039 11039 456
Width: 872
Flags: W
LayerCount: 2
Fore
SplineSet
192 12 m 1,0,-1
 51 471 l 1,1,-1
 436 787 l 1,2,-1
 821 471 l 1,3,-1
 680 12 l 1,4,-1
 192 12 l 1,0,-1
EndSplineSet
EndChar
StartChar: uni2B24
Encoding: 11044 11044 437
Width: 1114
Flags: W
LayerCount: 2
Fore
SplineSet
557 -144 m 256,0,1
 452 -144 452 -144 360.5 -104.5 c 128,-1,2
 269 -65 269 -65 199.5 4.5 c 128,-1,3
 130 74 130 74 90.5 165.5 c 128,-1,4
 51 257 51 257 51 362 c 256,5,6
 51 467 51 467 90.5 558.5 c 128,-1,7
 130 650 130 650 199.5 719.5 c 128,-1,8
 269 789 269 789 360.5 828.5 c 128,-1,9
 452 868 452 868 557 868 c 256,10,11
 662 868 662 868 753.5 828.5 c 128,-1,12
 845 789 845 789 914.5 719.5 c 128,-1,13
 984 650 984 650 1023.5 558.5 c 128,-1,14
 1063 467 1063 467 1063 362 c 256,15,16
 1063 257 1063 257 1023.5 165.5 c 128,-1,17
 984 74 984 74 914.5 4.5 c 128,-1,18
 845 -65 845 -65 753.5 -104.5 c 128,-1,19
 662 -144 662 -144 557 -144 c 256,0,1
EndSplineSet
EndChar
StartChar: uni2B26
Encoding: 11046 11046 1222
Width: 847
Flags: W
LayerCount: 2
Fore
SplineSet
424 -11 m 1,0,-1
 51 362 l 1,1,-1
 424 734 l 1,2,-1
 796 362 l 1,3,-1
 424 -11 l 1,0,-1
424 81 m 1,4,-1
 704 362 l 1,5,-1
 424 642 l 1,6,-1
 143 362 l 1,7,-1
 424 81 l 1,4,-1
EndSplineSet
EndChar
StartChar: uni2B2A
Encoding: 11050 11050 468
Width: 316
Flags: W
LayerCount: 2
Fore
SplineSet
158 182 m 1,0,-1
 51 363 l 1,1,-1
 158 542 l 1,2,-1
 265 363 l 1,3,-1
 158 182 l 1,0,-1
EndSplineSet
EndChar
StartChar: uni2B2B
Encoding: 11051 11051 1227
Width: 316
Flags: W
LayerCount: 2
Fore
SplineSet
158 182 m 1,0,-1
 51 363 l 1,1,-1
 158 542 l 1,2,-1
 265 363 l 1,3,-1
 158 182 l 1,0,-1
158 256 m 1,4,-1
 221 363 l 1,5,-1
 158 469 l 1,6,-1
 95 363 l 1,7,-1
 158 256 l 1,4,-1
EndSplineSet
EndChar
StartChar: uni2B2C
Encoding: 11052 11052 436
Width: 878
Flags: W
LayerCount: 2
Fore
SplineSet
439 129 m 0,0,1
 326 129 326 129 238.5 158 c 128,-1,2
 151 187 151 187 101 239.5 c 128,-1,3
 51 292 51 292 51 362 c 256,4,5
 51 432 51 432 100.5 485 c 128,-1,6
 150 538 150 538 237 567 c 128,-1,7
 324 596 324 596 439 596 c 0,8,9
 552 596 552 596 639.5 567 c 128,-1,10
 727 538 727 538 777 485.5 c 128,-1,11
 827 433 827 433 827 362 c 0,12,13
 827 314 827 314 796 271.5 c 128,-1,14
 765 229 765 229 710.5 197 c 128,-1,15
 656 165 656 165 586.5 147 c 128,-1,16
 517 129 517 129 439 129 c 0,0,1
EndSplineSet
EndChar
StartChar: uni2B2F
Encoding: 11055 11055 1233
Width: 555
Flags: W
LayerCount: 2
Fore
SplineSet
278 -3 m 0,0,1
 208 -3 208 -3 157 43.5 c 128,-1,2
 106 90 106 90 78.5 172.5 c 128,-1,3
 51 255 51 255 51 362 c 0,4,5
 51 470 51 470 78.5 552 c 128,-1,6
 106 634 106 634 157 680.5 c 128,-1,7
 208 727 208 727 278 727 c 256,8,9
 348 727 348 727 399 680 c 128,-1,10
 450 633 450 633 477 550.5 c 128,-1,11
 504 468 504 468 504 362 c 0,12,13
 504 255 504 255 476 172.5 c 128,-1,14
 448 90 448 90 397.5 43.5 c 128,-1,15
 347 -3 347 -3 278 -3 c 0,0,1
278 40 m 0,16,17
 333 40 333 40 374.5 80.5 c 128,-1,18
 416 121 416 121 439 193.5 c 128,-1,19
 462 266 462 266 462 362 c 0,20,21
 462 457 462 457 439.5 529.5 c 128,-1,22
 417 602 417 602 375.5 643 c 128,-1,23
 334 684 334 684 278 684 c 256,24,25
 222 684 222 684 180.5 643.5 c 128,-1,26
 139 603 139 603 116.5 530.5 c 128,-1,27
 94 458 94 458 94 362 c 256,28,29
 94 266 94 266 116.5 193.5 c 128,-1,30
 139 121 139 121 180.5 80.5 c 128,-1,31
 222 40 222 40 278 40 c 0,16,17
EndSplineSet
EndChar
StartChar: uni2B54
Encoding: 11092 11092 1226
Width: 877
Flags: W
LayerCount: 2
Fore
SplineSet
510 -23 m 1,0,-1
 51 118 l 1,1,-1
 51 606 l 1,2,-1
 510 747 l 1,3,-1
 826 362 l 1,4,-1
 510 -23 l 1,0,-1
495 34 m 1,5,-1
 759 362 l 1,6,-1
 495 690 l 1,7,-1
 99 569 l 1,8,-1
 99 155 l 1,9,-1
 495 34 l 1,5,-1
EndSplineSet
EndChar
StartChar: uni2B57
Encoding: 11095 11095 847
Width: 894
Flags: W
LayerCount: 2
Fore
SplineSet
447 -34 m 256,0,1
 365 -34 365 -34 293.5 -3.5 c 128,-1,2
 222 27 222 27 167.5 81.5 c 128,-1,3
 113 136 113 136 82 208 c 128,-1,4
 51 280 51 280 51 362 c 256,5,6
 51 444 51 444 82 516 c 128,-1,7
 113 588 113 588 167.5 642.5 c 128,-1,8
 222 697 222 697 293.5 727.5 c 128,-1,9
 365 758 365 758 447 758 c 256,10,11
 529 758 529 758 601 727.5 c 128,-1,12
 673 697 673 697 727.5 642.5 c 128,-1,13
 782 588 782 588 812.5 516 c 128,-1,14
 843 444 843 444 843 362 c 256,15,16
 843 280 843 280 812.5 208 c 128,-1,17
 782 136 782 136 727.5 81.5 c 128,-1,18
 673 27 673 27 601 -3.5 c 128,-1,19
 529 -34 529 -34 447 -34 c 256,0,1
447 85 m 0,20,21
 504 85 504 85 554.5 106.5 c 128,-1,22
 605 128 605 128 643 166 c 128,-1,23
 681 204 681 204 702.5 254 c 128,-1,24
 724 304 724 304 724 362 c 0,25,26
 724 419 724 419 702.5 469.5 c 128,-1,27
 681 520 681 520 643 558 c 128,-1,28
 605 596 605 596 554.5 617.5 c 128,-1,29
 504 639 504 639 447 639 c 0,30,31
 389 639 389 639 339 617.5 c 128,-1,32
 289 596 289 596 251 558 c 128,-1,33
 213 520 213 520 191.5 469.5 c 128,-1,34
 170 419 170 419 170 362 c 0,35,36
 170 304 170 304 191.5 254 c 128,-1,37
 213 204 213 204 251 166 c 128,-1,38
 289 128 289 128 339 106.5 c 128,-1,39
 389 85 389 85 447 85 c 0,20,21
447 133 m 0,40,41
 384 133 384 133 332 164 c 128,-1,42
 280 195 280 195 249 246.5 c 128,-1,43
 218 298 218 298 218 362 c 256,44,45
 218 426 218 426 249 478 c 128,-1,46
 280 530 280 530 332 561 c 128,-1,47
 384 592 384 592 447 592 c 0,48,49
 511 592 511 592 563 561 c 128,-1,50
 615 530 615 530 646 478 c 128,-1,51
 677 426 677 426 677 362 c 256,52,53
 677 298 677 298 646 246.5 c 128,-1,54
 615 195 615 195 563 164 c 128,-1,55
 511 133 511 133 447 133 c 0,40,41
447 202 m 256,56,57
 492 202 492 202 528.5 223.5 c 128,-1,58
 565 245 565 245 586.5 281.5 c 128,-1,59
 608 318 608 318 608 362 c 256,60,61
 608 406 608 406 586.5 443 c 128,-1,62
 565 480 565 480 528.5 501.5 c 128,-1,63
 492 523 492 523 447 523 c 256,64,65
 402 523 402 523 366 501.5 c 128,-1,66
 330 480 330 480 308.5 443 c 128,-1,67
 287 406 287 406 287 362 c 256,68,69
 287 318 287 318 308.5 281.5 c 128,-1,70
 330 245 330 245 366 223.5 c 128,-1,71
 402 202 402 202 447 202 c 256,56,57
EndSplineSet
EndChar
StartChar: uni2B5B
Encoding: 11099 11099 407
Width: 801
Flags: W
LayerCount: 2
Fore
SplineSet
660 -221 m 1,0,1
 606 -152 606 -152 516 -89 c 1,2,-1
 506 -54 l 1,3,4
 540 -68 540 -68 567.5 -82 c 128,-1,5
 595 -96 595 -96 615 -110 c 1,6,-1
 457 479 l 2,7,8
 432 574 432 574 385 618.5 c 128,-1,9
 338 663 338 663 251 663 c 2,10,-1
 239 663 l 2,11,12
 99 663 99 663 99 559 c 0,13,14
 99 542 99 542 102.5 522 c 128,-1,15
 106 502 106 502 112 479 c 2,16,-1
 142 365 l 1,17,-1
 94 365 l 1,18,-1
 63 479 l 2,19,20
 56 503 56 503 53.5 524.5 c 128,-1,21
 51 546 51 546 51 565 c 0,22,23
 51 638 51 638 100 675 c 128,-1,24
 149 712 149 712 236 712 c 2,25,-1
 248 712 l 2,26,27
 357 712 357 712 416 653.5 c 128,-1,28
 475 595 475 595 506 479 c 2,29,-1
 663 -109 l 1,30,31
 676 -96 676 -96 695.5 -82 c 128,-1,32
 715 -68 715 -68 741 -54 c 1,33,-1
 750 -89 l 1,34,35
 693 -154 693 -154 677 -221 c 1,36,-1
 660 -221 l 1,0,1
EndSplineSet
EndChar
StartChar: uni2B5C
Encoding: 11100 11100 1104
Width: 636
Flags: W
LayerCount: 2
Fore
SplineSet
51 -49 m 1,0,-1
 51 -7 l 1,1,-1
 226 -7 l 1,2,-1
 463 647 l 1,3,4
 423 634 423 634 353 626 c 1,5,-1
 365 659 l 1,6,7
 455 692 455 692 512 746 c 1,8,-1
 529 740 l 1,9,10
 538 662 538 662 585 579 c 1,11,-1
 573 546 l 1,12,13
 524 597 524 597 502 633 c 1,14,-1
 255 -49 l 1,15,-1
 51 -49 l 1,0,-1
EndSplineSet
EndChar
StartChar: uni2B5E
Encoding: 11102 11102 419
Width: 725
Flags: W
LayerCount: 2
Fore
SplineSet
51 -28 m 1,0,-1
 268 701 l 1,1,-1
 311 701 l 1,2,-1
 115 35 l 1,3,-1
 505 158 l 1,4,-1
 470 252 l 1,5,-1
 674 200 l 1,6,-1
 553 25 l 1,7,-1
 519 118 l 1,8,-1
 51 -28 l 1,0,-1
EndSplineSet
EndChar
StartChar: uni2B5F
Encoding: 11103 11103 1091
Width: 725
Flags: W
LayerCount: 2
Fore
SplineSet
51 -28 m 1,0,-1
 173 383 l 1,1,-1
 217 383 l 1,2,-1
 115 35 l 1,3,-1
 505 158 l 1,4,-1
 470 252 l 1,5,-1
 674 200 l 1,6,-1
 553 25 l 1,7,-1
 519 118 l 1,8,-1
 51 -28 l 1,0,-1
EndSplineSet
EndChar
StartChar: uni2B60
Encoding: 11104 11104 919
Width: 754
Flags: W
LayerCount: 2
Fore
SplineSet
249 222 m 1,0,-1
 51 346 l 1,1,-1
 249 470 l 1,2,-1
 249 397 l 1,3,-1
 703 397 l 1,4,-1
 703 293 l 1,5,-1
 249 293 l 1,6,-1
 249 222 l 1,0,-1
EndSplineSet
EndChar
StartChar: uni2B61
Encoding: 11105 11105 1181
Width: 350
Flags: W
LayerCount: 2
Fore
SplineSet
123 27 m 1,0,-1
 123 481 l 1,1,-1
 51 481 l 1,2,-1
 175 679 l 1,3,-1
 299 481 l 1,4,-1
 227 481 l 1,5,-1
 227 27 l 1,6,-1
 123 27 l 1,0,-1
EndSplineSet
EndChar
StartChar: uni2B63
Encoding: 11107 11107 792
Width: 350
Flags: W
LayerCount: 2
Fore
SplineSet
175 27 m 1,0,-1
 51 225 l 1,1,-1
 123 225 l 1,2,-1
 123 679 l 1,3,-1
 227 679 l 1,4,-1
 227 225 l 1,5,-1
 299 225 l 1,6,-1
 175 27 l 1,0,-1
EndSplineSet
EndChar
StartChar: uni2B64
Encoding: 11108 11108 913
Width: 844
Flags: W
LayerCount: 2
Fore
SplineSet
249 222 m 1,0,-1
 51 346 l 1,1,-1
 249 470 l 1,2,-1
 249 397 l 1,3,-1
 595 397 l 1,4,-1
 595 470 l 1,5,-1
 793 346 l 1,6,-1
 595 222 l 1,7,-1
 595 293 l 1,8,-1
 249 293 l 1,9,-1
 249 222 l 1,0,-1
EndSplineSet
EndChar
StartChar: uni2B65
Encoding: 11109 11109 1172
Width: 350
Flags: W
LayerCount: 2
Fore
SplineSet
175 27 m 1,0,-1
 51 225 l 1,1,-1
 123 225 l 1,2,-1
 123 571 l 1,3,-1
 51 571 l 1,4,-1
 175 769 l 1,5,-1
 299 571 l 1,6,-1
 227 571 l 1,7,-1
 227 225 l 1,8,-1
 299 225 l 1,9,-1
 175 27 l 1,0,-1
EndSplineSet
EndChar
StartChar: uni2B66
Encoding: 11110 11110 988
Width: 600
Flags: W
LayerCount: 2
Fore
SplineSet
476 85 m 1,0,-1
 154 407 l 1,1,-1
 104 356 l 1,2,-1
 51 583 l 1,3,-1
 279 531 l 1,4,-1
 228 480 l 1,5,-1
 549 159 l 1,6,-1
 476 85 l 1,0,-1
EndSplineSet
EndChar
StartChar: uni2B6B
Encoding: 11115 11115 1192
Width: 350
Flags: W
LayerCount: 2
Fore
SplineSet
124 414 m 1,0,-1
 124 481 l 1,1,-1
 51 481 l 1,2,-1
 175 679 l 1,3,-1
 299 481 l 1,4,-1
 228 481 l 1,5,-1
 228 414 l 1,6,-1
 124 414 l 1,0,-1
124 285 m 1,7,-1
 124 370 l 1,8,-1
 228 370 l 1,9,-1
 228 285 l 1,10,-1
 124 285 l 1,7,-1
124 156 m 1,11,-1
 124 241 l 1,12,-1
 228 241 l 1,13,-1
 228 156 l 1,14,-1
 124 156 l 1,11,-1
124 27 m 1,15,-1
 124 112 l 1,16,-1
 228 112 l 1,17,-1
 228 27 l 1,18,-1
 124 27 l 1,15,-1
EndSplineSet
EndChar
StartChar: uni2B6C
Encoding: 11116 11116 1073
Width: 754
Flags: W
LayerCount: 2
Fore
SplineSet
505 222 m 1,0,-1
 505 293 l 1,1,-1
 438 293 l 1,2,-1
 438 397 l 1,3,-1
 505 397 l 1,4,-1
 505 470 l 1,5,-1
 703 346 l 1,6,-1
 505 222 l 1,0,-1
51 293 m 1,7,-1
 51 397 l 1,8,-1
 136 397 l 1,9,-1
 136 293 l 1,10,-1
 51 293 l 1,7,-1
180 293 m 1,11,-1
 180 397 l 1,12,-1
 265 397 l 1,13,-1
 265 293 l 1,14,-1
 180 293 l 1,11,-1
309 293 m 1,15,-1
 309 397 l 1,16,-1
 394 397 l 1,17,-1
 394 293 l 1,18,-1
 309 293 l 1,15,-1
EndSplineSet
EndChar
StartChar: uni2B6D
Encoding: 11117 11117 803
Width: 350
Flags: W
LayerCount: 2
Fore
SplineSet
124 594 m 1,0,-1
 124 679 l 1,1,-1
 228 679 l 1,2,-1
 228 594 l 1,3,-1
 124 594 l 1,0,-1
124 465 m 1,4,-1
 124 550 l 1,5,-1
 228 550 l 1,6,-1
 228 465 l 1,7,-1
 124 465 l 1,4,-1
124 336 m 1,8,-1
 124 421 l 1,9,-1
 228 421 l 1,10,-1
 228 336 l 1,11,-1
 124 336 l 1,8,-1
175 27 m 1,12,-1
 51 225 l 1,13,-1
 124 225 l 1,14,-1
 124 292 l 1,15,-1
 228 292 l 1,16,-1
 228 225 l 1,17,-1
 299 225 l 1,18,-1
 175 27 l 1,12,-1
EndSplineSet
EndChar
StartChar: uni2B7F
Encoding: 11135 11135 1133
Width: 644
Flags: W
LayerCount: 2
Fore
SplineSet
176 155 m 1,0,-1
 51 353 l 1,1,-1
 124 353 l 1,2,-1
 124 687 l 1,3,-1
 228 687 l 1,4,-1
 228 353 l 1,5,-1
 300 353 l 1,6,-1
 176 155 l 1,0,-1
344 590 m 1,7,-1
 344 687 l 1,8,-1
 593 687 l 1,9,-1
 593 590 l 1,10,-1
 344 590 l 1,7,-1
417 34 m 1,11,-1
 417 368 l 1,12,-1
 344 368 l 1,13,-1
 468 566 l 1,14,-1
 593 368 l 1,15,-1
 521 368 l 1,16,-1
 521 34 l 1,17,-1
 417 34 l 1,11,-1
51 34 m 1,18,-1
 51 130 l 1,19,-1
 300 130 l 1,20,-1
 300 34 l 1,21,-1
 51 34 l 1,18,-1
EndSplineSet
EndChar
StartChar: uni2B82
Encoding: 11138 11138 1075
Width: 754
Flags: W
LayerCount: 2
Fore
SplineSet
505 383 m 1,0,-1
 505 455 l 1,1,-1
 51 455 l 1,2,-1
 51 559 l 1,3,-1
 505 559 l 1,4,-1
 505 631 l 1,5,-1
 703 507 l 1,6,-1
 505 383 l 1,0,-1
249 90 m 1,7,-1
 51 214 l 1,8,-1
 249 338 l 1,9,-1
 249 266 l 1,10,-1
 703 266 l 1,11,-1
 703 162 l 1,12,-1
 249 162 l 1,13,-1
 249 90 l 1,7,-1
EndSplineSet
EndChar
StartChar: uni2B85
Encoding: 11141 11141 1197
Width: 643
Flags: W
LayerCount: 2
Fore
SplineSet
416 42 m 1,0,-1
 416 496 l 1,1,-1
 344 496 l 1,2,-1
 468 694 l 1,3,-1
 592 496 l 1,4,-1
 520 496 l 1,5,-1
 520 42 l 1,6,-1
 416 42 l 1,0,-1
123 42 m 1,7,-1
 123 496 l 1,8,-1
 51 496 l 1,9,-1
 175 694 l 1,10,-1
 299 496 l 1,11,-1
 227 496 l 1,12,-1
 227 42 l 1,13,-1
 123 42 l 1,7,-1
EndSplineSet
EndChar
StartChar: uni2B8C
Encoding: 11148 11148 404
Width: 801
Flags: W
LayerCount: 2
Fore
SplineSet
262 0 m 1,0,-1
 262 69 l 1,1,-1
 426 69 l 2,2,3
 550 69 550 69 615 124 c 128,-1,4
 680 179 680 179 680 286 c 256,5,6
 680 393 680 393 615 448 c 128,-1,7
 550 503 550 503 426 503 c 2,8,-1
 262 503 l 1,9,-1
 262 377 l 1,10,-1
 51 538 l 1,11,-1
 262 699 l 1,12,-1
 262 572 l 1,13,-1
 426 572 l 2,14,15
 576 572 576 572 663 498.5 c 128,-1,16
 750 425 750 425 750 286 c 256,17,18
 750 147 750 147 663 73.5 c 128,-1,19
 576 0 576 0 426 0 c 2,20,-1
 262 0 l 1,0,-1
EndSplineSet
EndChar
StartChar: uni2B8D
Encoding: 11149 11149 401
Width: 801
Flags: W
LayerCount: 2
Fore
SplineSet
337 0 m 256,0,1
 198 0 198 0 124.5 87 c 128,-1,2
 51 174 51 174 51 324 c 2,3,-1
 51 488 l 1,4,-1
 120 488 l 1,5,-1
 120 324 l 2,6,7
 120 200 120 200 175 135 c 128,-1,8
 230 70 230 70 337 70 c 256,9,10
 444 70 444 70 499 135 c 128,-1,11
 554 200 554 200 554 324 c 2,12,-1
 554 488 l 1,13,-1
 428 488 l 1,14,-1
 589 699 l 1,15,-1
 750 488 l 1,16,-1
 623 488 l 1,17,-1
 623 324 l 2,18,19
 623 174 623 174 549.5 87 c 128,-1,20
 476 0 476 0 337 0 c 256,0,1
EndSplineSet
EndChar
StartChar: uni2B8E
Encoding: 11150 11150 402
Width: 801
Flags: W
LayerCount: 2
Fore
SplineSet
375 0 m 2,0,1
 225 0 225 0 138 73.5 c 128,-1,2
 51 147 51 147 51 286 c 256,3,4
 51 425 51 425 138 498.5 c 128,-1,5
 225 572 225 572 375 572 c 2,6,-1
 539 572 l 1,7,-1
 539 503 l 1,8,-1
 375 503 l 2,9,10
 251 503 251 503 186 448 c 128,-1,11
 121 393 121 393 121 286 c 256,12,13
 121 179 121 179 186 124 c 128,-1,14
 251 69 251 69 375 69 c 2,15,-1
 539 69 l 1,16,-1
 539 195 l 1,17,-1
 750 34 l 1,18,-1
 539 -127 l 1,19,-1
 539 0 l 1,20,-1
 375 0 l 2,0,1
EndSplineSet
EndChar
StartChar: uni2B91
Encoding: 11153 11153 1024
Width: 900
Flags: W
LayerCount: 2
Fore
SplineSet
651 69 m 1,0,-1
 651 156 l 1,1,-1
 197 156 l 1,2,-1
 51 610 l 1,3,-1
 407 610 l 1,4,-1
 407 506 l 1,5,-1
 206 506 l 1,6,-1
 286 259 l 1,7,-1
 651 259 l 1,8,-1
 651 346 l 1,9,-1
 849 208 l 1,10,-1
 651 69 l 1,0,-1
EndSplineSet
EndChar
StartChar: uni2B92
Encoding: 11154 11154 976
Width: 772
Flags: W
LayerCount: 2
Fore
SplineSet
438 69 m 1,0,-1
 240 208 l 1,1,-1
 438 346 l 1,2,-1
 438 259 l 1,3,-1
 617 259 l 1,4,-1
 617 506 l 1,5,-1
 530 506 l 1,6,-1
 530 610 l 1,7,-1
 721 610 l 1,8,-1
 721 156 l 1,9,-1
 438 156 l 1,10,-1
 438 69 l 1,0,-1
51 506 m 1,11,-1
 51 610 l 1,12,-1
 445 610 l 1,13,-1
 445 506 l 1,14,-1
 51 506 l 1,11,-1
51 156 m 1,15,-1
 51 259 l 1,16,-1
 201 259 l 1,17,-1
 201 156 l 1,18,-1
 51 156 l 1,15,-1
EndSplineSet
EndChar
StartChar: uni2B9C
Encoding: 11164 11164 440
Width: 745
Flags: W
LayerCount: 2
Fore
SplineSet
694 -35 m 1,0,-1
 51 342 l 1,1,-1
 694 718 l 1,2,-1
 520 342 l 1,3,-1
 694 -35 l 1,0,-1
EndSplineSet
EndChar
StartChar: uni2BA5
Encoding: 11173 11173 1068
Width: 643
Flags: W
LayerCount: 2
Fore
SplineSet
51 43 m 1,0,-1
 51 142 l 1,1,-1
 402 142 l 1,2,-1
 402 498 l 1,3,-1
 315 498 l 1,4,-1
 454 696 l 1,5,-1
 592 498 l 1,6,-1
 506 498 l 1,7,-1
 506 43 l 1,8,-1
 51 43 l 1,0,-1
EndSplineSet
EndChar
StartChar: uni2BA6
Encoding: 11174 11174 924
Width: 643
Flags: W
LayerCount: 2
Fore
SplineSet
190 -54 m 1,0,-1
 51 144 l 1,1,-1
 138 144 l 1,2,-1
 138 598 l 1,3,-1
 592 598 l 1,4,-1
 592 500 l 1,5,-1
 242 500 l 1,6,-1
 242 144 l 1,7,-1
 329 144 l 1,8,-1
 190 -54 l 1,0,-1
EndSplineSet
EndChar
StartChar: uni2BAB
Encoding: 11179 11179 427
Width: 974
Flags: W
LayerCount: 2
Fore
SplineSet
51 54 m 1,0,-1
 51 274 l 2,1,2
 51 333 51 333 64 368.5 c 128,-1,3
 77 404 77 404 117.5 420 c 128,-1,4
 158 436 158 436 241 436 c 2,5,-1
 638 436 l 1,6,-1
 638 532 l 1,7,-1
 923 322 l 1,8,-1
 638 112 l 1,9,-1
 638 208 l 1,10,-1
 237 208 l 2,11,12
 191 208 191 208 166 194.5 c 128,-1,13
 141 181 141 181 131 147.5 c 128,-1,14
 121 114 121 114 121 54 c 1,15,-1
 51 54 l 1,0,-1
EndSplineSet
EndChar
StartChar: uni2BAD
Encoding: 11181 11181 425
Width: 580
Flags: W
LayerCount: 2
Fore
SplineSet
51 -109 m 1,0,-1
 51 -39 l 1,1,2
 111 -39 111 -39 144.5 -29 c 128,-1,3
 178 -19 178 -19 191.5 6 c 128,-1,4
 205 31 205 31 205 77 c 2,5,-1
 205 478 l 1,6,-1
 109 478 l 1,7,-1
 319 763 l 1,8,-1
 529 478 l 1,9,-1
 433 478 l 1,10,-1
 433 81 l 2,11,12
 433 -2 433 -2 417 -42.5 c 128,-1,13
 401 -83 401 -83 365.5 -96 c 128,-1,14
 330 -109 330 -109 271 -109 c 2,15,-1
 51 -109 l 1,0,-1
EndSplineSet
EndChar
StartChar: uni2BB1
Encoding: 11185 11185 1031
Width: 783
Flags: W
LayerCount: 2
Fore
SplineSet
454 -22 m 1,0,-1
 454 113 l 1,1,-1
 433 113 l 2,2,3
 400 113 400 113 372.5 126 c 128,-1,4
 345 139 345 139 320 163 c 2,5,-1
 123 357 l 2,6,7
 93 387 93 387 77.5 411 c 128,-1,8
 62 435 62 435 56.5 462.5 c 128,-1,9
 51 490 51 490 51 529 c 2,10,-1
 51 778 l 1,11,-1
 184 661 l 1,12,-1
 318 778 l 1,13,-1
 318 384 l 1,14,-1
 454 384 l 1,15,-1
 454 519 l 1,16,-1
 732 249 l 1,17,-1
 454 -22 l 1,0,-1
137 384 m 1,18,-1
 289 384 l 1,19,-1
 289 714 l 1,20,-1
 184 622 l 1,21,-1
 80 713 l 1,22,-1
 80 529 l 2,23,24
 80 494 80 494 84 471.5 c 128,-1,25
 88 449 88 449 100 429 c 128,-1,26
 112 409 112 409 137 384 c 1,18,-1
483 47 m 1,27,-1
 690 249 l 1,28,-1
 483 450 l 1,29,-1
 483 355 l 1,30,-1
 167 355 l 1,31,-1
 341 184 l 2,32,33
 363 162 363 162 384.5 152 c 128,-1,34
 406 142 406 142 433 142 c 2,35,-1
 483 142 l 1,36,-1
 483 47 l 1,27,-1
EndSplineSet
EndChar
StartChar: uni2BB9
Encoding: 11193 11193 1168
Width: 1076
Flags: W
LayerCount: 2
Fore
SplineSet
51 0 m 1,0,-1
 51 694 l 1,1,-1
 1025 694 l 1,2,-1
 1025 0 l 1,3,-1
 51 0 l 1,0,-1
123 71 m 1,4,-1
 953 71 l 1,5,-1
 953 623 l 1,6,-1
 123 623 l 1,7,-1
 123 71 l 1,4,-1
282 182 m 1,8,-1
 229 232 l 1,9,-1
 538 536 l 1,10,-1
 847 232 l 1,11,-1
 794 182 l 1,12,-1
 538 431 l 1,13,-1
 282 182 l 1,8,-1
EndSplineSet
EndChar
StartChar: uni2BC0
Encoding: 11200 11200 470
Width: 850
Flags: W
LayerCount: 2
Fore
SplineSet
126 63 m 1,0,-1
 126 661 l 1,1,-1
 724 661 l 1,2,-1
 724 63 l 1,3,-1
 126 63 l 1,0,-1
EndSplineSet
EndChar
StartChar: uni2BC1
Encoding: 11201 11201 428
Width: 850
Flags: W
LayerCount: 2
Fore
SplineSet
426 -61 m 1,0,-1
 3 362 l 1,1,-1
 426 785 l 1,2,-1
 848 362 l 1,3,-1
 426 -61 l 1,0,-1
EndSplineSet
EndChar
StartChar: uni2BC7
Encoding: 11207 11207 446
Width: 850
Flags: W
LayerCount: 2
Fore
SplineSet
709 28 m 1,0,-1
 141 349 l 1,1,-1
 709 670 l 1,2,-1
 709 28 l 1,0,-1
EndSplineSet
EndChar
StartChar: uni2BCA
Encoding: 11210 11210 1150
Width: 894
Flags: W
LayerCount: 2
Fore
SplineSet
51 362 m 1,0,1
 51 444 51 444 81.5 516 c 128,-1,2
 112 588 112 588 166.5 642.5 c 128,-1,3
 221 697 221 697 292.5 727.5 c 128,-1,4
 364 758 364 758 447 758 c 256,5,6
 530 758 530 758 601.5 727.5 c 128,-1,7
 673 697 673 697 727.5 642.5 c 128,-1,8
 782 588 782 588 812.5 516 c 128,-1,9
 843 444 843 444 843 362 c 1,10,-1
 51 362 l 1,0,1
EndSplineSet
EndChar
StartChar: uni2BCD
Encoding: 11213 11213 1079
Width: 895
Flags: W
LayerCount: 2
Fore
SplineSet
148 0 m 1,0,1
 252 151 252 151 252 300 c 256,2,3
 252 449 252 449 148 598 c 1,4,5
 297 495 297 495 447 495 c 256,6,7
 597 495 597 495 746 598 c 1,8,9
 643 450 643 450 643 300 c 0,10,11
 643 149 643 149 747 0 c 1,12,13
 598 104 598 104 448 104 c 0,14,15
 297 104 297 104 148 0 c 1,0,1
EndSplineSet
EndChar
StartChar: uni2BCE
Encoding: 11214 11214 1216
Width: 895
Flags: W
LayerCount: 2
Fore
SplineSet
438 -49 m 1,0,1
 366 263 366 263 56 333 c 1,2,-1
 56 351 l 1,3,4
 368 421 368 421 438 733 c 1,5,-1
 457 733 l 1,6,7
 528 421 528 421 839 352 c 1,8,-1
 839 333 l 1,9,10
 526 263 526 263 457 -49 c 1,11,-1
 438 -49 l 1,0,1
447 103 m 1,12,13
 525 265 525 265 686 342 c 1,14,15
 525 420 525 420 447 581 c 1,16,17
 371 421 371 421 208 342 c 1,18,19
 369 264 369 264 447 103 c 1,12,13
EndSplineSet
EndChar
StartChar: uni2BD1
Encoding: 11217 11217 1162
Width: 916
Flags: W
LayerCount: 2
Fore
SplineSet
458 -81 m 1,0,-1
 35 342 l 1,1,-1
 458 765 l 1,2,-1
 881 342 l 1,3,-1
 458 -81 l 1,0,-1
458 -29 m 1,4,-1
 829 342 l 1,5,-1
 458 713 l 1,6,-1
 88 342 l 1,7,-1
 458 -29 l 1,4,-1
431 229 m 1,8,-1
 431 246 l 2,9,10
 431 284 431 284 443 305 c 128,-1,11
 455 326 455 326 488 355 c 256,12,13
 521 384 521 384 532 401 c 128,-1,14
 543 418 543 418 543 441 c 0,15,16
 543 503 543 503 469 503 c 0,17,18
 425 503 425 503 371 477 c 1,19,-1
 352 520 l 1,20,21
 409 550 409 550 473 550 c 0,22,23
 532 550 532 550 563.5 521 c 128,-1,24
 595 492 595 492 595 442 c 0,25,26
 595 410 595 410 581 386.5 c 128,-1,27
 567 363 567 363 533 335 c 256,28,29
 499 307 499 307 486 288.5 c 128,-1,30
 473 270 473 270 473 239 c 2,31,-1
 473 229 l 1,32,-1
 431 229 l 1,8,-1
454 97 m 0,33,34
 416 97 416 97 416 139 c 0,35,36
 416 180 416 180 454 180 c 256,37,38
 492 180 492 180 492 139 c 0,39,40
 492 116 492 116 481 106.5 c 128,-1,41
 470 97 470 97 454 97 c 0,33,34
EndSplineSet
EndChar
StartChar: uni2BED
Encoding: 11245 11245 1981
Width: 684
Flags: W
LayerCount: 2
Fore
SplineSet
49 457 m 1,0,-1
 342 781 l 1,1,-1
 635 457 l 1,2,-1
 49 457 l 1,0,-1
49 132 m 1,3,-1
 342 456 l 1,4,-1
 635 132 l 1,5,-1
 381 132 l 1,6,-1
 381 -30 l 1,7,-1
 303 -30 l 1,8,-1
 303 132 l 1,9,-1
 49 132 l 1,3,-1
EndSplineSet
EndChar
StartChar: uni4DF2
Encoding: 19954 19954 56
Width: 1043
Flags: W
LayerCount: 2
Fore
SplineSet
98 770 m 1,0,-1
 98 847 l 1,1,-1
 410 847 l 1,2,-1
 410 770 l 1,3,-1
 98 770 l 1,0,-1
633 770 m 1,4,-1
 633 847 l 1,5,-1
 945 847 l 1,6,-1
 945 770 l 1,7,-1
 633 770 l 1,4,-1
98 616 m 1,8,-1
 98 693 l 1,9,-1
 410 693 l 1,10,-1
 410 616 l 1,11,-1
 98 616 l 1,8,-1
633 616 m 1,12,-1
 633 693 l 1,13,-1
 945 693 l 1,14,-1
 945 616 l 1,15,-1
 633 616 l 1,12,-1
98 462 m 1,16,-1
 98 539 l 1,17,-1
 945 539 l 1,18,-1
 945 462 l 1,19,-1
 98 462 l 1,16,-1
98 308 m 1,20,-1
 98 385 l 1,21,-1
 410 385 l 1,22,-1
 410 308 l 1,23,-1
 98 308 l 1,20,-1
633 308 m 1,24,-1
 633 385 l 1,25,-1
 945 385 l 1,26,-1
 945 308 l 1,27,-1
 633 308 l 1,24,-1
98 154 m 1,28,-1
 98 231 l 1,29,-1
 410 231 l 1,30,-1
 410 154 l 1,31,-1
 98 154 l 1,28,-1
633 154 m 1,32,-1
 633 231 l 1,33,-1
 945 231 l 1,34,-1
 945 154 l 1,35,-1
 633 154 l 1,32,-1
98 0 m 1,36,-1
 98 77 l 1,37,-1
 945 77 l 1,38,-1
 945 0 l 1,39,-1
 98 0 l 1,36,-1
EndSplineSet
EndChar
StartChar: u10149
Encoding: 65865 65865 1832
Width: 636
Flags: W
LayerCount: 2
Fore
SplineSet
275 -252 m 1,0,-1
 275 0 l 1,1,-1
 8 0 l 1,2,-1
 282 714 l 1,3,-1
 354 714 l 1,4,-1
 628 0 l 1,5,-1
 361 0 l 1,6,-1
 361 -252 l 1,7,-1
 275 -252 l 1,0,-1
125 79 m 1,8,-1
 511 79 l 1,9,-1
 318 580 l 1,10,-1
 125 79 l 1,8,-1
EndSplineSet
EndChar
StartChar: u1014B
Encoding: 65867 65867 1834
Width: 760
Flags: W
LayerCount: 2
Fore
SplineSet
97 0 m 1,0,-1
 97 714 l 1,1,-1
 187 714 l 1,2,-1
 187 412 l 1,3,-1
 573 412 l 1,4,-1
 573 714 l 1,5,-1
 663 714 l 1,6,-1
 663 0 l 1,7,-1
 573 0 l 1,8,-1
 573 333 l 1,9,-1
 425 333 l 1,10,-1
 425 0 l 1,11,-1
 335 0 l 1,12,-1
 335 333 l 1,13,-1
 187 333 l 1,14,-1
 187 0 l 1,15,-1
 97 0 l 1,0,-1
EndSplineSet
EndChar
StartChar: u10154
Encoding: 65876 65876 1843
Width: 586
Flags: W
LayerCount: 2
Fore
SplineSet
4 0 m 1,0,-1
 241 372 l 1,1,-1
 19 714 l 1,2,-1
 119 714 l 1,3,-1
 294 434 l 1,4,-1
 470 714 l 1,5,-1
 565 714 l 1,6,-1
 344 374 l 1,7,-1
 582 0 l 1,8,-1
 480 0 l 1,9,-1
 291 310 l 1,10,-1
 99 0 l 1,11,-1
 4 0 l 1,0,-1
379 -292 m 1,12,-1
 194 -259 l 1,13,-1
 194 -239 l 1,14,-1
 271 -153 l 1,15,-1
 188 -73 l 1,16,-1
 188 -53 l 1,17,-1
 379 -22 l 1,18,-1
 379 -64 l 1,19,-1
 259 -84 l 1,20,-1
 329 -149 l 1,21,-1
 257 -229 l 1,22,-1
 379 -250 l 1,23,-1
 379 -292 l 1,12,-1
EndSplineSet
EndChar
StartChar: u10157
Encoding: 65879 65879 1846
Width: 446
Flags: W
LayerCount: 2
Fore
SplineSet
71 395 m 1,0,-1
 197 714 l 1,1,-1
 249 714 l 1,2,-1
 375 395 l 1,3,-1
 71 395 l 1,0,-1
146 443 m 1,4,-1
 300 443 l 1,5,-1
 223 651 l 1,6,-1
 146 443 l 1,4,-1
24 0 m 1,7,-1
 38 358 l 1,8,-1
 105 358 l 1,9,-1
 223 108 l 1,10,-1
 341 358 l 1,11,-1
 408 358 l 1,12,-1
 422 0 l 1,13,-1
 367 0 l 1,14,-1
 359 287 l 1,15,-1
 223 0 l 1,16,-1
 87 287 l 1,17,-1
 79 0 l 1,18,-1
 24 0 l 1,7,-1
EndSplineSet
EndChar
StartChar: u1015C
Encoding: 65884 65884 1851
Width: 584
Flags: W
LayerCount: 2
Fore
SplineSet
102 -52 m 1,0,-1
 35 0 l 1,1,-1
 364 391 l 1,2,-1
 90 630 l 1,3,-1
 90 714 l 1,4,-1
 558 714 l 1,5,-1
 558 635 l 1,6,-1
 219 635 l 1,7,-1
 484 404 l 1,8,-1
 102 -52 l 1,0,-1
EndSplineSet
EndChar
StartChar: u1015D
Encoding: 65885 65885 1852
Width: 654
Flags: W
LayerCount: 2
Fore
SplineSet
97 0 m 1,0,-1
 97 714 l 1,1,-1
 604 714 l 1,2,-1
 604 635 l 1,3,-1
 187 635 l 1,4,-1
 187 79 l 1,5,-1
 604 79 l 1,6,-1
 604 0 l 1,7,-1
 97 0 l 1,0,-1
EndSplineSet
EndChar
StartChar: u10161
Encoding: 65889 65889 1856
Width: 636
Flags: W
LayerCount: 2
Fore
SplineSet
15 0 m 1,0,-1
 271 357 l 1,1,-1
 15 714 l 1,2,-1
 621 714 l 1,3,-1
 365 357 l 1,4,-1
 621 0 l 1,5,-1
 15 0 l 1,0,-1
318 422 m 1,6,-1
 475 642 l 1,7,-1
 160 642 l 1,8,-1
 318 422 l 1,6,-1
160 72 m 1,9,-1
 475 72 l 1,10,-1
 318 291 l 1,11,-1
 160 72 l 1,9,-1
EndSplineSet
EndChar
StartChar: u10162
Encoding: 65890 65890 1857
Width: 808
Flags: W
LayerCount: 2
Fore
SplineSet
0 0 m 1,0,-1
 385 714 l 1,1,-1
 423 714 l 1,2,-1
 808 0 l 1,3,-1
 715 0 l 1,4,-1
 444 503 l 1,5,-1
 444 0 l 1,6,-1
 364 0 l 1,7,-1
 364 503 l 1,8,-1
 93 0 l 1,9,-1
 0 0 l 1,0,-1
EndSplineSet
EndChar
StartChar: u1016C
Encoding: 65900 65900 1867
Width: 963
Flags: W
LayerCount: 2
Fore
SplineSet
97 0 m 1,0,-1
 97 714 l 1,1,-1
 633 714 l 1,2,-1
 633 464 l 1,3,-1
 924 464 l 1,4,-1
 924 386 l 1,5,-1
 543 386 l 1,6,-1
 543 635 l 1,7,-1
 187 635 l 1,8,-1
 187 0 l 1,9,-1
 97 0 l 1,0,-1
EndSplineSet
EndChar
StartChar: u1016E
Encoding: 65902 65902 1869
Width: 1395
Flags: W
LayerCount: 2
Fore
SplineSet
97 0 m 1,0,-1
 97 714 l 1,1,-1
 580 714 l 1,2,-1
 580 413 l 1,3,-1
 936 413 l 1,4,-1
 936 714 l 1,5,-1
 1335 714 l 1,6,-1
 1335 635 l 1,7,-1
 1026 635 l 1,8,-1
 1026 412 l 1,9,-1
 1317 412 l 1,10,-1
 1317 334 l 1,11,-1
 1026 334 l 1,12,-1
 1026 79 l 1,13,-1
 1335 79 l 1,14,-1
 1335 0 l 1,15,-1
 936 0 l 1,16,-1
 936 334 l 1,17,-1
 580 334 l 1,18,-1
 580 0 l 1,19,-1
 490 0 l 1,20,-1
 490 635 l 1,21,-1
 187 635 l 1,22,-1
 187 0 l 1,23,-1
 97 0 l 1,0,-1
EndSplineSet
EndChar
StartChar: u10172
Encoding: 65906 65906 1873
Width: 830
Flags: W
LayerCount: 2
Fore
SplineSet
240 0 m 1,0,-1
 240 319 l 1,1,-1
 0 565 l 1,2,-1
 80 565 l 1,3,-1
 240 424 l 1,4,-1
 240 714 l 1,5,-1
 780 714 l 1,6,-1
 780 433 l 1,7,-1
 690 433 l 1,8,-1
 690 635 l 1,9,-1
 330 635 l 1,10,-1
 330 424 l 1,11,-1
 490 565 l 1,12,-1
 570 565 l 1,13,-1
 330 319 l 1,14,-1
 330 0 l 1,15,-1
 240 0 l 1,0,-1
EndSplineSet
EndChar
StartChar: u10176
Encoding: 65910 65910 1818
Width: 604
Flags: W
LayerCount: 2
Fore
SplineSet
237 337 m 1,0,-1
 281 483 l 1,1,-1
 348 483 l 1,2,-1
 266 337 l 1,3,-1
 237 337 l 1,0,-1
361 337 m 1,4,-1
 405 483 l 1,5,-1
 472 483 l 1,6,-1
 390 337 l 1,7,-1
 361 337 l 1,4,-1
541 48 m 1,8,-1
 474 63 l 1,9,10
 487 94 487 94 487 124 c 0,11,12
 487 189 487 189 394 189 c 2,13,-1
 196 189 l 2,14,15
 40 189 40 189 40 318 c 0,16,17
 40 366 40 366 63 407 c 1,18,-1
 130 392 l 1,19,20
 117 361 117 361 117 331 c 0,21,22
 117 266 117 266 210 266 c 2,23,-1
 408 266 l 2,24,25
 564 266 564 266 564 137 c 0,26,27
 564 89 564 89 541 48 c 1,8,-1
EndSplineSet
EndChar
StartChar: u1017C
Encoding: 65916 65916 1950
Width: 533
Flags: W
LayerCount: 2
Fore
SplineSet
418 242 m 1,0,1
 418 321 418 321 368 321 c 0,2,3
 347 321 347 321 306 298 c 0,4,5
 266 276 266 276 228 261.5 c 128,-1,6
 190 247 190 247 155 247 c 0,7,8
 104 247 104 247 77 288.5 c 128,-1,9
 50 330 50 330 50 396 c 1,10,-1
 115 396 l 1,11,12
 115 317 115 317 165 317 c 0,13,14
 187 317 187 317 235 340 c 0,15,16
 282 363 282 363 312.5 377 c 128,-1,17
 343 391 343 391 378 391 c 0,18,19
 429 391 429 391 456 349.5 c 128,-1,20
 483 308 483 308 483 242 c 1,21,-1
 418 242 l 1,0,1
EndSplineSet
EndChar
StartChar: u10185
Encoding: 65925 65925 1959
Width: 936
Flags: W
LayerCount: 2
Fore
SplineSet
245 197 m 0,0,1
 183 197 183 197 135.5 221.5 c 128,-1,2
 88 246 88 246 61.5 288 c 128,-1,3
 35 330 35 330 35 385 c 0,4,5
 35 442 35 442 63 485.5 c 128,-1,6
 91 529 91 529 134.5 553.5 c 128,-1,7
 178 578 178 578 225 578 c 1,8,-1
 225 500 l 1,9,10
 185 500 185 500 155 467 c 128,-1,11
 125 434 125 434 125 385 c 256,12,13
 125 336 125 336 158.5 305.5 c 128,-1,14
 192 275 192 275 245 275 c 0,15,16
 271 275 271 275 295 284 c 128,-1,17
 319 293 319 293 347 317.5 c 128,-1,18
 375 342 375 342 414 390 c 1,19,-1
 302 472 l 1,20,-1
 338 519 l 1,21,-1
 451 437 l 1,22,23
 496 492 496 492 534 523.5 c 128,-1,24
 572 555 572 555 610 568 c 128,-1,25
 648 581 648 581 691 581 c 0,26,27
 753 581 753 581 800.5 556.5 c 128,-1,28
 848 532 848 532 874.5 490 c 128,-1,29
 901 448 901 448 901 393 c 0,30,31
 901 336 901 336 874 292.5 c 128,-1,32
 847 249 847 249 803.5 224.5 c 128,-1,33
 760 200 760 200 711 200 c 1,34,-1
 711 278 l 1,35,36
 751 278 751 278 781 311 c 128,-1,37
 811 344 811 344 811 393 c 256,38,39
 811 442 811 442 777.5 472.5 c 128,-1,40
 744 503 744 503 691 503 c 0,41,42
 640 503 640 503 596 467 c 0,43,44
 575 449 575 449 521 386 c 1,45,-1
 632 306 l 1,46,-1
 596 259 l 1,47,-1
 484 340 l 1,48,49
 445 294 445 294 419 268.5 c 128,-1,50
 393 243 393 243 371.5 230 c 128,-1,51
 350 217 350 217 326 209 c 0,52,53
 288 197 288 197 245 197 c 0,0,1
EndSplineSet
EndChar
StartChar: u10186
Encoding: 65926 65926 1960
Width: 716
Flags: W
LayerCount: 2
Fore
SplineSet
50 290 m 1,0,-1
 50 369 l 1,1,-1
 666 369 l 1,2,-1
 666 290 l 1,3,-1
 50 290 l 1,0,-1
358 6 m 256,4,5
 313 6 313 6 282.5 36.5 c 128,-1,6
 252 67 252 67 252 112 c 256,7,8
 252 157 252 157 282.5 187.5 c 128,-1,9
 313 218 313 218 358 218 c 256,10,11
 403 218 403 218 433.5 187.5 c 128,-1,12
 464 157 464 157 464 112 c 256,13,14
 464 67 464 67 433.5 36.5 c 128,-1,15
 403 6 403 6 358 6 c 256,4,5
358 56 m 256,16,17
 382 56 382 56 398 72 c 128,-1,18
 414 88 414 88 414 112 c 0,19,20
 414 137 414 137 398 152.5 c 128,-1,21
 382 168 382 168 358 168 c 256,22,23
 334 168 334 168 318 152.5 c 128,-1,24
 302 137 302 137 302 112 c 0,25,26
 302 88 302 88 318 72 c 128,-1,27
 334 56 334 56 358 56 c 256,16,17
EndSplineSet
EndChar
StartChar: u10187
Encoding: 65927 65927 1961
Width: 807
Flags: W
LayerCount: 2
Fore
SplineSet
394 -240 m 0,0,1
 267 -240 267 -240 198.5 -165 c 128,-1,2
 130 -90 130 -90 130 52 c 0,3,4
 130 68 130 68 131 84 c 128,-1,5
 132 100 132 100 134 117 c 2,6,-1
 196 681 l 1,7,8
 188 680 188 680 179.5 679 c 128,-1,9
 171 678 171 678 163 678 c 0,10,11
 127 678 127 678 91 690 c 128,-1,12
 55 702 55 702 35 719 c 1,13,-1
 35 791 l 1,14,15
 116 758 116 758 170 758 c 0,16,17
 233 758 233 758 299 791 c 1,18,-1
 226 110 l 2,19,20
 223 83 223 83 223 60 c 0,21,22
 223 -44 223 -44 270 -102.5 c 128,-1,23
 317 -161 317 -161 397 -161 c 0,24,25
 480 -161 480 -161 530.5 -111.5 c 128,-1,26
 581 -62 581 -62 581 20 c 0,27,28
 581 80 581 80 553.5 130.5 c 128,-1,29
 526 181 526 181 477 204 c 1,30,-1
 486 284 l 1,31,-1
 787 284 l 1,32,-1
 779 205 l 1,33,-1
 606 205 l 1,34,35
 671 132 671 132 671 19 c 0,36,37
 671 -58 671 -58 637.5 -116.5 c 128,-1,38
 604 -175 604 -175 542 -207.5 c 128,-1,39
 480 -240 480 -240 394 -240 c 0,0,1
EndSplineSet
EndChar
StartChar: u10188
Encoding: 65928 65928 1962
Width: 871
Flags: W
LayerCount: 2
Fore
SplineSet
97 0 m 1,0,-1
 97 714 l 1,1,-1
 547 714 l 1,2,3
 547 793 547 793 587.5 834 c 128,-1,4
 628 875 628 875 707 875 c 0,5,6
 780 875 780 875 820.5 833 c 128,-1,7
 861 791 861 791 861 717 c 0,8,9
 861 633 861 633 817 586 c 128,-1,10
 773 539 773 539 697 539 c 0,11,12
 660 539 660 539 629 554 c 1,13,-1
 629 468 l 1,14,-1
 738 508 l 1,15,-1
 756 456 l 1,16,-1
 629 410 l 1,17,-1
 629 329 l 1,18,-1
 547 299 l 1,19,-1
 547 380 l 1,20,-1
 453 346 l 1,21,-1
 435 398 l 1,22,-1
 547 438 l 1,23,-1
 547 635 l 1,24,-1
 187 635 l 1,25,-1
 187 0 l 1,26,-1
 97 0 l 1,0,-1
697 605 m 0,27,28
 738 605 738 605 758.5 635 c 128,-1,29
 779 665 779 665 779 717 c 0,30,31
 779 761 779 761 756 785 c 128,-1,32
 733 809 733 809 701 809 c 0,33,34
 629 809 629 809 629 715 c 2,35,-1
 629 629 l 1,36,37
 658 605 658 605 697 605 c 0,27,28
EndSplineSet
EndChar
StartChar: u1018A
Encoding: 65930 65930 1821
Width: 1012
Flags: W
LayerCount: 2
Fore
SplineSet
50 453 m 1,0,-1
 50 532 l 1,1,-1
 962 532 l 1,2,-1
 962 453 l 1,3,-1
 50 453 l 1,0,-1
506 -10 m 256,4,5
 431 -10 431 -10 392.5 34.5 c 128,-1,6
 354 79 354 79 354 154 c 256,7,8
 354 229 354 229 392.5 273.5 c 128,-1,9
 431 318 431 318 506 318 c 256,10,11
 581 318 581 318 619.5 273.5 c 128,-1,12
 658 229 658 229 658 154 c 256,13,14
 658 79 658 79 619.5 34.5 c 128,-1,15
 581 -10 581 -10 506 -10 c 256,4,5
506 41 m 256,16,17
 593 41 593 41 593 154 c 256,18,19
 593 267 593 267 506 267 c 256,20,21
 419 267 419 267 419 154 c 256,22,23
 419 41 419 41 506 41 c 256,16,17
EndSplineSet
EndChar
StartChar: u1018D
Encoding: 65933 65933 1965
Width: 478
Flags: W
LayerCount: 2
Fore
SplineSet
21 184 m 1,0,-1
 21 364 l 2,1,2
 21 404 21 404 39 424 c 128,-1,3
 57 444 57 444 103 444 c 2,4,-1
 194 444 l 1,5,-1
 194 782 l 1,6,-1
 284 782 l 1,7,-1
 284 444 l 1,8,-1
 356 444 l 2,9,10
 382 444 382 444 382 471 c 2,11,-1
 382 639 l 1,12,-1
 458 639 l 1,13,-1
 458 459 l 2,14,15
 458 419 458 419 440 398.5 c 128,-1,16
 422 378 422 378 375 378 c 2,17,-1
 284 378 l 1,18,-1
 284 0 l 1,19,-1
 194 0 l 1,20,-1
 194 378 l 1,21,-1
 122 378 l 2,22,23
 96 378 96 378 96 352 c 2,24,-1
 96 184 l 1,25,-1
 21 184 l 1,0,-1
EndSplineSet
EndChar
StartChar: u10196
Encoding: 65942 65942 1941
Width: 586
Flags: W
LayerCount: 2
Fore
SplineSet
4 0 m 1,0,-1
 217 335 l 1,1,-1
 2 335 l 1,2,-1
 2 410 l 1,3,-1
 216 410 l 1,4,-1
 19 714 l 1,5,-1
 119 714 l 1,6,-1
 294 434 l 1,7,-1
 470 714 l 1,8,-1
 565 714 l 1,9,-1
 367 410 l 1,10,-1
 583 410 l 1,11,-1
 583 335 l 1,12,-1
 369 335 l 1,13,-1
 582 0 l 1,14,-1
 480 0 l 1,15,-1
 291 310 l 1,16,-1
 99 0 l 1,17,-1
 4 0 l 1,0,-1
EndSplineSet
EndChar
StartChar: u101D3
Encoding: 66003 66003 1720
Width: 515
GlyphClass: 2
Flags: W
AnchorPoint: "Anchor-0" 278 0 basechar 0
LayerCount: 2
Fore
SplineSet
257 -8 m 0,0,1
 207 -8 207 -8 207 6 c 0,2,3
 207 23 207 23 262 55 c 1,4,5
 248 80 248 80 240.5 97.5 c 128,-1,6
 233 115 233 115 229.5 133.5 c 128,-1,7
 226 152 226 152 225 180 c 1,8,9
 225 153 225 153 211 120 c 1,10,-1
 209 95 l 1,11,-1
 209 65 l 2,12,13
 209 48 209 48 200.5 30 c 128,-1,14
 192 12 192 12 183 10 c 0,15,16
 174 7 174 7 154.5 4.5 c 128,-1,17
 135 2 135 2 108 2 c 0,18,19
 51 2 51 2 51 19 c 0,20,21
 51 28 51 28 73 43 c 0,22,23
 96 58 96 58 134 67 c 1,24,-1
 127 128 l 2,25,26
 127 136 127 136 130.5 159.5 c 128,-1,27
 134 183 134 183 141 221 c 0,28,29
 147 258 147 258 150.5 286.5 c 128,-1,30
 154 315 154 315 154 332 c 0,31,32
 154 363 154 363 137 392 c 256,33,34
 120 421 120 421 120 455 c 0,35,36
 120 478 120 478 131 497 c 128,-1,37
 142 516 142 516 158 524 c 1,38,-1
 161 546 l 1,39,-1
 123 558 l 2,40,41
 112 560 112 560 109.5 565.5 c 128,-1,42
 107 571 107 571 107 583 c 2,43,-1
 107 602 l 1,44,-1
 86 613 l 2,45,46
 73 620 73 620 73 628 c 0,47,48
 73 639 73 639 90 656 c 128,-1,49
 107 673 107 673 133 690.5 c 128,-1,50
 159 708 159 708 185.5 719.5 c 128,-1,51
 212 731 212 731 231 731 c 0,52,53
 269 731 269 731 290 712 c 128,-1,54
 311 693 311 693 311 659 c 0,55,56
 311 637 311 637 293 613 c 128,-1,57
 275 589 275 589 241 569 c 1,58,-1
 239 543 l 1,59,-1
 263 545 l 1,60,61
 343 545 343 545 382 461 c 1,62,-1
 410 474 l 1,63,-1
 426 480 l 2,64,65
 434 480 434 480 443.5 469.5 c 128,-1,66
 453 459 453 459 459 445.5 c 128,-1,67
 465 432 465 432 465 423 c 0,68,69
 465 417 465 417 457 409 c 0,70,71
 453 406 453 406 439.5 399.5 c 128,-1,72
 426 393 426 393 403 385 c 1,73,74
 405 371 405 371 406 355 c 128,-1,75
 407 339 407 339 407 321 c 0,76,77
 407 306 407 306 390.5 303 c 128,-1,78
 374 300 374 300 359 300 c 0,79,80
 340 300 340 300 337 310 c 2,81,-1
 323 364 l 1,82,-1
 298 360 l 1,83,84
 318 322 318 322 318 286 c 0,85,86
 318 247 318 247 301 190 c 2,87,-1
 297 175 l 2,88,89
 297 161 297 161 306 146 c 0,90,91
 346 76 346 76 346 41 c 0,92,93
 346 19 346 19 340 13 c 128,-1,94
 334 7 334 7 306 0 c 0,95,96
 292 -4 292 -4 280 -6 c 128,-1,97
 268 -8 268 -8 257 -8 c 0,0,1
266 444 m 1,98,99
 274 485 274 485 297 485 c 0,100,101
 312 485 312 485 329 444 c 1,102,-1
 351 449 l 1,103,104
 321 517 321 517 257 517 c 1,105,-1
 218 514 l 2,106,107
 212 514 212 514 212 525 c 2,108,-1
 215 576 l 2,109,110
 215 581 215 581 224 590 c 0,111,112
 283 628 283 628 283 659 c 0,113,114
 283 678 283 678 268.5 690.5 c 128,-1,115
 254 703 254 703 230 703 c 0,116,117
 215 703 215 703 194 694 c 128,-1,118
 173 685 173 685 153 672.5 c 128,-1,119
 133 660 133 660 119.5 649.5 c 128,-1,120
 106 639 106 639 106 635 c 2,121,-1
 130 623 l 2,122,123
 137 620 137 620 137 613 c 2,124,-1
 135 583 l 1,125,-1
 182 569 l 2,126,127
 191 566 191 566 191 560 c 2,128,-1
 184 510 l 2,129,130
 180 507 180 507 174 502.5 c 128,-1,131
 168 498 168 498 162 491 c 1,132,133
 190 472 190 472 212 460.5 c 128,-1,134
 234 449 234 449 266 444 c 1,98,99
183 607 m 256,135,136
 166 607 166 607 156 616 c 128,-1,137
 146 625 146 625 146 639 c 0,138,139
 146 652 146 652 156 661 c 128,-1,140
 166 670 166 670 183 670 c 256,141,142
 200 670 200 670 210.5 661 c 128,-1,143
 221 652 221 652 221 639 c 0,144,145
 221 625 221 625 210.5 616 c 128,-1,146
 200 607 200 607 183 607 c 256,135,136
183 630 m 256,147,148
 195 630 195 630 195 639 c 256,149,150
 195 648 195 648 183 648 c 256,151,152
 171 648 171 648 171 639 c 256,153,154
 171 630 171 630 183 630 c 256,147,148
269 386 m 0,155,156
 290 386 290 386 318 391.5 c 128,-1,157
 346 397 346 397 373 405 c 128,-1,158
 400 413 400 413 418 420.5 c 128,-1,159
 436 428 436 428 436 432 c 0,160,161
 436 435 436 435 431.5 442.5 c 128,-1,162
 427 450 427 450 424 450 c 2,163,-1
 422 450 l 1,164,-1
 407 444 l 1,165,166
 351 416 351 416 301 416 c 0,167,168
 262 416 262 416 226 427 c 128,-1,169
 190 438 190 438 149 466 c 1,170,-1
 148 454 l 1,171,-1
 149 438 l 1,172,173
 173 414 173 414 205 400 c 128,-1,174
 237 386 237 386 269 386 c 0,155,156
294 442 m 1,175,-1
 301 442 l 1,176,-1
 296 458 l 1,177,-1
 294 442 l 1,175,-1
250 19 m 1,178,179
 290 19 290 19 318 34 c 1,180,-1
 318 41 l 2,181,182
 318 59 318 59 293 105 c 0,183,184
 269 153 269 153 269 175 c 1,185,-1
 276 203 l 2,186,187
 290 243 290 243 290 286 c 0,188,189
 290 323 290 323 267 358 c 1,190,-1
 263 358 l 2,191,192
 217 358 217 358 171 386 c 1,193,194
 182 361 182 361 182 332 c 0,195,196
 182 311 182 311 177.5 277 c 128,-1,197
 173 243 173 243 165 196 c 2,198,-1
 155 128 l 1,199,-1
 159 97 l 1,200,-1
 162 58 l 2,201,202
 162 47 162 47 155 44 c 2,203,-1
 102 30 l 1,204,-1
 118 30 l 2,205,206
 144 30 144 30 170 36 c 1,207,208
 181 50 181 50 181 65 c 2,209,-1
 185 132 l 1,210,211
 209 189 209 189 209 238 c 0,212,213
 209 272 209 272 221 272 c 0,214,215
 231 272 231 272 236 255.5 c 128,-1,216
 241 239 241 239 241 226 c 0,217,218
 243 194 243 194 248 167.5 c 128,-1,219
 253 141 253 141 261 121 c 256,220,221
 269 101 269 101 275.5 87.5 c 128,-1,222
 282 74 282 74 287 69 c 0,223,224
 296 58 296 58 296 52 c 0,225,226
 296 45 296 45 283 39 c 0,227,228
 277 35 277 35 268.5 30.5 c 128,-1,229
 260 26 260 26 250 19 c 1,178,179
363 326 m 1,230,-1
 378 328 l 1,231,-1
 372 375 l 1,232,-1
 350 369 l 1,233,-1
 358 341 l 1,234,-1
 363 326 l 1,230,-1
EndSplineSet
EndChar
StartChar: u101D9
Encoding: 66009 66009 1732
Width: 323
GlyphClass: 2
Flags: W
AnchorPoint: "Anchor-0" 122 -80 basechar 0
LayerCount: 2
Fore
SplineSet
143 -80 m 0,0,1
 127 -80 127 -80 120 -13 c 0,2,3
 116 20 116 20 114 86.5 c 128,-1,4
 112 153 112 153 112 253 c 0,5,6
 112 358 112 358 118 435 c 1,7,8
 84 454 84 454 70 477 c 128,-1,9
 56 500 56 500 55 533 c 2,10,-1
 51 628 l 1,11,12
 54 730 54 730 135 730 c 2,13,-1
 196 730 l 2,14,15
 273 730 273 730 273 650 c 0,16,17
 273 641 273 641 271.5 616.5 c 128,-1,18
 270 592 270 592 265 560.5 c 128,-1,19
 260 529 260 529 250.5 499.5 c 128,-1,20
 241 470 241 470 225 450.5 c 128,-1,21
 209 431 209 431 185 430 c 1,22,23
 187 392 187 392 188 347.5 c 128,-1,24
 189 303 189 303 189 253 c 0,25,26
 189 171 189 171 186 109 c 128,-1,27
 183 47 183 47 176 4 c 0,28,29
 162 -80 162 -80 143 -80 c 0,0,1
149 615 m 1,30,31
 152 624 152 624 157 624 c 2,32,-1
 164 615 l 2,33,34
 165 618 165 618 174 628.5 c 128,-1,35
 183 639 183 639 194.5 651 c 128,-1,36
 206 663 206 663 217 672 c 128,-1,37
 228 681 228 681 232 681 c 2,38,-1
 238 679 l 1,39,40
 226 702 226 702 196 702 c 2,41,-1
 184 702 l 1,42,-1
 184 699 l 1,43,-1
 181 676 l 2,44,45
 180 667 180 667 175.5 654 c 128,-1,46
 171 641 171 641 169 637 c 0,47,48
 166 629 166 629 159 629 c 256,49,50
 152 629 152 629 150 635 c 1,51,-1
 145 629 l 1,52,-1
 142 629 l 1,53,-1
 138 630 l 1,54,-1
 149 615 l 1,30,31
151 649 m 1,55,-1
 165 702 l 1,56,-1
 136 702 l 1,57,-1
 151 649 l 1,55,-1
130 639 m 1,58,-1
 125 655 l 1,59,-1
 116 697 l 1,60,-1
 116 699 l 1,61,62
 98 694 98 694 90 677 c 0,63,64
 92 676 92 676 102 666.5 c 128,-1,65
 112 657 112 657 130 639 c 1,58,-1
174 567 m 1,66,-1
 181 576 l 1,67,-1
 209 604 l 2,68,69
 228 626 228 626 239 626 c 2,70,-1
 243 625 l 1,71,-1
 244 647 l 1,72,-1
 242 668 l 2,73,74
 240 663 240 663 226 647.5 c 128,-1,75
 212 632 212 632 196 617 c 128,-1,76
 180 602 180 602 172 601 c 2,77,-1
 167 602 l 1,78,-1
 174 567 l 1,66,-1
135 571 m 1,79,-1
 143 601 l 1,80,-1
 140 600 l 2,81,82
 138 600 138 600 130 604 c 0,83,84
 127 606 127 606 115 618.5 c 128,-1,85
 103 631 103 631 81 653 c 1,86,-1
 79 636 l 1,87,-1
 79 625 l 1,88,89
 86 621 86 621 104 604 c 128,-1,90
 122 587 122 587 135 571 c 1,79,-1
180 511 m 1,91,92
 205 536 205 536 218.5 550 c 128,-1,93
 232 564 232 564 235 565 c 2,94,-1
 239 599 l 2,95,96
 237 596 237 596 224 583 c 128,-1,97
 211 570 211 570 197.5 557.5 c 128,-1,98
 184 545 184 545 181 545 c 0,99,100
 180 545 180 545 179 546 c 2,101,-1
 177 546 l 1,102,-1
 180 511 l 1,91,92
127 518 m 1,103,-1
 131 546 l 2,104,105
 128 546 128 546 125 549 c 0,106,107
 124 550 124 550 112 560.5 c 128,-1,108
 100 571 100 571 80 592 c 1,109,-1
 82 562 l 1,110,-1
 127 518 l 1,103,-1
146 -22 m 1,111,112
 154 23 154 23 158 91.5 c 128,-1,113
 162 160 162 160 161 253 c 2,114,-1
 158 435 l 1,115,-1
 155 528 l 1,116,117
 140 438 140 438 140 253 c 0,118,119
 140 110 140 110 146 -22 c 1,111,112
184 458 m 1,120,121
 209 462 209 462 217.5 481.5 c 128,-1,122
 226 501 226 501 230 526 c 1,123,-1
 214 510 l 2,124,125
 191 487 191 487 185 487 c 2,126,-1
 182 488 l 1,127,-1
 184 458 l 1,120,121
120 464 m 1,128,-1
 123 489 l 1,129,130
 118 490 118 490 84 525 c 1,131,132
 89 480 89 480 120 464 c 1,128,-1
EndSplineSet
EndChar
